G75*
%MOIN*%
%OFA0B0*%
%FSLAX25Y25*%
%IPPOS*%
%LPD*%
%AMOC8*
5,1,8,0,0,1.08239X$1,22.5*
%
%ADD10C,0.20535*%
%ADD11C,0.16000*%
%ADD12C,0.00800*%
D10*
X0516750Y0232571D03*
X0516750Y0386500D03*
X0485250Y0386500D03*
X0548250Y0386500D03*
D11*
X0540372Y0191232D03*
X0516750Y0191232D03*
X0493128Y0191232D03*
D12*
X0515750Y0212462D02*
X0457193Y0212462D01*
X0458064Y0211664D02*
X0515750Y0211664D01*
X0515750Y0210865D02*
X0458936Y0210865D01*
X0459807Y0210067D02*
X0515750Y0210067D01*
X0515750Y0209268D02*
X0460679Y0209268D01*
X0461550Y0208470D02*
X0515750Y0208470D01*
X0515750Y0207671D02*
X0462421Y0207671D01*
X0463293Y0206873D02*
X0515750Y0206873D01*
X0515750Y0206074D02*
X0464164Y0206074D01*
X0465036Y0205276D02*
X0515750Y0205276D01*
X0515750Y0204477D02*
X0465907Y0204477D01*
X0466779Y0203679D02*
X0515750Y0203679D01*
X0515750Y0202880D02*
X0467650Y0202880D01*
X0468521Y0202082D02*
X0515750Y0202082D01*
X0515750Y0201283D02*
X0469393Y0201283D01*
X0470264Y0200485D02*
X0514524Y0200485D01*
X0514880Y0200632D02*
X0511425Y0199201D01*
X0508781Y0196557D01*
X0507350Y0193102D01*
X0507350Y0189362D01*
X0508781Y0185908D01*
X0511425Y0183263D01*
X0514880Y0181832D01*
X0515750Y0181832D01*
X0515750Y0180450D01*
X0492128Y0180450D01*
X0446641Y0222131D01*
X0446641Y0222131D01*
X0446214Y0222523D01*
X0446214Y0222523D01*
X0443880Y0224728D01*
X0439422Y0229349D01*
X0437302Y0231758D01*
X0437302Y0231759D01*
X0436706Y0232637D01*
X0436148Y0234671D01*
X0436506Y0236749D01*
X0437712Y0238479D01*
X0438567Y0239106D01*
X0439069Y0239396D01*
X0442029Y0241105D01*
X0443338Y0241861D01*
X0443338Y0241861D01*
X0446139Y0244971D01*
X0447841Y0248794D01*
X0448278Y0252956D01*
X0447408Y0257049D01*
X0445316Y0260673D01*
X0445316Y0260673D01*
X0442206Y0263474D01*
X0442206Y0263474D01*
X0438383Y0265176D01*
X0438383Y0265176D01*
X0434221Y0265613D01*
X0431049Y0264939D01*
X0433336Y0267226D01*
X0434583Y0270237D01*
X0434583Y0273495D01*
X0433336Y0276506D01*
X0431032Y0278810D01*
X0428021Y0280057D01*
X0424762Y0280057D01*
X0421752Y0278810D01*
X0419447Y0276506D01*
X0418200Y0273495D01*
X0418200Y0270237D01*
X0419447Y0267226D01*
X0421752Y0264922D01*
X0424762Y0263675D01*
X0428021Y0263675D01*
X0428926Y0264050D01*
X0428818Y0263987D01*
X0428818Y0263987D01*
X0425356Y0261988D01*
X0424385Y0261562D01*
X0422284Y0261382D01*
X0420305Y0262111D01*
X0418823Y0263611D01*
X0418361Y0264566D01*
X0416618Y0269930D01*
X0415167Y0275380D01*
X0415043Y0276244D01*
X0415264Y0277971D01*
X0416081Y0279507D01*
X0417388Y0280657D01*
X0419016Y0281271D01*
X0419886Y0281350D01*
X0424871Y0281350D01*
X0429879Y0282820D01*
X0434270Y0285642D01*
X0437688Y0289586D01*
X0437688Y0289586D01*
X0439856Y0294334D01*
X0440598Y0299500D01*
X0483756Y0299500D01*
X0483756Y0300299D02*
X0440484Y0300299D01*
X0440369Y0301097D02*
X0483756Y0301097D01*
X0483756Y0301896D02*
X0440254Y0301896D01*
X0440139Y0302694D02*
X0483756Y0302694D01*
X0483756Y0302750D02*
X0483756Y0296250D01*
X0485023Y0289876D01*
X0487511Y0283871D01*
X0491122Y0278467D01*
X0495717Y0273872D01*
X0501121Y0270261D01*
X0507126Y0267773D01*
X0513500Y0266506D01*
X0515750Y0266506D01*
X0515750Y0244239D01*
X0515214Y0244239D01*
X0512246Y0243443D01*
X0509586Y0241907D01*
X0507413Y0239735D01*
X0505877Y0237074D01*
X0505082Y0234107D01*
X0505082Y0231035D01*
X0505877Y0228067D01*
X0507413Y0225407D01*
X0509586Y0223234D01*
X0512246Y0221698D01*
X0515214Y0220903D01*
X0515750Y0220903D01*
X0515750Y0200632D01*
X0514880Y0200632D01*
X0512596Y0199686D02*
X0471136Y0199686D01*
X0472007Y0198888D02*
X0511112Y0198888D01*
X0510313Y0198089D02*
X0472879Y0198089D01*
X0473750Y0197291D02*
X0509515Y0197291D01*
X0508754Y0196492D02*
X0474621Y0196492D01*
X0475493Y0195694D02*
X0508423Y0195694D01*
X0508093Y0194895D02*
X0476364Y0194895D01*
X0477236Y0194097D02*
X0507762Y0194097D01*
X0507431Y0193298D02*
X0478107Y0193298D01*
X0478979Y0192499D02*
X0507350Y0192499D01*
X0507350Y0191701D02*
X0479850Y0191701D01*
X0480721Y0190902D02*
X0507350Y0190902D01*
X0507350Y0190104D02*
X0481593Y0190104D01*
X0482464Y0189305D02*
X0507374Y0189305D01*
X0507704Y0188507D02*
X0483336Y0188507D01*
X0484207Y0187708D02*
X0508035Y0187708D01*
X0508366Y0186910D02*
X0485078Y0186910D01*
X0485950Y0186111D02*
X0508697Y0186111D01*
X0509376Y0185313D02*
X0486821Y0185313D01*
X0487693Y0184514D02*
X0510174Y0184514D01*
X0510973Y0183716D02*
X0488564Y0183716D01*
X0489436Y0182917D02*
X0512261Y0182917D01*
X0514188Y0182119D02*
X0490307Y0182119D01*
X0491178Y0181320D02*
X0515750Y0181320D01*
X0515750Y0180522D02*
X0492050Y0180522D01*
X0517750Y0180522D02*
X0541450Y0180522D01*
X0541372Y0180450D02*
X0517750Y0180450D01*
X0517750Y0181832D01*
X0518620Y0181832D01*
X0522075Y0183263D01*
X0524719Y0185908D01*
X0526150Y0189362D01*
X0526150Y0193102D01*
X0524719Y0196557D01*
X0522075Y0199201D01*
X0518620Y0200632D01*
X0517750Y0200632D01*
X0517750Y0220903D01*
X0518286Y0220903D01*
X0521254Y0221698D01*
X0523914Y0223234D01*
X0526086Y0225407D01*
X0527623Y0228067D01*
X0528418Y0231035D01*
X0528418Y0234107D01*
X0527623Y0237074D01*
X0526086Y0239735D01*
X0523914Y0241907D01*
X0521254Y0243443D01*
X0518286Y0244239D01*
X0517750Y0244239D01*
X0517750Y0266506D01*
X0520000Y0266506D01*
X0526374Y0267773D01*
X0532379Y0270261D01*
X0537783Y0273872D01*
X0542378Y0278467D01*
X0545989Y0283871D01*
X0548477Y0289876D01*
X0549744Y0296250D01*
X0549744Y0302750D01*
X0548477Y0309124D01*
X0545989Y0315129D01*
X0542378Y0320533D01*
X0537783Y0325128D01*
X0532379Y0328739D01*
X0526374Y0331227D01*
X0520000Y0332494D01*
X0517750Y0332494D01*
X0517750Y0374832D01*
X0518286Y0374832D01*
X0521254Y0375627D01*
X0523914Y0377163D01*
X0526086Y0379336D01*
X0527623Y0381996D01*
X0528418Y0384964D01*
X0528418Y0388036D01*
X0527623Y0391004D01*
X0526086Y0393664D01*
X0523914Y0395836D01*
X0521254Y0397373D01*
X0518286Y0398168D01*
X0517750Y0398168D01*
X0517750Y0399703D01*
X0546059Y0399703D01*
X0551669Y0397895D01*
X0562859Y0393174D01*
X0573425Y0387186D01*
X0583224Y0380011D01*
X0592124Y0371747D01*
X0596198Y0367241D01*
X0596198Y0367241D01*
X0596198Y0367241D01*
X0596794Y0366363D01*
X0597352Y0364329D01*
X0596994Y0362251D01*
X0595788Y0360521D01*
X0594933Y0359894D01*
X0594431Y0359604D01*
X0594431Y0359604D01*
X0591471Y0357895D01*
X0590162Y0357139D01*
X0590162Y0357139D01*
X0587361Y0354029D01*
X0585659Y0350206D01*
X0585222Y0346044D01*
X0586092Y0341951D01*
X0586092Y0341951D01*
X0588184Y0338327D01*
X0588184Y0338326D01*
X0591294Y0335526D01*
X0595117Y0333824D01*
X0595117Y0333824D01*
X0599279Y0333387D01*
X0599279Y0333387D01*
X0602451Y0334061D01*
X0600164Y0331774D01*
X0598917Y0328763D01*
X0598917Y0325504D01*
X0600164Y0322494D01*
X0602468Y0320190D01*
X0605479Y0318943D01*
X0608738Y0318943D01*
X0611748Y0320190D01*
X0614053Y0322494D01*
X0615300Y0325504D01*
X0615300Y0328763D01*
X0614053Y0331774D01*
X0611748Y0334078D01*
X0608738Y0335325D01*
X0605479Y0335325D01*
X0604574Y0334950D01*
X0604682Y0335013D01*
X0604682Y0335013D01*
X0608144Y0337012D01*
X0609115Y0337438D01*
X0611216Y0337618D01*
X0613195Y0336889D01*
X0614677Y0335389D01*
X0615139Y0334434D01*
X0616882Y0329070D01*
X0618333Y0323620D01*
X0618457Y0322756D01*
X0618236Y0321029D01*
X0617419Y0319493D01*
X0616112Y0318343D01*
X0614484Y0317729D01*
X0613614Y0317650D01*
X0608629Y0317650D01*
X0603621Y0316180D01*
X0599230Y0313358D01*
X0595812Y0309414D01*
X0595812Y0309414D01*
X0593644Y0304666D01*
X0592902Y0299500D01*
X0549744Y0299500D01*
X0549744Y0300299D02*
X0593016Y0300299D01*
X0593131Y0301097D02*
X0549744Y0301097D01*
X0549744Y0301896D02*
X0593246Y0301896D01*
X0593361Y0302694D02*
X0549744Y0302694D01*
X0549597Y0303493D02*
X0593476Y0303493D01*
X0593590Y0304291D02*
X0549438Y0304291D01*
X0549279Y0305090D02*
X0593838Y0305090D01*
X0593644Y0304666D02*
X0593644Y0304666D01*
X0594202Y0305888D02*
X0549120Y0305888D01*
X0548961Y0306687D02*
X0594567Y0306687D01*
X0594932Y0307485D02*
X0548803Y0307485D01*
X0548644Y0308284D02*
X0595296Y0308284D01*
X0595661Y0309082D02*
X0548485Y0309082D01*
X0548163Y0309881D02*
X0596217Y0309881D01*
X0596909Y0310679D02*
X0547832Y0310679D01*
X0547502Y0311478D02*
X0597601Y0311478D01*
X0598293Y0312276D02*
X0547171Y0312276D01*
X0546840Y0313075D02*
X0598985Y0313075D01*
X0600032Y0313873D02*
X0546509Y0313873D01*
X0546179Y0314672D02*
X0601275Y0314672D01*
X0602517Y0315470D02*
X0545761Y0315470D01*
X0545228Y0316269D02*
X0603924Y0316269D01*
X0606644Y0317067D02*
X0544694Y0317067D01*
X0544161Y0317866D02*
X0614847Y0317866D01*
X0616477Y0318664D02*
X0543627Y0318664D01*
X0543093Y0319463D02*
X0604223Y0319463D01*
X0602397Y0320261D02*
X0542560Y0320261D01*
X0541851Y0321060D02*
X0601598Y0321060D01*
X0600800Y0321858D02*
X0541053Y0321858D01*
X0540254Y0322657D02*
X0600096Y0322657D01*
X0599766Y0323455D02*
X0539456Y0323455D01*
X0538657Y0324254D02*
X0599435Y0324254D01*
X0599104Y0325052D02*
X0537859Y0325052D01*
X0536702Y0325851D02*
X0598917Y0325851D01*
X0598917Y0326649D02*
X0535507Y0326649D01*
X0534312Y0327448D02*
X0598917Y0327448D01*
X0598917Y0328246D02*
X0533116Y0328246D01*
X0531641Y0329045D02*
X0599034Y0329045D01*
X0599364Y0329843D02*
X0529713Y0329843D01*
X0527785Y0330642D02*
X0599695Y0330642D01*
X0600026Y0331440D02*
X0525299Y0331440D01*
X0521284Y0332239D02*
X0600629Y0332239D01*
X0601428Y0333037D02*
X0517750Y0333037D01*
X0517750Y0333836D02*
X0595091Y0333836D01*
X0593297Y0334634D02*
X0517750Y0334634D01*
X0517750Y0335433D02*
X0591504Y0335433D01*
X0591294Y0335526D02*
X0591294Y0335526D01*
X0590511Y0336232D02*
X0517750Y0336232D01*
X0517750Y0337030D02*
X0589624Y0337030D01*
X0588737Y0337829D02*
X0517750Y0337829D01*
X0517750Y0338627D02*
X0588011Y0338627D01*
X0587550Y0339426D02*
X0517750Y0339426D01*
X0517750Y0340224D02*
X0587089Y0340224D01*
X0586628Y0341023D02*
X0517750Y0341023D01*
X0517750Y0341821D02*
X0586167Y0341821D01*
X0585950Y0342620D02*
X0517750Y0342620D01*
X0517750Y0343418D02*
X0585780Y0343418D01*
X0585610Y0344217D02*
X0517750Y0344217D01*
X0517750Y0345015D02*
X0585440Y0345015D01*
X0585271Y0345814D02*
X0517750Y0345814D01*
X0517750Y0346612D02*
X0585282Y0346612D01*
X0585222Y0346044D02*
X0585222Y0346044D01*
X0585365Y0347411D02*
X0517750Y0347411D01*
X0517750Y0348209D02*
X0585449Y0348209D01*
X0585533Y0349008D02*
X0517750Y0349008D01*
X0517750Y0349806D02*
X0585617Y0349806D01*
X0585659Y0350206D02*
X0585659Y0350206D01*
X0585837Y0350605D02*
X0517750Y0350605D01*
X0517750Y0351403D02*
X0586192Y0351403D01*
X0586548Y0352202D02*
X0517750Y0352202D01*
X0517750Y0353000D02*
X0586903Y0353000D01*
X0587259Y0353799D02*
X0517750Y0353799D01*
X0517750Y0354597D02*
X0587873Y0354597D01*
X0587361Y0354029D02*
X0587361Y0354029D01*
X0588592Y0355396D02*
X0517750Y0355396D01*
X0517750Y0356194D02*
X0589311Y0356194D01*
X0590030Y0356993D02*
X0517750Y0356993D01*
X0517750Y0357791D02*
X0591291Y0357791D01*
X0591471Y0357895D02*
X0591471Y0357895D01*
X0592675Y0358590D02*
X0517750Y0358590D01*
X0517750Y0359388D02*
X0594058Y0359388D01*
X0595332Y0360187D02*
X0517750Y0360187D01*
X0517750Y0360985D02*
X0596112Y0360985D01*
X0596668Y0361784D02*
X0517750Y0361784D01*
X0517750Y0362582D02*
X0597051Y0362582D01*
X0597189Y0363381D02*
X0517750Y0363381D01*
X0517750Y0364179D02*
X0597326Y0364179D01*
X0597174Y0364978D02*
X0517750Y0364978D01*
X0517750Y0365776D02*
X0596955Y0365776D01*
X0596650Y0366575D02*
X0517750Y0366575D01*
X0517750Y0367373D02*
X0596078Y0367373D01*
X0595356Y0368172D02*
X0517750Y0368172D01*
X0517750Y0368970D02*
X0594634Y0368970D01*
X0593912Y0369769D02*
X0517750Y0369769D01*
X0517750Y0370568D02*
X0593190Y0370568D01*
X0592468Y0371366D02*
X0517750Y0371366D01*
X0517750Y0372165D02*
X0591674Y0372165D01*
X0590814Y0372963D02*
X0517750Y0372963D01*
X0517750Y0373762D02*
X0589954Y0373762D01*
X0589094Y0374560D02*
X0517750Y0374560D01*
X0515750Y0374560D02*
X0444406Y0374560D01*
X0445266Y0375359D02*
X0513250Y0375359D01*
X0512246Y0375627D02*
X0515214Y0374832D01*
X0515750Y0374832D01*
X0515750Y0332494D01*
X0513500Y0332494D01*
X0507126Y0331227D01*
X0501121Y0328739D01*
X0495717Y0325128D01*
X0491122Y0320533D01*
X0487511Y0315129D01*
X0485023Y0309124D01*
X0483756Y0302750D01*
X0483903Y0303493D02*
X0440024Y0303493D01*
X0439910Y0304291D02*
X0484062Y0304291D01*
X0484221Y0305090D02*
X0439662Y0305090D01*
X0439856Y0304666D02*
X0437688Y0309414D01*
X0434270Y0313358D01*
X0429879Y0316180D01*
X0424871Y0317650D01*
X0419886Y0317650D01*
X0419016Y0317729D01*
X0417388Y0318343D01*
X0416081Y0319493D01*
X0415264Y0321029D01*
X0415043Y0322756D01*
X0415167Y0323620D01*
X0415167Y0323620D01*
X0416618Y0329070D01*
X0418361Y0334433D01*
X0418361Y0334434D01*
X0418823Y0335389D01*
X0420305Y0336889D01*
X0422284Y0337618D01*
X0424385Y0337438D01*
X0425356Y0337011D01*
X0428818Y0335013D01*
X0428926Y0334950D01*
X0428021Y0335325D01*
X0424762Y0335325D01*
X0421752Y0334078D01*
X0419447Y0331774D01*
X0418200Y0328763D01*
X0418200Y0325504D01*
X0419447Y0322494D01*
X0421752Y0320190D01*
X0424762Y0318943D01*
X0428021Y0318943D01*
X0431032Y0320190D01*
X0433336Y0322494D01*
X0434583Y0325504D01*
X0434583Y0328763D01*
X0433336Y0331774D01*
X0431049Y0334061D01*
X0434221Y0333387D01*
X0438383Y0333824D01*
X0442206Y0335526D01*
X0445316Y0338326D01*
X0445316Y0338327D01*
X0447408Y0341951D01*
X0448278Y0346044D01*
X0448278Y0346044D01*
X0447841Y0350206D01*
X0446139Y0354029D01*
X0446139Y0354029D01*
X0443338Y0357139D01*
X0442029Y0357895D01*
X0438567Y0359894D01*
X0437712Y0360521D01*
X0436506Y0362251D01*
X0436148Y0364329D01*
X0436706Y0366363D01*
X0437302Y0367241D01*
X0441376Y0371747D01*
X0450276Y0380011D01*
X0460075Y0387186D01*
X0470641Y0393174D01*
X0481831Y0397895D01*
X0487441Y0399703D01*
X0515750Y0399703D01*
X0515750Y0398168D01*
X0515214Y0398168D01*
X0512246Y0397373D01*
X0509586Y0395836D01*
X0507413Y0393664D01*
X0505877Y0391004D01*
X0505082Y0388036D01*
X0505082Y0384964D01*
X0505877Y0381996D01*
X0507413Y0379336D01*
X0509586Y0377163D01*
X0512246Y0375627D01*
X0511329Y0376157D02*
X0446125Y0376157D01*
X0446985Y0376956D02*
X0509946Y0376956D01*
X0508995Y0377754D02*
X0447845Y0377754D01*
X0448705Y0378553D02*
X0508197Y0378553D01*
X0507405Y0379351D02*
X0449565Y0379351D01*
X0450465Y0380150D02*
X0506944Y0380150D01*
X0506483Y0380948D02*
X0451556Y0380948D01*
X0452646Y0381747D02*
X0506022Y0381747D01*
X0505730Y0382545D02*
X0453737Y0382545D01*
X0454828Y0383344D02*
X0505516Y0383344D01*
X0505302Y0384142D02*
X0455918Y0384142D01*
X0457009Y0384941D02*
X0505088Y0384941D01*
X0505082Y0385739D02*
X0458099Y0385739D01*
X0459190Y0386538D02*
X0505082Y0386538D01*
X0505082Y0387336D02*
X0460341Y0387336D01*
X0461750Y0388135D02*
X0505109Y0388135D01*
X0505323Y0388933D02*
X0463158Y0388933D01*
X0464567Y0389732D02*
X0505537Y0389732D01*
X0505751Y0390530D02*
X0465976Y0390530D01*
X0467385Y0391329D02*
X0506065Y0391329D01*
X0506526Y0392127D02*
X0468794Y0392127D01*
X0470203Y0392926D02*
X0506987Y0392926D01*
X0507474Y0393724D02*
X0471946Y0393724D01*
X0473838Y0394523D02*
X0508272Y0394523D01*
X0509071Y0395321D02*
X0475731Y0395321D01*
X0477624Y0396120D02*
X0510077Y0396120D01*
X0511460Y0396918D02*
X0479517Y0396918D01*
X0481410Y0397717D02*
X0513531Y0397717D01*
X0515750Y0398515D02*
X0483756Y0398515D01*
X0486233Y0399314D02*
X0515750Y0399314D01*
X0517750Y0399314D02*
X0547267Y0399314D01*
X0549744Y0398515D02*
X0517750Y0398515D01*
X0519969Y0397717D02*
X0552090Y0397717D01*
X0553983Y0396918D02*
X0522040Y0396918D01*
X0523423Y0396120D02*
X0555876Y0396120D01*
X0557769Y0395321D02*
X0524429Y0395321D01*
X0525228Y0394523D02*
X0559661Y0394523D01*
X0561554Y0393724D02*
X0526026Y0393724D01*
X0526513Y0392926D02*
X0563297Y0392926D01*
X0564706Y0392127D02*
X0526974Y0392127D01*
X0527435Y0391329D02*
X0566115Y0391329D01*
X0567524Y0390530D02*
X0527749Y0390530D01*
X0527963Y0389732D02*
X0568933Y0389732D01*
X0570341Y0388933D02*
X0528177Y0388933D01*
X0528391Y0388135D02*
X0571750Y0388135D01*
X0573159Y0387336D02*
X0528418Y0387336D01*
X0528418Y0386538D02*
X0574310Y0386538D01*
X0575401Y0385739D02*
X0528418Y0385739D01*
X0528411Y0384941D02*
X0576491Y0384941D01*
X0577582Y0384142D02*
X0528198Y0384142D01*
X0527984Y0383344D02*
X0578672Y0383344D01*
X0579763Y0382545D02*
X0527770Y0382545D01*
X0527478Y0381747D02*
X0580854Y0381747D01*
X0581944Y0380948D02*
X0527017Y0380948D01*
X0526556Y0380150D02*
X0583035Y0380150D01*
X0583935Y0379351D02*
X0526095Y0379351D01*
X0525303Y0378553D02*
X0584795Y0378553D01*
X0585655Y0377754D02*
X0524505Y0377754D01*
X0523554Y0376956D02*
X0586515Y0376956D01*
X0587375Y0376157D02*
X0522171Y0376157D01*
X0520250Y0375359D02*
X0588234Y0375359D01*
X0608186Y0337030D02*
X0612812Y0337030D01*
X0613844Y0336232D02*
X0606793Y0336232D01*
X0605410Y0335433D02*
X0614634Y0335433D01*
X0615042Y0334634D02*
X0610405Y0334634D01*
X0611990Y0333836D02*
X0615334Y0333836D01*
X0615139Y0334434D02*
X0615139Y0334434D01*
X0615593Y0333037D02*
X0612789Y0333037D01*
X0613587Y0332239D02*
X0615853Y0332239D01*
X0616112Y0331440D02*
X0614191Y0331440D01*
X0614521Y0330642D02*
X0616371Y0330642D01*
X0616631Y0329843D02*
X0614852Y0329843D01*
X0615183Y0329045D02*
X0616889Y0329045D01*
X0617101Y0328246D02*
X0615300Y0328246D01*
X0615300Y0327448D02*
X0617314Y0327448D01*
X0617526Y0326649D02*
X0615300Y0326649D01*
X0615300Y0325851D02*
X0617739Y0325851D01*
X0617952Y0325052D02*
X0615112Y0325052D01*
X0614782Y0324254D02*
X0618164Y0324254D01*
X0618333Y0323620D02*
X0618333Y0323620D01*
X0618356Y0323455D02*
X0614451Y0323455D01*
X0614120Y0322657D02*
X0618444Y0322657D01*
X0618342Y0321858D02*
X0613417Y0321858D01*
X0612619Y0321060D02*
X0618240Y0321060D01*
X0617827Y0320261D02*
X0611820Y0320261D01*
X0609994Y0319463D02*
X0617385Y0319463D01*
X0602226Y0333836D02*
X0601393Y0333836D01*
X0592902Y0299500D02*
X0592902Y0299500D01*
X0593644Y0294334D01*
X0595812Y0289586D01*
X0599230Y0285642D01*
X0599230Y0285642D01*
X0599230Y0285642D01*
X0603621Y0282820D01*
X0608629Y0281350D01*
X0613614Y0281350D01*
X0614484Y0281271D01*
X0616112Y0280657D01*
X0617419Y0279507D01*
X0618236Y0277970D01*
X0618457Y0276244D01*
X0618333Y0275380D01*
X0618333Y0275380D01*
X0616882Y0269930D01*
X0615139Y0264567D01*
X0615139Y0264566D01*
X0614677Y0263611D01*
X0613195Y0262111D01*
X0611216Y0261382D01*
X0609115Y0261562D01*
X0608144Y0261989D01*
X0604682Y0263987D01*
X0604574Y0264050D01*
X0605479Y0263675D01*
X0608738Y0263675D01*
X0611748Y0264922D01*
X0614053Y0267226D01*
X0615300Y0270237D01*
X0615300Y0273495D01*
X0614053Y0276506D01*
X0611748Y0278810D01*
X0608738Y0280057D01*
X0605479Y0280057D01*
X0602468Y0278810D01*
X0600164Y0276506D01*
X0598917Y0273495D01*
X0598917Y0270237D01*
X0600164Y0267226D01*
X0602451Y0264939D01*
X0599279Y0265613D01*
X0595117Y0265176D01*
X0595117Y0265176D01*
X0591294Y0263474D01*
X0588184Y0260673D01*
X0586092Y0257049D01*
X0585222Y0252956D01*
X0585659Y0248794D01*
X0587361Y0244971D01*
X0590162Y0241861D01*
X0591471Y0241105D01*
X0591471Y0241105D01*
X0594933Y0239106D01*
X0595788Y0238479D01*
X0596994Y0236749D01*
X0597352Y0234671D01*
X0596794Y0232637D01*
X0596198Y0231759D01*
X0594078Y0229349D01*
X0589620Y0224728D01*
X0587286Y0222523D01*
X0586916Y0222184D01*
X0541372Y0180450D01*
X0542322Y0181320D02*
X0517750Y0181320D01*
X0519312Y0182119D02*
X0543193Y0182119D01*
X0544064Y0182917D02*
X0521239Y0182917D01*
X0522527Y0183716D02*
X0544936Y0183716D01*
X0545807Y0184514D02*
X0523326Y0184514D01*
X0524124Y0185313D02*
X0546679Y0185313D01*
X0547550Y0186111D02*
X0524803Y0186111D01*
X0525134Y0186910D02*
X0548422Y0186910D01*
X0549293Y0187708D02*
X0525465Y0187708D01*
X0525796Y0188507D02*
X0550164Y0188507D01*
X0551036Y0189305D02*
X0526126Y0189305D01*
X0526150Y0190104D02*
X0551907Y0190104D01*
X0552779Y0190902D02*
X0526150Y0190902D01*
X0526150Y0191701D02*
X0553650Y0191701D01*
X0554521Y0192499D02*
X0526150Y0192499D01*
X0526069Y0193298D02*
X0555393Y0193298D01*
X0556264Y0194097D02*
X0525738Y0194097D01*
X0525407Y0194895D02*
X0557136Y0194895D01*
X0558007Y0195694D02*
X0525077Y0195694D01*
X0524746Y0196492D02*
X0558879Y0196492D01*
X0559750Y0197291D02*
X0523985Y0197291D01*
X0523187Y0198089D02*
X0560621Y0198089D01*
X0561493Y0198888D02*
X0522388Y0198888D01*
X0520904Y0199686D02*
X0562364Y0199686D01*
X0563236Y0200485D02*
X0518976Y0200485D01*
X0517750Y0201283D02*
X0564107Y0201283D01*
X0564979Y0202082D02*
X0517750Y0202082D01*
X0517750Y0202880D02*
X0565850Y0202880D01*
X0566721Y0203679D02*
X0517750Y0203679D01*
X0517750Y0204477D02*
X0567593Y0204477D01*
X0568464Y0205276D02*
X0517750Y0205276D01*
X0517750Y0206074D02*
X0569336Y0206074D01*
X0570207Y0206873D02*
X0517750Y0206873D01*
X0517750Y0207671D02*
X0571079Y0207671D01*
X0571950Y0208470D02*
X0517750Y0208470D01*
X0517750Y0209268D02*
X0572821Y0209268D01*
X0573693Y0210067D02*
X0517750Y0210067D01*
X0517750Y0210865D02*
X0574564Y0210865D01*
X0575436Y0211664D02*
X0517750Y0211664D01*
X0517750Y0212462D02*
X0576307Y0212462D01*
X0577178Y0213261D02*
X0517750Y0213261D01*
X0517750Y0214059D02*
X0578050Y0214059D01*
X0578921Y0214858D02*
X0517750Y0214858D01*
X0517750Y0215656D02*
X0579793Y0215656D01*
X0580664Y0216455D02*
X0517750Y0216455D01*
X0517750Y0217253D02*
X0581536Y0217253D01*
X0582407Y0218052D02*
X0517750Y0218052D01*
X0517750Y0218850D02*
X0583278Y0218850D01*
X0584150Y0219649D02*
X0517750Y0219649D01*
X0517750Y0220447D02*
X0585021Y0220447D01*
X0585893Y0221246D02*
X0519565Y0221246D01*
X0521853Y0222044D02*
X0586764Y0222044D01*
X0587625Y0222843D02*
X0523236Y0222843D01*
X0524321Y0223641D02*
X0588470Y0223641D01*
X0589315Y0224440D02*
X0525120Y0224440D01*
X0525918Y0225238D02*
X0590112Y0225238D01*
X0590883Y0226037D02*
X0526450Y0226037D01*
X0526911Y0226835D02*
X0591653Y0226835D01*
X0592424Y0227634D02*
X0527372Y0227634D01*
X0527720Y0228432D02*
X0593194Y0228432D01*
X0593965Y0229231D02*
X0527934Y0229231D01*
X0528148Y0230030D02*
X0594677Y0230030D01*
X0595379Y0230828D02*
X0528362Y0230828D01*
X0528418Y0231627D02*
X0596082Y0231627D01*
X0596198Y0231759D02*
X0596198Y0231759D01*
X0596650Y0232425D02*
X0528418Y0232425D01*
X0528418Y0233224D02*
X0596955Y0233224D01*
X0597174Y0234022D02*
X0528418Y0234022D01*
X0528226Y0234821D02*
X0597326Y0234821D01*
X0597189Y0235619D02*
X0528013Y0235619D01*
X0527799Y0236418D02*
X0597051Y0236418D01*
X0596668Y0237216D02*
X0527541Y0237216D01*
X0527080Y0238015D02*
X0596112Y0238015D01*
X0595332Y0238813D02*
X0526619Y0238813D01*
X0526158Y0239612D02*
X0594058Y0239612D01*
X0592675Y0240410D02*
X0525411Y0240410D01*
X0524613Y0241209D02*
X0591291Y0241209D01*
X0590162Y0241861D02*
X0590162Y0241861D01*
X0590162Y0241861D01*
X0590030Y0242007D02*
X0523741Y0242007D01*
X0522358Y0242806D02*
X0589311Y0242806D01*
X0588592Y0243604D02*
X0520654Y0243604D01*
X0517750Y0244403D02*
X0587873Y0244403D01*
X0587361Y0244971D02*
X0587361Y0244971D01*
X0587259Y0245201D02*
X0517750Y0245201D01*
X0517750Y0246000D02*
X0586903Y0246000D01*
X0586548Y0246798D02*
X0517750Y0246798D01*
X0517750Y0247597D02*
X0586192Y0247597D01*
X0585837Y0248395D02*
X0517750Y0248395D01*
X0517750Y0249194D02*
X0585617Y0249194D01*
X0585659Y0248794D02*
X0585659Y0248794D01*
X0585533Y0249992D02*
X0517750Y0249992D01*
X0517750Y0250791D02*
X0585449Y0250791D01*
X0585365Y0251589D02*
X0517750Y0251589D01*
X0517750Y0252388D02*
X0585281Y0252388D01*
X0585222Y0252956D02*
X0585222Y0252956D01*
X0585271Y0253186D02*
X0517750Y0253186D01*
X0517750Y0253985D02*
X0585441Y0253985D01*
X0585610Y0254783D02*
X0517750Y0254783D01*
X0517750Y0255582D02*
X0585780Y0255582D01*
X0585950Y0256380D02*
X0517750Y0256380D01*
X0517750Y0257179D02*
X0586167Y0257179D01*
X0586628Y0257977D02*
X0517750Y0257977D01*
X0517750Y0258776D02*
X0587089Y0258776D01*
X0587550Y0259574D02*
X0517750Y0259574D01*
X0517750Y0260373D02*
X0588011Y0260373D01*
X0588184Y0260673D02*
X0588184Y0260673D01*
X0588737Y0261171D02*
X0517750Y0261171D01*
X0517750Y0261970D02*
X0589624Y0261970D01*
X0590511Y0262768D02*
X0517750Y0262768D01*
X0517750Y0263567D02*
X0591504Y0263567D01*
X0593297Y0264366D02*
X0517750Y0264366D01*
X0517750Y0265164D02*
X0595091Y0265164D01*
X0599279Y0265613D02*
X0599279Y0265613D01*
X0600629Y0266761D02*
X0521284Y0266761D01*
X0517750Y0265963D02*
X0601428Y0265963D01*
X0601393Y0265164D02*
X0602226Y0265164D01*
X0604682Y0263987D02*
X0604682Y0263987D01*
X0605410Y0263567D02*
X0614634Y0263567D01*
X0615042Y0264366D02*
X0610405Y0264366D01*
X0611990Y0265164D02*
X0615334Y0265164D01*
X0615593Y0265963D02*
X0612789Y0265963D01*
X0613587Y0266761D02*
X0615853Y0266761D01*
X0616112Y0267560D02*
X0614191Y0267560D01*
X0614521Y0268358D02*
X0616371Y0268358D01*
X0616631Y0269157D02*
X0614852Y0269157D01*
X0615183Y0269955D02*
X0616889Y0269955D01*
X0617101Y0270754D02*
X0615300Y0270754D01*
X0615300Y0271552D02*
X0617314Y0271552D01*
X0617526Y0272351D02*
X0615300Y0272351D01*
X0615300Y0273149D02*
X0617739Y0273149D01*
X0617952Y0273948D02*
X0615112Y0273948D01*
X0614782Y0274746D02*
X0618164Y0274746D01*
X0618356Y0275545D02*
X0614451Y0275545D01*
X0614120Y0276343D02*
X0618444Y0276343D01*
X0618342Y0277142D02*
X0613417Y0277142D01*
X0612618Y0277940D02*
X0618239Y0277940D01*
X0617827Y0278739D02*
X0611820Y0278739D01*
X0609994Y0279537D02*
X0617385Y0279537D01*
X0616477Y0280336D02*
X0543627Y0280336D01*
X0544161Y0281134D02*
X0614847Y0281134D01*
X0606644Y0281933D02*
X0544694Y0281933D01*
X0545228Y0282731D02*
X0603924Y0282731D01*
X0603621Y0282820D02*
X0603621Y0282820D01*
X0602517Y0283530D02*
X0545761Y0283530D01*
X0546179Y0284328D02*
X0601275Y0284328D01*
X0600032Y0285127D02*
X0546509Y0285127D01*
X0546840Y0285925D02*
X0598985Y0285925D01*
X0598293Y0286724D02*
X0547171Y0286724D01*
X0547502Y0287522D02*
X0597601Y0287522D01*
X0596909Y0288321D02*
X0547832Y0288321D01*
X0548163Y0289119D02*
X0596217Y0289119D01*
X0595812Y0289586D02*
X0595812Y0289586D01*
X0595661Y0289918D02*
X0548485Y0289918D01*
X0548644Y0290716D02*
X0595296Y0290716D01*
X0594932Y0291515D02*
X0548803Y0291515D01*
X0548961Y0292313D02*
X0594567Y0292313D01*
X0594202Y0293112D02*
X0549120Y0293112D01*
X0549279Y0293910D02*
X0593838Y0293910D01*
X0593644Y0294334D02*
X0593644Y0294334D01*
X0593590Y0294709D02*
X0549438Y0294709D01*
X0549597Y0295507D02*
X0593476Y0295507D01*
X0593361Y0296306D02*
X0549744Y0296306D01*
X0549744Y0297104D02*
X0593246Y0297104D01*
X0593131Y0297903D02*
X0549744Y0297903D01*
X0549744Y0298701D02*
X0593016Y0298701D01*
X0602397Y0278739D02*
X0542560Y0278739D01*
X0543093Y0279537D02*
X0604223Y0279537D01*
X0601598Y0277940D02*
X0541851Y0277940D01*
X0541053Y0277142D02*
X0600800Y0277142D01*
X0600096Y0276343D02*
X0540254Y0276343D01*
X0539456Y0275545D02*
X0599766Y0275545D01*
X0599435Y0274746D02*
X0538657Y0274746D01*
X0537859Y0273948D02*
X0599104Y0273948D01*
X0598917Y0273149D02*
X0536702Y0273149D01*
X0535507Y0272351D02*
X0598917Y0272351D01*
X0598917Y0271552D02*
X0534312Y0271552D01*
X0533116Y0270754D02*
X0598917Y0270754D01*
X0599034Y0269955D02*
X0531641Y0269955D01*
X0529713Y0269157D02*
X0599364Y0269157D01*
X0599695Y0268358D02*
X0527785Y0268358D01*
X0525299Y0267560D02*
X0600026Y0267560D01*
X0606793Y0262768D02*
X0613844Y0262768D01*
X0612812Y0261970D02*
X0608186Y0261970D01*
X0515750Y0261970D02*
X0443876Y0261970D01*
X0444763Y0261171D02*
X0515750Y0261171D01*
X0515750Y0260373D02*
X0445489Y0260373D01*
X0445950Y0259574D02*
X0515750Y0259574D01*
X0515750Y0258776D02*
X0446411Y0258776D01*
X0446872Y0257977D02*
X0515750Y0257977D01*
X0515750Y0257179D02*
X0447333Y0257179D01*
X0447550Y0256380D02*
X0515750Y0256380D01*
X0515750Y0255582D02*
X0447720Y0255582D01*
X0447890Y0254783D02*
X0515750Y0254783D01*
X0515750Y0253985D02*
X0448059Y0253985D01*
X0448229Y0253186D02*
X0515750Y0253186D01*
X0515750Y0252388D02*
X0448218Y0252388D01*
X0448135Y0251589D02*
X0515750Y0251589D01*
X0515750Y0250791D02*
X0448051Y0250791D01*
X0447967Y0249992D02*
X0515750Y0249992D01*
X0515750Y0249194D02*
X0447883Y0249194D01*
X0447663Y0248395D02*
X0515750Y0248395D01*
X0515750Y0247597D02*
X0447308Y0247597D01*
X0446952Y0246798D02*
X0515750Y0246798D01*
X0515750Y0246000D02*
X0446597Y0246000D01*
X0446241Y0245201D02*
X0515750Y0245201D01*
X0515750Y0244403D02*
X0445627Y0244403D01*
X0444908Y0243604D02*
X0512846Y0243604D01*
X0511142Y0242806D02*
X0444189Y0242806D01*
X0443470Y0242007D02*
X0509759Y0242007D01*
X0508887Y0241209D02*
X0442209Y0241209D01*
X0442029Y0241105D02*
X0442029Y0241105D01*
X0440825Y0240410D02*
X0508089Y0240410D01*
X0507342Y0239612D02*
X0439442Y0239612D01*
X0438168Y0238813D02*
X0506881Y0238813D01*
X0506420Y0238015D02*
X0437388Y0238015D01*
X0436832Y0237216D02*
X0505959Y0237216D01*
X0505701Y0236418D02*
X0436449Y0236418D01*
X0436311Y0235619D02*
X0505487Y0235619D01*
X0505274Y0234821D02*
X0436174Y0234821D01*
X0436326Y0234022D02*
X0505082Y0234022D01*
X0505082Y0233224D02*
X0436545Y0233224D01*
X0436850Y0232425D02*
X0505082Y0232425D01*
X0505082Y0231627D02*
X0437418Y0231627D01*
X0438121Y0230828D02*
X0505138Y0230828D01*
X0505352Y0230030D02*
X0438823Y0230030D01*
X0439535Y0229231D02*
X0505566Y0229231D01*
X0505780Y0228432D02*
X0440306Y0228432D01*
X0441076Y0227634D02*
X0506128Y0227634D01*
X0506589Y0226835D02*
X0441847Y0226835D01*
X0442617Y0226037D02*
X0507050Y0226037D01*
X0507582Y0225238D02*
X0443388Y0225238D01*
X0444185Y0224440D02*
X0508380Y0224440D01*
X0509179Y0223641D02*
X0445030Y0223641D01*
X0445875Y0222843D02*
X0510264Y0222843D01*
X0511647Y0222044D02*
X0446736Y0222044D01*
X0447607Y0221246D02*
X0513935Y0221246D01*
X0515750Y0220447D02*
X0448479Y0220447D01*
X0449350Y0219649D02*
X0515750Y0219649D01*
X0515750Y0218850D02*
X0450222Y0218850D01*
X0451093Y0218052D02*
X0515750Y0218052D01*
X0515750Y0217253D02*
X0451964Y0217253D01*
X0452836Y0216455D02*
X0515750Y0216455D01*
X0515750Y0215656D02*
X0453707Y0215656D01*
X0454579Y0214858D02*
X0515750Y0214858D01*
X0515750Y0214059D02*
X0455450Y0214059D01*
X0456322Y0213261D02*
X0515750Y0213261D01*
X0515750Y0262768D02*
X0442989Y0262768D01*
X0441996Y0263567D02*
X0515750Y0263567D01*
X0515750Y0264366D02*
X0440203Y0264366D01*
X0438409Y0265164D02*
X0515750Y0265164D01*
X0515750Y0265963D02*
X0432072Y0265963D01*
X0432107Y0265164D02*
X0431274Y0265164D01*
X0432871Y0266761D02*
X0512216Y0266761D01*
X0508201Y0267560D02*
X0433474Y0267560D01*
X0433805Y0268358D02*
X0505715Y0268358D01*
X0503787Y0269157D02*
X0434136Y0269157D01*
X0434466Y0269955D02*
X0501859Y0269955D01*
X0500384Y0270754D02*
X0434583Y0270754D01*
X0434583Y0271552D02*
X0499188Y0271552D01*
X0497993Y0272351D02*
X0434583Y0272351D01*
X0434583Y0273149D02*
X0496798Y0273149D01*
X0495641Y0273948D02*
X0434396Y0273948D01*
X0434065Y0274746D02*
X0494843Y0274746D01*
X0494044Y0275545D02*
X0433734Y0275545D01*
X0433404Y0276343D02*
X0493246Y0276343D01*
X0492447Y0277142D02*
X0432700Y0277142D01*
X0431902Y0277940D02*
X0491649Y0277940D01*
X0490940Y0278739D02*
X0431103Y0278739D01*
X0429277Y0279537D02*
X0490407Y0279537D01*
X0489873Y0280336D02*
X0417023Y0280336D01*
X0416115Y0279537D02*
X0423506Y0279537D01*
X0421680Y0278739D02*
X0415673Y0278739D01*
X0415260Y0277940D02*
X0420881Y0277940D01*
X0420083Y0277142D02*
X0415158Y0277142D01*
X0415056Y0276343D02*
X0419380Y0276343D01*
X0419049Y0275545D02*
X0415144Y0275545D01*
X0415167Y0275380D02*
X0415167Y0275380D01*
X0415336Y0274746D02*
X0418718Y0274746D01*
X0418388Y0273948D02*
X0415548Y0273948D01*
X0415761Y0273149D02*
X0418200Y0273149D01*
X0418200Y0272351D02*
X0415974Y0272351D01*
X0416186Y0271552D02*
X0418200Y0271552D01*
X0418200Y0270754D02*
X0416399Y0270754D01*
X0416611Y0269955D02*
X0418317Y0269955D01*
X0418648Y0269157D02*
X0416869Y0269157D01*
X0417129Y0268358D02*
X0418979Y0268358D01*
X0419309Y0267560D02*
X0417388Y0267560D01*
X0417647Y0266761D02*
X0419913Y0266761D01*
X0420711Y0265963D02*
X0417907Y0265963D01*
X0418166Y0265164D02*
X0421510Y0265164D01*
X0423095Y0264366D02*
X0418458Y0264366D01*
X0418361Y0264566D02*
X0418361Y0264566D01*
X0418866Y0263567D02*
X0428090Y0263567D01*
X0426707Y0262768D02*
X0419656Y0262768D01*
X0420688Y0261970D02*
X0425314Y0261970D01*
X0434221Y0265613D02*
X0434221Y0265613D01*
X0429576Y0282731D02*
X0488272Y0282731D01*
X0488806Y0281933D02*
X0426856Y0281933D01*
X0429879Y0282820D02*
X0429879Y0282820D01*
X0430983Y0283530D02*
X0487739Y0283530D01*
X0487321Y0284328D02*
X0432225Y0284328D01*
X0433468Y0285127D02*
X0486991Y0285127D01*
X0486660Y0285925D02*
X0434515Y0285925D01*
X0434270Y0285642D02*
X0434270Y0285642D01*
X0435207Y0286724D02*
X0486329Y0286724D01*
X0485998Y0287522D02*
X0435899Y0287522D01*
X0436591Y0288321D02*
X0485668Y0288321D01*
X0485337Y0289119D02*
X0437283Y0289119D01*
X0437839Y0289918D02*
X0485015Y0289918D01*
X0484856Y0290716D02*
X0438204Y0290716D01*
X0438568Y0291515D02*
X0484697Y0291515D01*
X0484539Y0292313D02*
X0438933Y0292313D01*
X0439298Y0293112D02*
X0484380Y0293112D01*
X0484221Y0293910D02*
X0439662Y0293910D01*
X0439856Y0294334D02*
X0439856Y0294334D01*
X0439910Y0294709D02*
X0484062Y0294709D01*
X0483903Y0295507D02*
X0440024Y0295507D01*
X0440139Y0296306D02*
X0483756Y0296306D01*
X0483756Y0297104D02*
X0440254Y0297104D01*
X0440369Y0297903D02*
X0483756Y0297903D01*
X0483756Y0298701D02*
X0440484Y0298701D01*
X0440598Y0299500D02*
X0439856Y0304666D01*
X0439298Y0305888D02*
X0484380Y0305888D01*
X0484539Y0306687D02*
X0438933Y0306687D01*
X0438568Y0307485D02*
X0484697Y0307485D01*
X0484856Y0308284D02*
X0438204Y0308284D01*
X0437839Y0309082D02*
X0485015Y0309082D01*
X0485337Y0309881D02*
X0437283Y0309881D01*
X0436591Y0310679D02*
X0485668Y0310679D01*
X0485998Y0311478D02*
X0435899Y0311478D01*
X0435207Y0312276D02*
X0486329Y0312276D01*
X0486660Y0313075D02*
X0434515Y0313075D01*
X0434270Y0313358D02*
X0434270Y0313358D01*
X0433468Y0313873D02*
X0486991Y0313873D01*
X0487321Y0314672D02*
X0432225Y0314672D01*
X0430983Y0315470D02*
X0487739Y0315470D01*
X0488272Y0316269D02*
X0429576Y0316269D01*
X0429879Y0316180D02*
X0429879Y0316180D01*
X0426856Y0317067D02*
X0488806Y0317067D01*
X0489339Y0317866D02*
X0418653Y0317866D01*
X0417023Y0318664D02*
X0489873Y0318664D01*
X0490407Y0319463D02*
X0429277Y0319463D01*
X0431103Y0320261D02*
X0490940Y0320261D01*
X0491649Y0321060D02*
X0431902Y0321060D01*
X0432700Y0321858D02*
X0492447Y0321858D01*
X0493246Y0322657D02*
X0433404Y0322657D01*
X0433734Y0323455D02*
X0494044Y0323455D01*
X0494843Y0324254D02*
X0434065Y0324254D01*
X0434396Y0325052D02*
X0495641Y0325052D01*
X0496798Y0325851D02*
X0434583Y0325851D01*
X0434583Y0326649D02*
X0497993Y0326649D01*
X0499188Y0327448D02*
X0434583Y0327448D01*
X0434583Y0328246D02*
X0500384Y0328246D01*
X0501859Y0329045D02*
X0434466Y0329045D01*
X0434136Y0329843D02*
X0503787Y0329843D01*
X0505715Y0330642D02*
X0433805Y0330642D01*
X0433474Y0331440D02*
X0508201Y0331440D01*
X0512216Y0332239D02*
X0432871Y0332239D01*
X0432072Y0333037D02*
X0515750Y0333037D01*
X0515750Y0333836D02*
X0438409Y0333836D01*
X0438383Y0333824D02*
X0438383Y0333824D01*
X0440203Y0334634D02*
X0515750Y0334634D01*
X0515750Y0335433D02*
X0441996Y0335433D01*
X0442206Y0335526D02*
X0442206Y0335526D01*
X0442989Y0336232D02*
X0515750Y0336232D01*
X0515750Y0337030D02*
X0443876Y0337030D01*
X0444763Y0337829D02*
X0515750Y0337829D01*
X0515750Y0338627D02*
X0445489Y0338627D01*
X0445950Y0339426D02*
X0515750Y0339426D01*
X0515750Y0340224D02*
X0446411Y0340224D01*
X0446872Y0341023D02*
X0515750Y0341023D01*
X0515750Y0341821D02*
X0447333Y0341821D01*
X0447408Y0341951D02*
X0447408Y0341951D01*
X0447550Y0342620D02*
X0515750Y0342620D01*
X0515750Y0343418D02*
X0447720Y0343418D01*
X0447890Y0344217D02*
X0515750Y0344217D01*
X0515750Y0345015D02*
X0448059Y0345015D01*
X0448229Y0345814D02*
X0515750Y0345814D01*
X0515750Y0346612D02*
X0448218Y0346612D01*
X0448135Y0347411D02*
X0515750Y0347411D01*
X0515750Y0348209D02*
X0448051Y0348209D01*
X0447967Y0349008D02*
X0515750Y0349008D01*
X0515750Y0349806D02*
X0447883Y0349806D01*
X0447841Y0350206D02*
X0447841Y0350206D01*
X0447663Y0350605D02*
X0515750Y0350605D01*
X0515750Y0351403D02*
X0447308Y0351403D01*
X0446952Y0352202D02*
X0515750Y0352202D01*
X0515750Y0353000D02*
X0446597Y0353000D01*
X0446241Y0353799D02*
X0515750Y0353799D01*
X0515750Y0354597D02*
X0445627Y0354597D01*
X0444908Y0355396D02*
X0515750Y0355396D01*
X0515750Y0356194D02*
X0444189Y0356194D01*
X0443470Y0356993D02*
X0515750Y0356993D01*
X0515750Y0357791D02*
X0442209Y0357791D01*
X0442029Y0357895D02*
X0442029Y0357895D01*
X0440825Y0358590D02*
X0515750Y0358590D01*
X0515750Y0359388D02*
X0439442Y0359388D01*
X0438168Y0360187D02*
X0515750Y0360187D01*
X0515750Y0360985D02*
X0437388Y0360985D01*
X0436832Y0361784D02*
X0515750Y0361784D01*
X0515750Y0362582D02*
X0436449Y0362582D01*
X0436311Y0363381D02*
X0515750Y0363381D01*
X0515750Y0364179D02*
X0436174Y0364179D01*
X0436326Y0364978D02*
X0515750Y0364978D01*
X0515750Y0365776D02*
X0436545Y0365776D01*
X0436850Y0366575D02*
X0515750Y0366575D01*
X0515750Y0367373D02*
X0437422Y0367373D01*
X0437302Y0367241D02*
X0437302Y0367241D01*
X0438144Y0368172D02*
X0515750Y0368172D01*
X0515750Y0368970D02*
X0438866Y0368970D01*
X0439588Y0369769D02*
X0515750Y0369769D01*
X0515750Y0370568D02*
X0440310Y0370568D01*
X0441032Y0371366D02*
X0515750Y0371366D01*
X0515750Y0372165D02*
X0441826Y0372165D01*
X0442686Y0372963D02*
X0515750Y0372963D01*
X0515750Y0373762D02*
X0443546Y0373762D01*
X0443338Y0357139D02*
X0443338Y0357139D01*
X0425314Y0337030D02*
X0420688Y0337030D01*
X0419656Y0336232D02*
X0426707Y0336232D01*
X0428090Y0335433D02*
X0418866Y0335433D01*
X0418458Y0334634D02*
X0423095Y0334634D01*
X0421510Y0333836D02*
X0418166Y0333836D01*
X0417907Y0333037D02*
X0420711Y0333037D01*
X0419913Y0332239D02*
X0417647Y0332239D01*
X0417388Y0331440D02*
X0419309Y0331440D01*
X0418979Y0330642D02*
X0417129Y0330642D01*
X0416869Y0329843D02*
X0418648Y0329843D01*
X0418317Y0329045D02*
X0416611Y0329045D01*
X0416399Y0328246D02*
X0418200Y0328246D01*
X0418200Y0327448D02*
X0416186Y0327448D01*
X0415974Y0326649D02*
X0418200Y0326649D01*
X0418200Y0325851D02*
X0415761Y0325851D01*
X0415548Y0325052D02*
X0418388Y0325052D01*
X0418718Y0324254D02*
X0415336Y0324254D01*
X0415144Y0323455D02*
X0419049Y0323455D01*
X0419380Y0322657D02*
X0415056Y0322657D01*
X0415158Y0321858D02*
X0420083Y0321858D01*
X0420881Y0321060D02*
X0415261Y0321060D01*
X0415673Y0320261D02*
X0421680Y0320261D01*
X0423506Y0319463D02*
X0416115Y0319463D01*
X0428818Y0335013D02*
X0428818Y0335013D01*
X0431274Y0333836D02*
X0432107Y0333836D01*
X0434221Y0333387D02*
X0434221Y0333387D01*
X0440598Y0299500D02*
X0440598Y0299500D01*
X0418653Y0281134D02*
X0489339Y0281134D01*
M02*
