G75*
%MOIN*%
%OFA0B0*%
%FSLAX25Y25*%
%IPPOS*%
%LPD*%
%AMOC8*
5,1,8,0,0,1.08239X$1,22.5*
%
%ADD10C,0.20535*%
%ADD11C,0.13000*%
%ADD12C,0.00800*%
D10*
X0182345Y0100433D03*
X0156345Y0219933D03*
X0182345Y0225933D03*
X0208345Y0219933D03*
D11*
X0196845Y0077683D03*
X0182345Y0077183D03*
X0167845Y0077683D03*
D12*
X0166339Y0071333D02*
X0136598Y0101074D01*
X0136549Y0101193D01*
X0136204Y0101538D01*
X0135895Y0101847D01*
X0135895Y0101847D01*
X0135895Y0101847D01*
X0135551Y0102119D01*
X0135168Y0102420D01*
X0135084Y0102444D01*
X0133662Y0103632D01*
X0135563Y0103632D01*
X0138942Y0105031D01*
X0141527Y0107617D01*
X0142926Y0110995D01*
X0142926Y0114651D01*
X0141527Y0118030D01*
X0138942Y0120615D01*
X0135563Y0122014D01*
X0131907Y0122014D01*
X0128529Y0120615D01*
X0125943Y0118030D01*
X0124544Y0114651D01*
X0124544Y0112867D01*
X0120974Y0117286D01*
X0118606Y0120780D01*
X0118606Y0120780D01*
X0118367Y0121255D01*
X0118201Y0122300D01*
X0118465Y0123325D01*
X0119115Y0124160D01*
X0119553Y0124461D01*
X0131203Y0130813D01*
X0131410Y0130926D01*
X0132041Y0131270D01*
X0132729Y0131646D01*
X0132729Y0131646D01*
X0134419Y0133519D01*
X0135393Y0135847D01*
X0135540Y0138366D01*
X0135324Y0139119D01*
X0135324Y0139119D01*
X0130908Y0154521D01*
X0130776Y0154980D01*
X0130766Y0155016D01*
X0130428Y0156193D01*
X0128969Y0158251D01*
X0128969Y0158251D01*
X0128969Y0158251D01*
X0126910Y0159709D01*
X0126910Y0159709D01*
X0124484Y0160402D01*
X0124484Y0160402D01*
X0123224Y0160327D01*
X0122748Y0160299D01*
X0122748Y0160299D01*
X0109979Y0159541D01*
X0109502Y0159513D01*
X0108971Y0159535D01*
X0107977Y0159899D01*
X0107211Y0160628D01*
X0106798Y0161602D01*
X0106748Y0162132D01*
X0106748Y0162132D01*
X0106898Y0166242D01*
X0107549Y0171730D01*
X0107563Y0171697D01*
X0110149Y0169111D01*
X0113527Y0167712D01*
X0117183Y0167712D01*
X0120562Y0169111D01*
X0123147Y0171697D01*
X0124546Y0175075D01*
X0124546Y0178731D01*
X0123147Y0182110D01*
X0120562Y0184695D01*
X0117183Y0186094D01*
X0113527Y0186094D01*
X0110571Y0184870D01*
X0112426Y0190184D01*
X0114093Y0193944D01*
X0114093Y0193944D01*
X0114369Y0194399D01*
X0115167Y0195093D01*
X0116176Y0195413D01*
X0117229Y0195304D01*
X0117716Y0195091D01*
X0129067Y0188696D01*
X0129212Y0188615D01*
X0129898Y0188228D01*
X0129898Y0188228D01*
X0130925Y0187649D01*
X0130925Y0187649D01*
X0134229Y0187409D01*
X0137320Y0188599D01*
X0137320Y0188599D01*
X0138135Y0189451D01*
X0149325Y0201160D01*
X0149895Y0201757D01*
X0150943Y0204141D01*
X0151115Y0206740D01*
X0150388Y0209242D01*
X0149902Y0209908D01*
X0141600Y0221271D01*
X0141600Y0221272D01*
X0141317Y0221657D01*
X0141048Y0222118D01*
X0140813Y0223153D01*
X0141011Y0224197D01*
X0141608Y0225075D01*
X0142027Y0225404D01*
X0142036Y0225410D01*
X0142050Y0225418D01*
X0145574Y0227561D01*
X0152945Y0231283D01*
X0160665Y0234215D01*
X0168648Y0236323D01*
X0172557Y0237033D01*
X0178690Y0237033D01*
X0177842Y0236806D01*
X0175181Y0235270D01*
X0173009Y0233097D01*
X0171473Y0230437D01*
X0170677Y0227469D01*
X0170677Y0224397D01*
X0171473Y0221429D01*
X0173009Y0218769D01*
X0175181Y0216597D01*
X0177842Y0215060D01*
X0180809Y0214265D01*
X0182345Y0214265D01*
X0182345Y0185393D01*
X0177829Y0185109D01*
X0177829Y0185109D01*
X0172083Y0183242D01*
X0172083Y0183242D01*
X0166981Y0180005D01*
X0162846Y0175600D01*
X0159935Y0170306D01*
X0159935Y0170306D01*
X0158432Y0164454D01*
X0158432Y0158412D01*
X0159935Y0152560D01*
X0162846Y0147266D01*
X0166981Y0142862D01*
X0172083Y0139624D01*
X0177829Y0137757D01*
X0182345Y0137473D01*
X0182345Y0112101D01*
X0180809Y0112101D01*
X0177842Y0111306D01*
X0175181Y0109770D01*
X0173009Y0107597D01*
X0171473Y0104937D01*
X0170677Y0101969D01*
X0170677Y0098897D01*
X0171473Y0095929D01*
X0173009Y0093269D01*
X0175181Y0091097D01*
X0177842Y0089560D01*
X0180809Y0088765D01*
X0182345Y0088765D01*
X0182345Y0085083D01*
X0180774Y0085083D01*
X0177870Y0083880D01*
X0175648Y0081658D01*
X0174445Y0078754D01*
X0174445Y0075612D01*
X0175648Y0072708D01*
X0177023Y0071333D01*
X0166339Y0071333D01*
X0165672Y0072000D02*
X0176356Y0072000D01*
X0175610Y0072798D02*
X0164874Y0072798D01*
X0164075Y0073597D02*
X0175280Y0073597D01*
X0174949Y0074395D02*
X0163277Y0074395D01*
X0162478Y0075194D02*
X0174618Y0075194D01*
X0174445Y0075992D02*
X0161680Y0075992D01*
X0160881Y0076791D02*
X0174445Y0076791D01*
X0174445Y0077589D02*
X0160083Y0077589D01*
X0159284Y0078388D02*
X0174445Y0078388D01*
X0174624Y0079186D02*
X0158486Y0079186D01*
X0157687Y0079985D02*
X0174955Y0079985D01*
X0175286Y0080783D02*
X0156889Y0080783D01*
X0156090Y0081582D02*
X0175616Y0081582D01*
X0176370Y0082380D02*
X0155292Y0082380D01*
X0154493Y0083179D02*
X0177169Y0083179D01*
X0178105Y0083977D02*
X0153695Y0083977D01*
X0152896Y0084776D02*
X0180032Y0084776D01*
X0182345Y0085574D02*
X0152098Y0085574D01*
X0151299Y0086373D02*
X0182345Y0086373D01*
X0182345Y0087172D02*
X0150501Y0087172D01*
X0149702Y0087970D02*
X0182345Y0087970D01*
X0180797Y0088769D02*
X0148904Y0088769D01*
X0148105Y0089567D02*
X0177830Y0089567D01*
X0176447Y0090366D02*
X0147307Y0090366D01*
X0146508Y0091164D02*
X0175113Y0091164D01*
X0174315Y0091963D02*
X0145710Y0091963D01*
X0144911Y0092761D02*
X0173516Y0092761D01*
X0172841Y0093560D02*
X0144113Y0093560D01*
X0143314Y0094358D02*
X0172380Y0094358D01*
X0171919Y0095157D02*
X0142516Y0095157D01*
X0141717Y0095955D02*
X0171466Y0095955D01*
X0171252Y0096754D02*
X0140919Y0096754D01*
X0140120Y0097552D02*
X0171038Y0097552D01*
X0170824Y0098351D02*
X0139322Y0098351D01*
X0138523Y0099149D02*
X0170677Y0099149D01*
X0170677Y0099948D02*
X0137725Y0099948D01*
X0136926Y0100746D02*
X0170677Y0100746D01*
X0170677Y0101545D02*
X0136197Y0101545D01*
X0136204Y0101538D02*
X0136204Y0101538D01*
X0135266Y0102343D02*
X0170778Y0102343D01*
X0170992Y0103142D02*
X0134249Y0103142D01*
X0136308Y0103940D02*
X0171206Y0103940D01*
X0171420Y0104739D02*
X0138236Y0104739D01*
X0139448Y0105537D02*
X0171819Y0105537D01*
X0172280Y0106336D02*
X0140246Y0106336D01*
X0141045Y0107134D02*
X0172741Y0107134D01*
X0173344Y0107933D02*
X0141658Y0107933D01*
X0141989Y0108731D02*
X0174143Y0108731D01*
X0174941Y0109530D02*
X0142320Y0109530D01*
X0142650Y0110328D02*
X0176149Y0110328D01*
X0177532Y0111127D02*
X0142926Y0111127D01*
X0142926Y0111925D02*
X0180154Y0111925D01*
X0182345Y0112724D02*
X0142926Y0112724D01*
X0142926Y0113522D02*
X0182345Y0113522D01*
X0182345Y0114321D02*
X0142926Y0114321D01*
X0142733Y0115119D02*
X0182345Y0115119D01*
X0182345Y0115918D02*
X0142402Y0115918D01*
X0142071Y0116716D02*
X0182345Y0116716D01*
X0182345Y0117515D02*
X0141740Y0117515D01*
X0141243Y0118313D02*
X0182345Y0118313D01*
X0182345Y0119112D02*
X0140445Y0119112D01*
X0139646Y0119910D02*
X0182345Y0119910D01*
X0182345Y0120709D02*
X0138715Y0120709D01*
X0136787Y0121508D02*
X0182345Y0121508D01*
X0182345Y0122306D02*
X0118202Y0122306D01*
X0118327Y0121508D02*
X0130683Y0121508D01*
X0128755Y0120709D02*
X0118654Y0120709D01*
X0119195Y0119910D02*
X0127824Y0119910D01*
X0127026Y0119112D02*
X0119737Y0119112D01*
X0120278Y0118313D02*
X0126227Y0118313D01*
X0125730Y0117515D02*
X0120819Y0117515D01*
X0121434Y0116716D02*
X0125399Y0116716D01*
X0125068Y0115918D02*
X0122079Y0115918D01*
X0122724Y0115119D02*
X0124738Y0115119D01*
X0124544Y0114321D02*
X0123369Y0114321D01*
X0124014Y0113522D02*
X0124544Y0113522D01*
X0118408Y0123105D02*
X0182345Y0123105D01*
X0182345Y0123903D02*
X0118915Y0123903D01*
X0119994Y0124702D02*
X0182345Y0124702D01*
X0182345Y0125500D02*
X0121459Y0125500D01*
X0122923Y0126299D02*
X0182345Y0126299D01*
X0182345Y0127097D02*
X0124388Y0127097D01*
X0125852Y0127896D02*
X0182345Y0127896D01*
X0182345Y0128694D02*
X0127317Y0128694D01*
X0128781Y0129493D02*
X0182345Y0129493D01*
X0182345Y0130291D02*
X0130245Y0130291D01*
X0131203Y0130813D02*
X0131203Y0130813D01*
X0131710Y0131090D02*
X0182345Y0131090D01*
X0182345Y0131888D02*
X0132948Y0131888D01*
X0133668Y0132687D02*
X0182345Y0132687D01*
X0182345Y0133485D02*
X0134389Y0133485D01*
X0134739Y0134284D02*
X0182345Y0134284D01*
X0182345Y0135082D02*
X0135073Y0135082D01*
X0135395Y0135881D02*
X0182345Y0135881D01*
X0182345Y0136679D02*
X0135442Y0136679D01*
X0135488Y0137478D02*
X0182272Y0137478D01*
X0184845Y0137478D02*
X0229170Y0137478D01*
X0229216Y0136737D02*
X0229216Y0136736D01*
X0230215Y0134392D01*
X0231940Y0132517D01*
X0231940Y0132517D01*
X0233067Y0131922D01*
X0233438Y0131725D01*
X0245196Y0125514D01*
X0245196Y0125514D01*
X0245618Y0125291D01*
X0246061Y0124995D01*
X0246722Y0124169D01*
X0246999Y0123148D01*
X0246846Y0122101D01*
X0246614Y0121623D01*
X0246614Y0121622D01*
X0244196Y0117961D01*
X0240146Y0112857D01*
X0240146Y0114651D01*
X0238747Y0118030D01*
X0236162Y0120615D01*
X0232783Y0122014D01*
X0229127Y0122014D01*
X0225749Y0120615D01*
X0223163Y0118030D01*
X0221764Y0114651D01*
X0221764Y0110995D01*
X0223163Y0107617D01*
X0225749Y0105031D01*
X0229127Y0103632D01*
X0231024Y0103632D01*
X0229604Y0102444D01*
X0229522Y0102420D01*
X0229140Y0102119D01*
X0228796Y0101847D01*
X0228796Y0101847D01*
X0228486Y0101538D01*
X0228142Y0101193D01*
X0228092Y0101074D01*
X0198351Y0071333D01*
X0187667Y0071333D01*
X0189042Y0072708D01*
X0190245Y0075612D01*
X0190245Y0078754D01*
X0189042Y0081658D01*
X0186820Y0083880D01*
X0184845Y0084698D01*
X0184845Y0089024D01*
X0186849Y0089560D01*
X0189509Y0091097D01*
X0191682Y0093269D01*
X0193218Y0095929D01*
X0194013Y0098897D01*
X0194013Y0101969D01*
X0193218Y0104937D01*
X0191682Y0107597D01*
X0189509Y0109770D01*
X0186849Y0111306D01*
X0184845Y0111842D01*
X0184845Y0137566D01*
X0189793Y0138510D01*
X0189793Y0138510D01*
X0195260Y0141082D01*
X0199915Y0144934D01*
X0203467Y0149821D01*
X0203467Y0149821D01*
X0205691Y0155439D01*
X0206448Y0161433D01*
X0257937Y0161433D01*
X0257945Y0161137D02*
X0257945Y0161137D01*
X0257836Y0165497D01*
X0257139Y0171724D01*
X0257127Y0171697D01*
X0254542Y0169111D01*
X0251163Y0167712D01*
X0247507Y0167712D01*
X0244129Y0169111D01*
X0241543Y0171697D01*
X0240144Y0175075D01*
X0240144Y0178731D01*
X0241543Y0182110D01*
X0244129Y0184695D01*
X0247507Y0186094D01*
X0251163Y0186094D01*
X0254116Y0184871D01*
X0251977Y0190873D01*
X0250164Y0194840D01*
X0250164Y0194840D01*
X0249881Y0195290D01*
X0249074Y0195975D01*
X0248061Y0196281D01*
X0247010Y0196158D01*
X0246525Y0195939D01*
X0246393Y0195862D01*
X0246112Y0195699D01*
X0246112Y0195699D01*
X0233838Y0188569D01*
X0233838Y0188569D01*
X0233149Y0188169D01*
X0233149Y0188169D01*
X0230644Y0187700D01*
X0230644Y0187700D01*
X0228127Y0188095D01*
X0228127Y0188095D01*
X0225887Y0189309D01*
X0225887Y0189309D01*
X0225354Y0189901D01*
X0224715Y0190611D01*
X0224715Y0190611D01*
X0215792Y0200521D01*
X0215792Y0200521D01*
X0215472Y0200876D01*
X0215472Y0200876D01*
X0214620Y0201822D01*
X0214620Y0201822D01*
X0213646Y0204177D01*
X0213646Y0204177D01*
X0213516Y0206722D01*
X0213516Y0206722D01*
X0214245Y0209164D01*
X0214245Y0209164D01*
X0214715Y0209807D01*
X0214715Y0209807D01*
X0223090Y0221271D01*
X0223091Y0221272D01*
X0223369Y0221652D01*
X0223373Y0221657D01*
X0223643Y0222118D01*
X0223877Y0223153D01*
X0223679Y0224197D01*
X0223082Y0225075D01*
X0222663Y0225404D01*
X0222654Y0225410D01*
X0222641Y0225418D01*
X0219116Y0227561D01*
X0211745Y0231283D01*
X0204026Y0234215D01*
X0196042Y0236323D01*
X0192134Y0237033D01*
X0186000Y0237033D01*
X0186849Y0236806D01*
X0189509Y0235270D01*
X0191682Y0233097D01*
X0193218Y0230437D01*
X0194013Y0227469D01*
X0194013Y0224397D01*
X0193218Y0221429D01*
X0191682Y0218769D01*
X0189509Y0216597D01*
X0186849Y0215060D01*
X0184845Y0214524D01*
X0184845Y0185300D01*
X0189793Y0184356D01*
X0195260Y0181784D01*
X0199915Y0177933D01*
X0199915Y0177933D01*
X0203467Y0173045D01*
X0203467Y0173045D01*
X0205691Y0167427D01*
X0205691Y0167427D01*
X0206448Y0161433D01*
X0206347Y0160635D02*
X0257891Y0160635D01*
X0257888Y0160608D02*
X0257463Y0159639D01*
X0256686Y0158920D01*
X0255688Y0158570D01*
X0255156Y0158554D01*
X0241474Y0159547D01*
X0240998Y0159582D01*
X0239727Y0159674D01*
X0237271Y0158998D01*
X0237271Y0158998D01*
X0235181Y0157539D01*
X0233700Y0155466D01*
X0233481Y0154700D01*
X0233481Y0154700D01*
X0229279Y0140046D01*
X0229279Y0140046D01*
X0229059Y0139280D01*
X0229059Y0139280D01*
X0229216Y0136737D01*
X0229241Y0136679D02*
X0184845Y0136679D01*
X0184845Y0135881D02*
X0229581Y0135881D01*
X0229921Y0135082D02*
X0184845Y0135082D01*
X0184845Y0134284D02*
X0230315Y0134284D01*
X0230215Y0134392D02*
X0230215Y0134392D01*
X0231049Y0133485D02*
X0184845Y0133485D01*
X0184845Y0132687D02*
X0231784Y0132687D01*
X0233130Y0131888D02*
X0184845Y0131888D01*
X0184845Y0131090D02*
X0234642Y0131090D01*
X0236153Y0130291D02*
X0184845Y0130291D01*
X0184845Y0129493D02*
X0237665Y0129493D01*
X0239176Y0128694D02*
X0184845Y0128694D01*
X0184845Y0127896D02*
X0240688Y0127896D01*
X0242199Y0127097D02*
X0184845Y0127097D01*
X0184845Y0126299D02*
X0243711Y0126299D01*
X0245222Y0125500D02*
X0184845Y0125500D01*
X0184845Y0124702D02*
X0246296Y0124702D01*
X0246794Y0123903D02*
X0184845Y0123903D01*
X0184845Y0123105D02*
X0246993Y0123105D01*
X0246876Y0122306D02*
X0184845Y0122306D01*
X0184845Y0121508D02*
X0227903Y0121508D01*
X0225975Y0120709D02*
X0184845Y0120709D01*
X0184845Y0119910D02*
X0225044Y0119910D01*
X0224246Y0119112D02*
X0184845Y0119112D01*
X0184845Y0118313D02*
X0223447Y0118313D01*
X0222950Y0117515D02*
X0184845Y0117515D01*
X0184845Y0116716D02*
X0222619Y0116716D01*
X0222288Y0115918D02*
X0184845Y0115918D01*
X0184845Y0115119D02*
X0221958Y0115119D01*
X0221764Y0114321D02*
X0184845Y0114321D01*
X0184845Y0113522D02*
X0221764Y0113522D01*
X0221764Y0112724D02*
X0184845Y0112724D01*
X0184845Y0111925D02*
X0221764Y0111925D01*
X0221764Y0111127D02*
X0187158Y0111127D01*
X0188541Y0110328D02*
X0222040Y0110328D01*
X0222371Y0109530D02*
X0189749Y0109530D01*
X0190548Y0108731D02*
X0222701Y0108731D01*
X0223032Y0107933D02*
X0191346Y0107933D01*
X0191949Y0107134D02*
X0223645Y0107134D01*
X0224444Y0106336D02*
X0192410Y0106336D01*
X0192871Y0105537D02*
X0225242Y0105537D01*
X0226454Y0104739D02*
X0193271Y0104739D01*
X0193485Y0103940D02*
X0228382Y0103940D01*
X0229424Y0102343D02*
X0193913Y0102343D01*
X0194013Y0101545D02*
X0228493Y0101545D01*
X0228486Y0101538D02*
X0228486Y0101538D01*
X0227764Y0100746D02*
X0194013Y0100746D01*
X0194013Y0099948D02*
X0226966Y0099948D01*
X0226167Y0099149D02*
X0194013Y0099149D01*
X0193866Y0098351D02*
X0225369Y0098351D01*
X0224570Y0097552D02*
X0193652Y0097552D01*
X0193439Y0096754D02*
X0223772Y0096754D01*
X0222973Y0095955D02*
X0193225Y0095955D01*
X0192771Y0095157D02*
X0222175Y0095157D01*
X0221376Y0094358D02*
X0192310Y0094358D01*
X0191849Y0093560D02*
X0220578Y0093560D01*
X0219779Y0092761D02*
X0191174Y0092761D01*
X0190375Y0091963D02*
X0218981Y0091963D01*
X0218182Y0091164D02*
X0189577Y0091164D01*
X0188243Y0090366D02*
X0217384Y0090366D01*
X0216585Y0089567D02*
X0186860Y0089567D01*
X0184845Y0088769D02*
X0215787Y0088769D01*
X0214988Y0087970D02*
X0184845Y0087970D01*
X0184845Y0087172D02*
X0214189Y0087172D01*
X0213391Y0086373D02*
X0184845Y0086373D01*
X0184845Y0085574D02*
X0212592Y0085574D01*
X0211794Y0084776D02*
X0184845Y0084776D01*
X0186586Y0083977D02*
X0210995Y0083977D01*
X0210197Y0083179D02*
X0187522Y0083179D01*
X0188320Y0082380D02*
X0209398Y0082380D01*
X0208600Y0081582D02*
X0189074Y0081582D01*
X0189405Y0080783D02*
X0207801Y0080783D01*
X0207003Y0079985D02*
X0189735Y0079985D01*
X0190066Y0079186D02*
X0206204Y0079186D01*
X0205406Y0078388D02*
X0190245Y0078388D01*
X0190245Y0077589D02*
X0204607Y0077589D01*
X0203809Y0076791D02*
X0190245Y0076791D01*
X0190245Y0075992D02*
X0203010Y0075992D01*
X0202212Y0075194D02*
X0190072Y0075194D01*
X0189741Y0074395D02*
X0201413Y0074395D01*
X0200615Y0073597D02*
X0189411Y0073597D01*
X0189080Y0072798D02*
X0199816Y0072798D01*
X0199018Y0072000D02*
X0188334Y0072000D01*
X0193699Y0103142D02*
X0230438Y0103142D01*
X0240146Y0113522D02*
X0240675Y0113522D01*
X0240146Y0114321D02*
X0241308Y0114321D01*
X0241942Y0115119D02*
X0239953Y0115119D01*
X0239622Y0115918D02*
X0242575Y0115918D01*
X0243209Y0116716D02*
X0239291Y0116716D01*
X0238960Y0117515D02*
X0243842Y0117515D01*
X0244429Y0118313D02*
X0238463Y0118313D01*
X0237665Y0119112D02*
X0244956Y0119112D01*
X0245483Y0119910D02*
X0236866Y0119910D01*
X0235935Y0120709D02*
X0246011Y0120709D01*
X0246538Y0121508D02*
X0234007Y0121508D01*
X0229121Y0138276D02*
X0188568Y0138276D01*
X0190993Y0139075D02*
X0229072Y0139075D01*
X0229229Y0139873D02*
X0192690Y0139873D01*
X0194387Y0140672D02*
X0229458Y0140672D01*
X0229687Y0141470D02*
X0195729Y0141470D01*
X0195260Y0141082D02*
X0195260Y0141082D01*
X0196694Y0142269D02*
X0229916Y0142269D01*
X0230145Y0143067D02*
X0197659Y0143067D01*
X0198625Y0143866D02*
X0230374Y0143866D01*
X0230603Y0144664D02*
X0199590Y0144664D01*
X0199915Y0144934D02*
X0199915Y0144934D01*
X0199915Y0144934D01*
X0200300Y0145463D02*
X0230832Y0145463D01*
X0231061Y0146261D02*
X0200880Y0146261D01*
X0201460Y0147060D02*
X0231290Y0147060D01*
X0231519Y0147858D02*
X0202040Y0147858D01*
X0202620Y0148657D02*
X0231748Y0148657D01*
X0231977Y0149455D02*
X0203201Y0149455D01*
X0203638Y0150254D02*
X0232206Y0150254D01*
X0232435Y0151052D02*
X0203954Y0151052D01*
X0204270Y0151851D02*
X0232664Y0151851D01*
X0232893Y0152649D02*
X0204586Y0152649D01*
X0204902Y0153448D02*
X0233122Y0153448D01*
X0233351Y0154246D02*
X0205219Y0154246D01*
X0205535Y0155045D02*
X0233580Y0155045D01*
X0233700Y0155466D02*
X0233700Y0155466D01*
X0233970Y0155843D02*
X0205742Y0155843D01*
X0205691Y0155439D02*
X0205691Y0155439D01*
X0205843Y0156642D02*
X0234541Y0156642D01*
X0235111Y0157441D02*
X0205944Y0157441D01*
X0206044Y0158239D02*
X0236184Y0158239D01*
X0235181Y0157539D02*
X0235181Y0157539D01*
X0237415Y0159038D02*
X0206145Y0159038D01*
X0206246Y0159836D02*
X0257549Y0159836D01*
X0257888Y0160608D02*
X0257945Y0161137D01*
X0257917Y0162232D02*
X0206347Y0162232D01*
X0206246Y0163030D02*
X0257897Y0163030D01*
X0257877Y0163829D02*
X0206145Y0163829D01*
X0206044Y0164627D02*
X0257858Y0164627D01*
X0257838Y0165426D02*
X0205944Y0165426D01*
X0205843Y0166224D02*
X0257754Y0166224D01*
X0257665Y0167023D02*
X0205742Y0167023D01*
X0205535Y0167821D02*
X0247243Y0167821D01*
X0245315Y0168620D02*
X0205219Y0168620D01*
X0204902Y0169418D02*
X0243822Y0169418D01*
X0243023Y0170217D02*
X0204586Y0170217D01*
X0204270Y0171015D02*
X0242224Y0171015D01*
X0241495Y0171814D02*
X0203954Y0171814D01*
X0203638Y0172612D02*
X0241164Y0172612D01*
X0240833Y0173411D02*
X0203201Y0173411D01*
X0202620Y0174209D02*
X0240502Y0174209D01*
X0240172Y0175008D02*
X0202040Y0175008D01*
X0201460Y0175806D02*
X0240144Y0175806D01*
X0240144Y0176605D02*
X0200880Y0176605D01*
X0200300Y0177403D02*
X0240144Y0177403D01*
X0240144Y0178202D02*
X0199590Y0178202D01*
X0198625Y0179000D02*
X0240255Y0179000D01*
X0240586Y0179799D02*
X0197659Y0179799D01*
X0196694Y0180597D02*
X0240917Y0180597D01*
X0241247Y0181396D02*
X0195729Y0181396D01*
X0194387Y0182194D02*
X0241628Y0182194D01*
X0242426Y0182993D02*
X0192690Y0182993D01*
X0190993Y0183791D02*
X0243225Y0183791D01*
X0244023Y0184590D02*
X0188568Y0184590D01*
X0184845Y0185388D02*
X0245802Y0185388D01*
X0252868Y0185388D02*
X0253932Y0185388D01*
X0253647Y0186187D02*
X0184845Y0186187D01*
X0184845Y0186985D02*
X0253363Y0186985D01*
X0253078Y0187784D02*
X0231095Y0187784D01*
X0230107Y0187784D02*
X0184845Y0187784D01*
X0184845Y0188582D02*
X0227227Y0188582D01*
X0225822Y0189381D02*
X0184845Y0189381D01*
X0184845Y0190179D02*
X0225103Y0190179D01*
X0224384Y0190978D02*
X0184845Y0190978D01*
X0184845Y0191777D02*
X0223665Y0191777D01*
X0222946Y0192575D02*
X0184845Y0192575D01*
X0184845Y0193374D02*
X0222227Y0193374D01*
X0221508Y0194172D02*
X0184845Y0194172D01*
X0184845Y0194971D02*
X0220789Y0194971D01*
X0220070Y0195769D02*
X0184845Y0195769D01*
X0184845Y0196568D02*
X0219351Y0196568D01*
X0218632Y0197366D02*
X0184845Y0197366D01*
X0184845Y0198165D02*
X0217913Y0198165D01*
X0217194Y0198963D02*
X0184845Y0198963D01*
X0184845Y0199762D02*
X0216475Y0199762D01*
X0215756Y0200560D02*
X0184845Y0200560D01*
X0184845Y0201359D02*
X0215037Y0201359D01*
X0214481Y0202157D02*
X0184845Y0202157D01*
X0184845Y0202956D02*
X0214151Y0202956D01*
X0213821Y0203754D02*
X0184845Y0203754D01*
X0184845Y0204553D02*
X0213627Y0204553D01*
X0213586Y0205351D02*
X0184845Y0205351D01*
X0184845Y0206150D02*
X0213546Y0206150D01*
X0213584Y0206948D02*
X0184845Y0206948D01*
X0184845Y0207747D02*
X0213822Y0207747D01*
X0214060Y0208545D02*
X0184845Y0208545D01*
X0184845Y0209344D02*
X0214376Y0209344D01*
X0214960Y0210142D02*
X0184845Y0210142D01*
X0184845Y0210941D02*
X0215543Y0210941D01*
X0216127Y0211739D02*
X0184845Y0211739D01*
X0184845Y0212538D02*
X0216710Y0212538D01*
X0217293Y0213336D02*
X0184845Y0213336D01*
X0184845Y0214135D02*
X0217877Y0214135D01*
X0218460Y0214933D02*
X0186374Y0214933D01*
X0188012Y0215732D02*
X0219044Y0215732D01*
X0219627Y0216530D02*
X0189395Y0216530D01*
X0190242Y0217329D02*
X0220210Y0217329D01*
X0220794Y0218127D02*
X0191040Y0218127D01*
X0191772Y0218926D02*
X0221377Y0218926D01*
X0221961Y0219724D02*
X0192233Y0219724D01*
X0192694Y0220523D02*
X0222544Y0220523D01*
X0223127Y0221321D02*
X0193155Y0221321D01*
X0193403Y0222120D02*
X0223643Y0222120D01*
X0223824Y0222918D02*
X0193617Y0222918D01*
X0193831Y0223717D02*
X0223770Y0223717D01*
X0223462Y0224515D02*
X0194013Y0224515D01*
X0194013Y0225314D02*
X0222778Y0225314D01*
X0221499Y0226112D02*
X0194013Y0226112D01*
X0194013Y0226911D02*
X0220185Y0226911D01*
X0218822Y0227710D02*
X0193948Y0227710D01*
X0193734Y0228508D02*
X0217241Y0228508D01*
X0215659Y0229307D02*
X0193521Y0229307D01*
X0193307Y0230105D02*
X0214078Y0230105D01*
X0212497Y0230904D02*
X0192948Y0230904D01*
X0192487Y0231702D02*
X0210642Y0231702D01*
X0208539Y0232501D02*
X0192026Y0232501D01*
X0191480Y0233299D02*
X0206437Y0233299D01*
X0204334Y0234098D02*
X0190681Y0234098D01*
X0189883Y0234896D02*
X0201446Y0234896D01*
X0198422Y0235695D02*
X0188773Y0235695D01*
X0187390Y0236493D02*
X0195106Y0236493D01*
X0177300Y0236493D02*
X0169584Y0236493D01*
X0166268Y0235695D02*
X0175917Y0235695D01*
X0174808Y0234896D02*
X0163245Y0234896D01*
X0160356Y0234098D02*
X0174009Y0234098D01*
X0173211Y0233299D02*
X0158254Y0233299D01*
X0156151Y0232501D02*
X0172664Y0232501D01*
X0172203Y0231702D02*
X0154048Y0231702D01*
X0152193Y0230904D02*
X0171742Y0230904D01*
X0171384Y0230105D02*
X0150612Y0230105D01*
X0149031Y0229307D02*
X0171170Y0229307D01*
X0170956Y0228508D02*
X0147450Y0228508D01*
X0145869Y0227710D02*
X0170742Y0227710D01*
X0170677Y0226911D02*
X0144505Y0226911D01*
X0143191Y0226112D02*
X0170677Y0226112D01*
X0170677Y0225314D02*
X0141913Y0225314D01*
X0141228Y0224515D02*
X0170677Y0224515D01*
X0170860Y0223717D02*
X0140920Y0223717D01*
X0140867Y0222918D02*
X0171074Y0222918D01*
X0171288Y0222120D02*
X0141047Y0222120D01*
X0141564Y0221321D02*
X0171535Y0221321D01*
X0171996Y0220523D02*
X0142146Y0220523D01*
X0142730Y0219724D02*
X0172457Y0219724D01*
X0172918Y0218926D02*
X0143313Y0218926D01*
X0143896Y0218127D02*
X0173650Y0218127D01*
X0174449Y0217329D02*
X0144480Y0217329D01*
X0145063Y0216530D02*
X0175296Y0216530D01*
X0176679Y0215732D02*
X0145647Y0215732D01*
X0146230Y0214933D02*
X0178316Y0214933D01*
X0182345Y0214135D02*
X0146813Y0214135D01*
X0147397Y0213336D02*
X0182345Y0213336D01*
X0182345Y0212538D02*
X0147980Y0212538D01*
X0148564Y0211739D02*
X0182345Y0211739D01*
X0182345Y0210941D02*
X0149147Y0210941D01*
X0149730Y0210142D02*
X0182345Y0210142D01*
X0182345Y0209344D02*
X0150314Y0209344D01*
X0150388Y0209242D02*
X0150388Y0209242D01*
X0150591Y0208545D02*
X0182345Y0208545D01*
X0182345Y0207747D02*
X0150822Y0207747D01*
X0151054Y0206948D02*
X0182345Y0206948D01*
X0182345Y0206150D02*
X0151076Y0206150D01*
X0151115Y0206740D02*
X0151115Y0206740D01*
X0151023Y0205351D02*
X0182345Y0205351D01*
X0182345Y0204553D02*
X0150970Y0204553D01*
X0150943Y0204141D02*
X0150943Y0204141D01*
X0150773Y0203754D02*
X0182345Y0203754D01*
X0182345Y0202956D02*
X0150422Y0202956D01*
X0150071Y0202157D02*
X0182345Y0202157D01*
X0182345Y0201359D02*
X0149514Y0201359D01*
X0149325Y0201160D02*
X0149325Y0201160D01*
X0149895Y0201757D02*
X0149895Y0201757D01*
X0148751Y0200560D02*
X0182345Y0200560D01*
X0182345Y0199762D02*
X0147988Y0199762D01*
X0147225Y0198963D02*
X0182345Y0198963D01*
X0182345Y0198165D02*
X0146462Y0198165D01*
X0145699Y0197366D02*
X0182345Y0197366D01*
X0182345Y0196568D02*
X0144936Y0196568D01*
X0144172Y0195769D02*
X0182345Y0195769D01*
X0182345Y0194971D02*
X0143409Y0194971D01*
X0142646Y0194172D02*
X0182345Y0194172D01*
X0182345Y0193374D02*
X0141883Y0193374D01*
X0141120Y0192575D02*
X0182345Y0192575D01*
X0182345Y0191777D02*
X0140357Y0191777D01*
X0139594Y0190978D02*
X0182345Y0190978D01*
X0182345Y0190179D02*
X0138831Y0190179D01*
X0138135Y0189451D02*
X0138135Y0189451D01*
X0138068Y0189381D02*
X0182345Y0189381D01*
X0182345Y0188582D02*
X0137277Y0188582D01*
X0135204Y0187784D02*
X0182345Y0187784D01*
X0182345Y0186985D02*
X0111310Y0186985D01*
X0111031Y0186187D02*
X0182345Y0186187D01*
X0182272Y0185388D02*
X0118888Y0185388D01*
X0120667Y0184590D02*
X0176231Y0184590D01*
X0173774Y0183791D02*
X0121465Y0183791D01*
X0122264Y0182993D02*
X0171690Y0182993D01*
X0170432Y0182194D02*
X0123062Y0182194D01*
X0123443Y0181396D02*
X0169174Y0181396D01*
X0167916Y0180597D02*
X0123774Y0180597D01*
X0124104Y0179799D02*
X0166788Y0179799D01*
X0166981Y0180005D02*
X0166981Y0180005D01*
X0166038Y0179000D02*
X0124435Y0179000D01*
X0124546Y0178202D02*
X0165289Y0178202D01*
X0164539Y0177403D02*
X0124546Y0177403D01*
X0124546Y0176605D02*
X0163789Y0176605D01*
X0163039Y0175806D02*
X0124546Y0175806D01*
X0124519Y0175008D02*
X0162520Y0175008D01*
X0162846Y0175600D02*
X0162846Y0175600D01*
X0162081Y0174209D02*
X0124188Y0174209D01*
X0123857Y0173411D02*
X0161642Y0173411D01*
X0161203Y0172612D02*
X0123526Y0172612D01*
X0123196Y0171814D02*
X0160764Y0171814D01*
X0160325Y0171015D02*
X0122466Y0171015D01*
X0121667Y0170217D02*
X0159912Y0170217D01*
X0159707Y0169418D02*
X0120869Y0169418D01*
X0119375Y0168620D02*
X0159502Y0168620D01*
X0159297Y0167821D02*
X0117448Y0167821D01*
X0113263Y0167821D02*
X0107086Y0167821D01*
X0106991Y0167023D02*
X0159092Y0167023D01*
X0158887Y0166224D02*
X0106898Y0166224D01*
X0106868Y0165426D02*
X0158682Y0165426D01*
X0158477Y0164627D02*
X0106839Y0164627D01*
X0106810Y0163829D02*
X0158432Y0163829D01*
X0158432Y0163030D02*
X0106781Y0163030D01*
X0106752Y0162232D02*
X0158432Y0162232D01*
X0158432Y0161433D02*
X0106870Y0161433D01*
X0107208Y0160635D02*
X0158432Y0160635D01*
X0158432Y0159836D02*
X0126464Y0159836D01*
X0127857Y0159038D02*
X0158432Y0159038D01*
X0158477Y0158239D02*
X0128977Y0158239D01*
X0129543Y0157441D02*
X0158682Y0157441D01*
X0158887Y0156642D02*
X0130110Y0156642D01*
X0130428Y0156193D02*
X0130428Y0156193D01*
X0130529Y0155843D02*
X0159092Y0155843D01*
X0159297Y0155045D02*
X0130758Y0155045D01*
X0130908Y0154521D02*
X0130908Y0154521D01*
X0130987Y0154246D02*
X0159502Y0154246D01*
X0159707Y0153448D02*
X0131215Y0153448D01*
X0131444Y0152649D02*
X0159912Y0152649D01*
X0159935Y0152560D02*
X0159935Y0152560D01*
X0160325Y0151851D02*
X0131673Y0151851D01*
X0131902Y0151052D02*
X0160764Y0151052D01*
X0161203Y0150254D02*
X0132131Y0150254D01*
X0132360Y0149455D02*
X0161642Y0149455D01*
X0162081Y0148657D02*
X0132589Y0148657D01*
X0132818Y0147858D02*
X0162520Y0147858D01*
X0162846Y0147266D02*
X0162846Y0147266D01*
X0163039Y0147060D02*
X0133047Y0147060D01*
X0133276Y0146261D02*
X0163789Y0146261D01*
X0164539Y0145463D02*
X0133505Y0145463D01*
X0133734Y0144664D02*
X0165289Y0144664D01*
X0166038Y0143866D02*
X0133963Y0143866D01*
X0134192Y0143067D02*
X0166788Y0143067D01*
X0166981Y0142862D02*
X0166981Y0142862D01*
X0167916Y0142269D02*
X0134421Y0142269D01*
X0134650Y0141470D02*
X0169174Y0141470D01*
X0170432Y0140672D02*
X0134879Y0140672D01*
X0135108Y0139873D02*
X0171690Y0139873D01*
X0172083Y0139624D02*
X0172083Y0139624D01*
X0173774Y0139075D02*
X0135337Y0139075D01*
X0135535Y0138276D02*
X0176231Y0138276D01*
X0177829Y0137757D02*
X0177829Y0137757D01*
X0239727Y0159674D02*
X0239727Y0159674D01*
X0241474Y0159547D02*
X0241474Y0159547D01*
X0248494Y0159038D02*
X0256813Y0159038D01*
X0257576Y0167821D02*
X0251428Y0167821D01*
X0253355Y0168620D02*
X0257486Y0168620D01*
X0257397Y0169418D02*
X0254849Y0169418D01*
X0255647Y0170217D02*
X0257307Y0170217D01*
X0257218Y0171015D02*
X0256446Y0171015D01*
X0252794Y0188582D02*
X0233861Y0188582D01*
X0235235Y0189381D02*
X0252509Y0189381D01*
X0252225Y0190179D02*
X0236610Y0190179D01*
X0237985Y0190978D02*
X0251929Y0190978D01*
X0251564Y0191777D02*
X0239359Y0191777D01*
X0240734Y0192575D02*
X0251199Y0192575D01*
X0250834Y0193374D02*
X0242109Y0193374D01*
X0243483Y0194172D02*
X0250469Y0194172D01*
X0250082Y0194971D02*
X0244858Y0194971D01*
X0246232Y0195769D02*
X0249317Y0195769D01*
X0149902Y0209908D02*
X0149902Y0209908D01*
X0120765Y0193374D02*
X0113840Y0193374D01*
X0113486Y0192575D02*
X0122183Y0192575D01*
X0123600Y0191777D02*
X0113132Y0191777D01*
X0112778Y0190978D02*
X0125017Y0190978D01*
X0126434Y0190179D02*
X0112424Y0190179D01*
X0112145Y0189381D02*
X0127852Y0189381D01*
X0129067Y0188696D02*
X0129067Y0188696D01*
X0129269Y0188582D02*
X0111867Y0188582D01*
X0111588Y0187784D02*
X0130686Y0187784D01*
X0134229Y0187409D02*
X0134229Y0187409D01*
X0119348Y0194172D02*
X0114231Y0194172D01*
X0115026Y0194971D02*
X0117931Y0194971D01*
X0111822Y0185388D02*
X0110752Y0185388D01*
X0108244Y0171015D02*
X0107464Y0171015D01*
X0107370Y0170217D02*
X0109043Y0170217D01*
X0109842Y0169418D02*
X0107275Y0169418D01*
X0107180Y0168620D02*
X0111335Y0168620D01*
X0109979Y0159541D02*
X0109979Y0159541D01*
X0108149Y0159836D02*
X0114952Y0159836D01*
M02*
