G75*
%MOIN*%
%OFA0B0*%
%FSLAX25Y25*%
%IPPOS*%
%LPD*%
%AMOC8*
5,1,8,0,0,1.08239X$1,22.5*
%
%ADD10C,0.20535*%
%ADD11C,0.16000*%
%ADD12C,0.00800*%
D10*
X0516750Y0232571D03*
X0516750Y0387000D03*
X0481750Y0387000D03*
X0551750Y0387000D03*
D11*
X0543750Y0364500D03*
X0516750Y0365962D03*
X0489750Y0364500D03*
X0493128Y0191232D03*
X0516750Y0189657D03*
X0540372Y0191232D03*
D12*
X0515750Y0212462D02*
X0455292Y0212462D01*
X0456164Y0211664D02*
X0515750Y0211664D01*
X0515750Y0210865D02*
X0457035Y0210865D01*
X0457906Y0210067D02*
X0515750Y0210067D01*
X0515750Y0209268D02*
X0458778Y0209268D01*
X0459649Y0208470D02*
X0515750Y0208470D01*
X0515750Y0207671D02*
X0460521Y0207671D01*
X0461392Y0206873D02*
X0515750Y0206873D01*
X0515750Y0206074D02*
X0462264Y0206074D01*
X0463135Y0205276D02*
X0515750Y0205276D01*
X0515750Y0204477D02*
X0464006Y0204477D01*
X0464878Y0203679D02*
X0515750Y0203679D01*
X0515750Y0202880D02*
X0465749Y0202880D01*
X0466621Y0202082D02*
X0515750Y0202082D01*
X0515750Y0201283D02*
X0467492Y0201283D01*
X0468364Y0200485D02*
X0515750Y0200485D01*
X0515750Y0199686D02*
X0469235Y0199686D01*
X0470106Y0198888D02*
X0514470Y0198888D01*
X0514880Y0199057D02*
X0511425Y0197626D01*
X0508781Y0194982D01*
X0507350Y0191527D01*
X0507350Y0187788D01*
X0508781Y0184333D01*
X0511425Y0181689D01*
X0514419Y0180448D01*
X0490229Y0180448D01*
X0445774Y0221184D01*
X0445774Y0221184D01*
X0445346Y0221576D01*
X0442752Y0224035D01*
X0437821Y0229209D01*
X0435490Y0231917D01*
X0435490Y0231918D01*
X0434908Y0232796D01*
X0434373Y0234820D01*
X0434741Y0236882D01*
X0435944Y0238596D01*
X0436794Y0239219D01*
X0437296Y0239509D01*
X0438035Y0239936D01*
X0438477Y0240191D01*
X0440344Y0241269D01*
X0440344Y0241269D01*
X0443116Y0244572D01*
X0444590Y0248624D01*
X0444590Y0252935D01*
X0443116Y0256987D01*
X0440344Y0260290D01*
X0440344Y0260290D01*
X0436610Y0262446D01*
X0432364Y0263195D01*
X0428117Y0262446D01*
X0426752Y0261658D01*
X0425069Y0260686D01*
X0425069Y0260686D01*
X0424567Y0260396D01*
X0423603Y0259972D01*
X0421517Y0259787D01*
X0419547Y0260499D01*
X0418061Y0261975D01*
X0417592Y0262918D01*
X0416504Y0266014D01*
X0414618Y0272302D01*
X0413823Y0275485D01*
X0413823Y0275486D01*
X0413697Y0276520D01*
X0414111Y0278550D01*
X0415334Y0280222D01*
X0417143Y0281231D01*
X0418167Y0281423D01*
X0418233Y0281428D01*
X0420635Y0281617D01*
X0425287Y0283313D01*
X0429313Y0286193D01*
X0429313Y0286193D01*
X0429313Y0286193D01*
X0432421Y0290048D01*
X0434381Y0294594D01*
X0434381Y0294594D01*
X0435050Y0299500D01*
X0483949Y0299500D01*
X0483949Y0300299D02*
X0434941Y0300299D01*
X0434832Y0301097D02*
X0483949Y0301097D01*
X0483949Y0301896D02*
X0434723Y0301896D01*
X0434614Y0302694D02*
X0483949Y0302694D01*
X0483949Y0303067D02*
X0483949Y0295933D01*
X0485483Y0288965D01*
X0485483Y0288965D01*
X0488478Y0282490D01*
X0488478Y0282490D01*
X0492796Y0276810D01*
X0492796Y0276810D01*
X0498234Y0272191D01*
X0504537Y0268849D01*
X0504537Y0268849D01*
X0511412Y0266940D01*
X0511412Y0266940D01*
X0515750Y0266705D01*
X0515750Y0244239D01*
X0515214Y0244239D01*
X0512246Y0243443D01*
X0509586Y0241907D01*
X0507413Y0239735D01*
X0505877Y0237074D01*
X0505082Y0234107D01*
X0505082Y0231035D01*
X0505877Y0228067D01*
X0507413Y0225407D01*
X0509586Y0223234D01*
X0512246Y0221698D01*
X0515214Y0220903D01*
X0515750Y0220903D01*
X0515750Y0199057D01*
X0514880Y0199057D01*
X0512542Y0198089D02*
X0470978Y0198089D01*
X0471849Y0197291D02*
X0511089Y0197291D01*
X0510291Y0196492D02*
X0472721Y0196492D01*
X0473592Y0195694D02*
X0509492Y0195694D01*
X0508745Y0194895D02*
X0474463Y0194895D01*
X0475335Y0194097D02*
X0508414Y0194097D01*
X0508083Y0193298D02*
X0476206Y0193298D01*
X0477078Y0192499D02*
X0507753Y0192499D01*
X0507422Y0191701D02*
X0477949Y0191701D01*
X0478821Y0190902D02*
X0507350Y0190902D01*
X0507350Y0190104D02*
X0479692Y0190104D01*
X0480563Y0189305D02*
X0507350Y0189305D01*
X0507350Y0188507D02*
X0481435Y0188507D01*
X0482306Y0187708D02*
X0507383Y0187708D01*
X0507714Y0186910D02*
X0483178Y0186910D01*
X0484049Y0186111D02*
X0508044Y0186111D01*
X0508375Y0185313D02*
X0484921Y0185313D01*
X0485792Y0184514D02*
X0508706Y0184514D01*
X0509398Y0183716D02*
X0486663Y0183716D01*
X0487535Y0182917D02*
X0510197Y0182917D01*
X0510995Y0182119D02*
X0488406Y0182119D01*
X0489278Y0181320D02*
X0512314Y0181320D01*
X0514242Y0180522D02*
X0490149Y0180522D01*
X0519081Y0180448D02*
X0522075Y0181689D01*
X0524719Y0184333D01*
X0526150Y0187788D01*
X0526150Y0191527D01*
X0524719Y0194982D01*
X0522075Y0197626D01*
X0518620Y0199057D01*
X0517750Y0199057D01*
X0517750Y0220903D01*
X0518286Y0220903D01*
X0521254Y0221698D01*
X0523914Y0223234D01*
X0526086Y0225407D01*
X0527623Y0228067D01*
X0528418Y0231035D01*
X0528418Y0234107D01*
X0527623Y0237074D01*
X0526086Y0239735D01*
X0523914Y0241907D01*
X0521254Y0243443D01*
X0518286Y0244239D01*
X0517750Y0244239D01*
X0517750Y0266596D01*
X0518536Y0266554D01*
X0525577Y0267708D01*
X0532205Y0270349D01*
X0538110Y0274353D01*
X0543017Y0279533D01*
X0546695Y0285646D01*
X0548973Y0292407D01*
X0548973Y0292407D01*
X0549745Y0299500D01*
X0598450Y0299500D01*
X0599119Y0294594D01*
X0601079Y0290048D01*
X0604187Y0286193D01*
X0608213Y0283313D01*
X0608213Y0283313D01*
X0612865Y0281617D01*
X0615333Y0281423D01*
X0616357Y0281231D01*
X0618166Y0280222D01*
X0619389Y0278550D01*
X0619803Y0276520D01*
X0619677Y0275486D01*
X0619677Y0275486D01*
X0618882Y0272302D01*
X0616996Y0266014D01*
X0615908Y0262918D01*
X0615908Y0262918D01*
X0615439Y0261975D01*
X0613953Y0260499D01*
X0611983Y0259787D01*
X0609897Y0259972D01*
X0608933Y0260396D01*
X0608431Y0260686D01*
X0607752Y0261078D01*
X0607752Y0261078D01*
X0607250Y0261368D01*
X0607098Y0261456D01*
X0606748Y0261658D01*
X0606748Y0261658D01*
X0605573Y0262336D01*
X0605573Y0262336D01*
X0601784Y0263142D01*
X0597932Y0262737D01*
X0594394Y0261162D01*
X0591516Y0258570D01*
X0589579Y0255216D01*
X0589579Y0255216D01*
X0588774Y0251427D01*
X0589179Y0247576D01*
X0589179Y0247576D01*
X0590754Y0244037D01*
X0590754Y0244037D01*
X0593346Y0241159D01*
X0595023Y0240191D01*
X0595332Y0240012D01*
X0596706Y0239219D01*
X0597556Y0238596D01*
X0598759Y0236882D01*
X0599127Y0234820D01*
X0598592Y0232796D01*
X0598010Y0231917D01*
X0595679Y0229209D01*
X0590748Y0224035D01*
X0588154Y0221576D01*
X0587836Y0221285D01*
X0543271Y0180448D01*
X0519081Y0180448D01*
X0519258Y0180522D02*
X0543351Y0180522D01*
X0544222Y0181320D02*
X0521186Y0181320D01*
X0522505Y0182119D02*
X0545094Y0182119D01*
X0545965Y0182917D02*
X0523303Y0182917D01*
X0524102Y0183716D02*
X0546837Y0183716D01*
X0547708Y0184514D02*
X0524794Y0184514D01*
X0525125Y0185313D02*
X0548579Y0185313D01*
X0549451Y0186111D02*
X0525456Y0186111D01*
X0525786Y0186910D02*
X0550322Y0186910D01*
X0551194Y0187708D02*
X0526117Y0187708D01*
X0526150Y0188507D02*
X0552065Y0188507D01*
X0552937Y0189305D02*
X0526150Y0189305D01*
X0526150Y0190104D02*
X0553808Y0190104D01*
X0554679Y0190902D02*
X0526150Y0190902D01*
X0526078Y0191701D02*
X0555551Y0191701D01*
X0556422Y0192499D02*
X0525747Y0192499D01*
X0525417Y0193298D02*
X0557294Y0193298D01*
X0558165Y0194097D02*
X0525086Y0194097D01*
X0524755Y0194895D02*
X0559037Y0194895D01*
X0559908Y0195694D02*
X0524008Y0195694D01*
X0523209Y0196492D02*
X0560779Y0196492D01*
X0561651Y0197291D02*
X0522411Y0197291D01*
X0520958Y0198089D02*
X0562522Y0198089D01*
X0563394Y0198888D02*
X0519030Y0198888D01*
X0517750Y0199686D02*
X0564265Y0199686D01*
X0565136Y0200485D02*
X0517750Y0200485D01*
X0517750Y0201283D02*
X0566008Y0201283D01*
X0566879Y0202082D02*
X0517750Y0202082D01*
X0517750Y0202880D02*
X0567751Y0202880D01*
X0568622Y0203679D02*
X0517750Y0203679D01*
X0517750Y0204477D02*
X0569494Y0204477D01*
X0570365Y0205276D02*
X0517750Y0205276D01*
X0517750Y0206074D02*
X0571236Y0206074D01*
X0572108Y0206873D02*
X0517750Y0206873D01*
X0517750Y0207671D02*
X0572979Y0207671D01*
X0573851Y0208470D02*
X0517750Y0208470D01*
X0517750Y0209268D02*
X0574722Y0209268D01*
X0575594Y0210067D02*
X0517750Y0210067D01*
X0517750Y0210865D02*
X0576465Y0210865D01*
X0577336Y0211664D02*
X0517750Y0211664D01*
X0517750Y0212462D02*
X0578208Y0212462D01*
X0579079Y0213261D02*
X0517750Y0213261D01*
X0517750Y0214059D02*
X0579951Y0214059D01*
X0580822Y0214858D02*
X0517750Y0214858D01*
X0517750Y0215656D02*
X0581693Y0215656D01*
X0582565Y0216455D02*
X0517750Y0216455D01*
X0517750Y0217253D02*
X0583436Y0217253D01*
X0584308Y0218052D02*
X0517750Y0218052D01*
X0517750Y0218850D02*
X0585179Y0218850D01*
X0586051Y0219649D02*
X0517750Y0219649D01*
X0517750Y0220447D02*
X0586922Y0220447D01*
X0587793Y0221246D02*
X0519565Y0221246D01*
X0521853Y0222044D02*
X0588648Y0222044D01*
X0589490Y0222843D02*
X0523236Y0222843D01*
X0524321Y0223641D02*
X0590333Y0223641D01*
X0591134Y0224440D02*
X0525120Y0224440D01*
X0525918Y0225238D02*
X0591895Y0225238D01*
X0592656Y0226037D02*
X0526450Y0226037D01*
X0526911Y0226835D02*
X0593417Y0226835D01*
X0594178Y0227634D02*
X0527372Y0227634D01*
X0527720Y0228432D02*
X0594939Y0228432D01*
X0595698Y0229231D02*
X0527934Y0229231D01*
X0528148Y0230030D02*
X0596385Y0230030D01*
X0597073Y0230828D02*
X0528362Y0230828D01*
X0528418Y0231627D02*
X0597760Y0231627D01*
X0598010Y0231917D02*
X0598010Y0231917D01*
X0598346Y0232425D02*
X0528418Y0232425D01*
X0528418Y0233224D02*
X0598705Y0233224D01*
X0598916Y0234022D02*
X0528418Y0234022D01*
X0528226Y0234821D02*
X0599127Y0234821D01*
X0598985Y0235619D02*
X0528013Y0235619D01*
X0527799Y0236418D02*
X0598842Y0236418D01*
X0598525Y0237216D02*
X0527541Y0237216D01*
X0527080Y0238015D02*
X0597964Y0238015D01*
X0597260Y0238813D02*
X0526619Y0238813D01*
X0526158Y0239612D02*
X0596026Y0239612D01*
X0594643Y0240410D02*
X0525411Y0240410D01*
X0524613Y0241209D02*
X0593301Y0241209D01*
X0593346Y0241159D02*
X0593346Y0241159D01*
X0592582Y0242007D02*
X0523741Y0242007D01*
X0522358Y0242806D02*
X0591863Y0242806D01*
X0591144Y0243604D02*
X0520654Y0243604D01*
X0517750Y0244403D02*
X0590592Y0244403D01*
X0590236Y0245201D02*
X0517750Y0245201D01*
X0517750Y0246000D02*
X0589881Y0246000D01*
X0589525Y0246798D02*
X0517750Y0246798D01*
X0517750Y0247597D02*
X0589177Y0247597D01*
X0589093Y0248395D02*
X0517750Y0248395D01*
X0517750Y0249194D02*
X0589009Y0249194D01*
X0588925Y0249992D02*
X0517750Y0249992D01*
X0517750Y0250791D02*
X0588841Y0250791D01*
X0588774Y0251427D02*
X0588774Y0251427D01*
X0588809Y0251589D02*
X0517750Y0251589D01*
X0517750Y0252388D02*
X0588978Y0252388D01*
X0589148Y0253186D02*
X0517750Y0253186D01*
X0517750Y0253985D02*
X0589318Y0253985D01*
X0589487Y0254783D02*
X0517750Y0254783D01*
X0517750Y0255582D02*
X0589791Y0255582D01*
X0590252Y0256380D02*
X0517750Y0256380D01*
X0517750Y0257179D02*
X0590713Y0257179D01*
X0591174Y0257977D02*
X0517750Y0257977D01*
X0517750Y0258776D02*
X0591745Y0258776D01*
X0591516Y0258570D02*
X0591516Y0258570D01*
X0592631Y0259574D02*
X0517750Y0259574D01*
X0517750Y0260373D02*
X0593518Y0260373D01*
X0594394Y0261162D02*
X0594394Y0261162D01*
X0594416Y0261171D02*
X0517750Y0261171D01*
X0517750Y0261970D02*
X0596210Y0261970D01*
X0597932Y0262737D02*
X0597932Y0262737D01*
X0598233Y0262768D02*
X0517750Y0262768D01*
X0517750Y0263567D02*
X0616136Y0263567D01*
X0616417Y0264366D02*
X0612761Y0264366D01*
X0611580Y0263797D02*
X0614547Y0265225D01*
X0614547Y0265225D01*
X0614547Y0265225D01*
X0616600Y0267800D01*
X0616600Y0267800D01*
X0617333Y0271011D01*
X0616600Y0274222D01*
X0614547Y0276797D01*
X0611580Y0278226D01*
X0608287Y0278226D01*
X0605319Y0276797D01*
X0605319Y0276797D01*
X0605319Y0276797D01*
X0603266Y0274222D01*
X0603266Y0274222D01*
X0602533Y0271011D01*
X0603266Y0267800D01*
X0605319Y0265225D01*
X0608287Y0263797D01*
X0611580Y0263797D01*
X0614420Y0265164D02*
X0616698Y0265164D01*
X0616978Y0265963D02*
X0615135Y0265963D01*
X0615772Y0266761D02*
X0617220Y0266761D01*
X0617460Y0267560D02*
X0616408Y0267560D01*
X0616728Y0268358D02*
X0617699Y0268358D01*
X0617939Y0269157D02*
X0616910Y0269157D01*
X0617092Y0269955D02*
X0618178Y0269955D01*
X0618418Y0270754D02*
X0617275Y0270754D01*
X0617210Y0271552D02*
X0618657Y0271552D01*
X0618894Y0272351D02*
X0617028Y0272351D01*
X0616845Y0273149D02*
X0619093Y0273149D01*
X0619293Y0273948D02*
X0616663Y0273948D01*
X0616600Y0274222D02*
X0616600Y0274222D01*
X0616182Y0274746D02*
X0619492Y0274746D01*
X0619684Y0275545D02*
X0615545Y0275545D01*
X0614909Y0276343D02*
X0619782Y0276343D01*
X0619677Y0277142D02*
X0613831Y0277142D01*
X0614547Y0276797D02*
X0614547Y0276797D01*
X0612172Y0277940D02*
X0619514Y0277940D01*
X0619251Y0278739D02*
X0542265Y0278739D01*
X0543017Y0279533D02*
X0543017Y0279533D01*
X0543020Y0279537D02*
X0618667Y0279537D01*
X0617962Y0280336D02*
X0543500Y0280336D01*
X0543980Y0281134D02*
X0616530Y0281134D01*
X0615333Y0281423D02*
X0615333Y0281423D01*
X0612865Y0281617D02*
X0612865Y0281617D01*
X0611998Y0281933D02*
X0544461Y0281933D01*
X0544941Y0282731D02*
X0609808Y0282731D01*
X0607910Y0283530D02*
X0545422Y0283530D01*
X0545902Y0284328D02*
X0606794Y0284328D01*
X0605677Y0285127D02*
X0546383Y0285127D01*
X0546695Y0285646D02*
X0546695Y0285646D01*
X0546789Y0285925D02*
X0604561Y0285925D01*
X0604187Y0286193D02*
X0604187Y0286193D01*
X0603759Y0286724D02*
X0547058Y0286724D01*
X0547327Y0287522D02*
X0603115Y0287522D01*
X0602472Y0288321D02*
X0547596Y0288321D01*
X0547865Y0289119D02*
X0601828Y0289119D01*
X0601184Y0289918D02*
X0548134Y0289918D01*
X0548403Y0290716D02*
X0600791Y0290716D01*
X0600447Y0291515D02*
X0548672Y0291515D01*
X0548942Y0292313D02*
X0600103Y0292313D01*
X0599758Y0293112D02*
X0549050Y0293112D01*
X0549137Y0293910D02*
X0599414Y0293910D01*
X0599104Y0294709D02*
X0549223Y0294709D01*
X0549310Y0295507D02*
X0598995Y0295507D01*
X0598886Y0296306D02*
X0549397Y0296306D01*
X0549484Y0297104D02*
X0598777Y0297104D01*
X0598668Y0297903D02*
X0549571Y0297903D01*
X0549658Y0298701D02*
X0598559Y0298701D01*
X0598450Y0299500D02*
X0598450Y0299500D01*
X0599119Y0304406D01*
X0599119Y0304406D01*
X0601079Y0308952D01*
X0601079Y0308952D01*
X0604187Y0312807D01*
X0604187Y0312807D01*
X0608213Y0315687D01*
X0608213Y0315687D01*
X0612865Y0317383D01*
X0612865Y0317383D01*
X0615252Y0317570D01*
X0615333Y0317577D01*
X0616357Y0317769D01*
X0618166Y0318778D01*
X0619389Y0320450D01*
X0619803Y0322480D01*
X0619677Y0323514D01*
X0619677Y0323515D01*
X0618882Y0326698D01*
X0616996Y0332986D01*
X0615908Y0336082D01*
X0615908Y0336082D01*
X0615439Y0337025D01*
X0613953Y0338501D01*
X0611983Y0339213D01*
X0609897Y0339028D01*
X0608933Y0338604D01*
X0608431Y0338314D01*
X0608431Y0338314D01*
X0606748Y0337342D01*
X0606748Y0337342D01*
X0605573Y0336664D01*
X0605573Y0336664D01*
X0601784Y0335858D01*
X0601784Y0335858D01*
X0597932Y0336263D01*
X0597932Y0336263D01*
X0594394Y0337838D01*
X0594394Y0337838D01*
X0591516Y0340430D01*
X0591516Y0340430D01*
X0589579Y0343784D01*
X0588774Y0347573D01*
X0589179Y0351424D01*
X0590754Y0354963D01*
X0593346Y0357841D01*
X0593346Y0357841D01*
X0595023Y0358809D01*
X0595525Y0359099D01*
X0595525Y0359099D01*
X0596204Y0359491D01*
X0596204Y0359491D01*
X0596706Y0359781D01*
X0597556Y0360404D01*
X0598759Y0362118D01*
X0599127Y0364180D01*
X0598592Y0366204D01*
X0598010Y0367082D01*
X0598010Y0367083D01*
X0594545Y0371044D01*
X0587044Y0378427D01*
X0578846Y0385026D01*
X0570033Y0390778D01*
X0560691Y0395624D01*
X0550913Y0399517D01*
X0546064Y0401040D01*
X0517750Y0401040D01*
X0517750Y0398668D01*
X0518286Y0398668D01*
X0521254Y0397873D01*
X0523914Y0396336D01*
X0526086Y0394164D01*
X0527623Y0391504D01*
X0528418Y0388536D01*
X0528418Y0385464D01*
X0527623Y0382496D01*
X0526086Y0379836D01*
X0523914Y0377663D01*
X0521254Y0376127D01*
X0518397Y0375362D01*
X0518620Y0375362D01*
X0522075Y0373931D01*
X0524719Y0371287D01*
X0526150Y0367832D01*
X0526150Y0364092D01*
X0524719Y0360637D01*
X0522075Y0357993D01*
X0518620Y0356562D01*
X0517750Y0356562D01*
X0517750Y0332404D01*
X0518536Y0332446D01*
X0518536Y0332446D01*
X0525577Y0331292D01*
X0525577Y0331292D01*
X0532205Y0328651D01*
X0532205Y0328651D01*
X0538110Y0324647D01*
X0543017Y0319467D01*
X0543017Y0319467D01*
X0546695Y0313354D01*
X0548973Y0306593D01*
X0549745Y0299500D01*
X0549658Y0300299D02*
X0598559Y0300299D01*
X0598668Y0301097D02*
X0549571Y0301097D01*
X0549484Y0301896D02*
X0598777Y0301896D01*
X0598886Y0302694D02*
X0549397Y0302694D01*
X0549310Y0303493D02*
X0598995Y0303493D01*
X0599104Y0304291D02*
X0549223Y0304291D01*
X0549137Y0305090D02*
X0599414Y0305090D01*
X0599758Y0305888D02*
X0549050Y0305888D01*
X0548942Y0306687D02*
X0600103Y0306687D01*
X0600447Y0307485D02*
X0548673Y0307485D01*
X0548403Y0308284D02*
X0600791Y0308284D01*
X0601184Y0309082D02*
X0548134Y0309082D01*
X0547865Y0309881D02*
X0601828Y0309881D01*
X0602472Y0310679D02*
X0547596Y0310679D01*
X0547327Y0311478D02*
X0603115Y0311478D01*
X0603759Y0312276D02*
X0547058Y0312276D01*
X0546789Y0313075D02*
X0604561Y0313075D01*
X0604187Y0312807D02*
X0604187Y0312807D01*
X0605677Y0313873D02*
X0546383Y0313873D01*
X0545902Y0314672D02*
X0606794Y0314672D01*
X0607910Y0315470D02*
X0545422Y0315470D01*
X0544941Y0316269D02*
X0609808Y0316269D01*
X0611998Y0317067D02*
X0544461Y0317067D01*
X0543980Y0317866D02*
X0616530Y0317866D01*
X0617962Y0318664D02*
X0543500Y0318664D01*
X0543020Y0319463D02*
X0618667Y0319463D01*
X0619251Y0320261D02*
X0542265Y0320261D01*
X0541508Y0321060D02*
X0607694Y0321060D01*
X0608287Y0320774D02*
X0611580Y0320774D01*
X0614547Y0322203D01*
X0614547Y0322203D01*
X0614547Y0322203D01*
X0616600Y0324778D01*
X0616600Y0324778D01*
X0617333Y0327989D01*
X0616600Y0331200D01*
X0614547Y0333775D01*
X0611580Y0335203D01*
X0608287Y0335203D01*
X0605319Y0333775D01*
X0605319Y0333775D01*
X0603266Y0331200D01*
X0602533Y0327989D01*
X0603266Y0324778D01*
X0605319Y0322203D01*
X0608287Y0320774D01*
X0606036Y0321858D02*
X0540752Y0321858D01*
X0539996Y0322657D02*
X0604958Y0322657D01*
X0605319Y0322203D02*
X0605319Y0322203D01*
X0604321Y0323455D02*
X0539239Y0323455D01*
X0538483Y0324254D02*
X0603684Y0324254D01*
X0603266Y0324778D02*
X0603266Y0324778D01*
X0603203Y0325052D02*
X0537513Y0325052D01*
X0536335Y0325851D02*
X0603021Y0325851D01*
X0602839Y0326649D02*
X0535157Y0326649D01*
X0533979Y0327448D02*
X0602657Y0327448D01*
X0602533Y0327989D02*
X0602533Y0327989D01*
X0602592Y0328246D02*
X0532802Y0328246D01*
X0531216Y0329045D02*
X0602774Y0329045D01*
X0602956Y0329843D02*
X0529212Y0329843D01*
X0527208Y0330642D02*
X0603139Y0330642D01*
X0603266Y0331200D02*
X0603266Y0331200D01*
X0603458Y0331440D02*
X0524671Y0331440D01*
X0519800Y0332239D02*
X0604095Y0332239D01*
X0604732Y0333037D02*
X0517750Y0333037D01*
X0517750Y0333836D02*
X0605447Y0333836D01*
X0607105Y0334634D02*
X0517750Y0334634D01*
X0517750Y0335433D02*
X0616136Y0335433D01*
X0616417Y0334634D02*
X0612761Y0334634D01*
X0614420Y0333836D02*
X0616698Y0333836D01*
X0616978Y0333037D02*
X0615135Y0333037D01*
X0614547Y0333775D02*
X0614547Y0333775D01*
X0615772Y0332239D02*
X0617220Y0332239D01*
X0617460Y0331440D02*
X0616408Y0331440D01*
X0616600Y0331200D02*
X0616600Y0331200D01*
X0616728Y0330642D02*
X0617699Y0330642D01*
X0617939Y0329843D02*
X0616910Y0329843D01*
X0617092Y0329045D02*
X0618178Y0329045D01*
X0618417Y0328246D02*
X0617275Y0328246D01*
X0617333Y0327989D02*
X0617333Y0327989D01*
X0617210Y0327448D02*
X0618657Y0327448D01*
X0618894Y0326649D02*
X0617028Y0326649D01*
X0616845Y0325851D02*
X0619093Y0325851D01*
X0619293Y0325052D02*
X0616663Y0325052D01*
X0616182Y0324254D02*
X0619492Y0324254D01*
X0619684Y0323455D02*
X0615545Y0323455D01*
X0614909Y0322657D02*
X0619782Y0322657D01*
X0619677Y0321858D02*
X0613831Y0321858D01*
X0612172Y0321060D02*
X0619514Y0321060D01*
X0615834Y0336232D02*
X0603540Y0336232D01*
X0606207Y0337030D02*
X0615433Y0337030D01*
X0614630Y0337829D02*
X0607591Y0337829D01*
X0608986Y0338627D02*
X0613604Y0338627D01*
X0598233Y0336232D02*
X0517750Y0336232D01*
X0517750Y0337030D02*
X0596210Y0337030D01*
X0594416Y0337829D02*
X0517750Y0337829D01*
X0517750Y0338627D02*
X0593518Y0338627D01*
X0592631Y0339426D02*
X0517750Y0339426D01*
X0517750Y0340224D02*
X0591745Y0340224D01*
X0591174Y0341023D02*
X0517750Y0341023D01*
X0517750Y0341821D02*
X0590713Y0341821D01*
X0590252Y0342620D02*
X0517750Y0342620D01*
X0517750Y0343418D02*
X0589791Y0343418D01*
X0589487Y0344217D02*
X0517750Y0344217D01*
X0517750Y0345015D02*
X0589318Y0345015D01*
X0589148Y0345814D02*
X0517750Y0345814D01*
X0517750Y0346612D02*
X0588978Y0346612D01*
X0588809Y0347411D02*
X0517750Y0347411D01*
X0517750Y0348209D02*
X0588841Y0348209D01*
X0588925Y0349008D02*
X0517750Y0349008D01*
X0517750Y0349806D02*
X0589009Y0349806D01*
X0589093Y0350605D02*
X0517750Y0350605D01*
X0517750Y0351403D02*
X0589177Y0351403D01*
X0589525Y0352202D02*
X0517750Y0352202D01*
X0517750Y0353000D02*
X0589881Y0353000D01*
X0590236Y0353799D02*
X0517750Y0353799D01*
X0517750Y0354597D02*
X0590592Y0354597D01*
X0591144Y0355396D02*
X0517750Y0355396D01*
X0517750Y0356194D02*
X0591863Y0356194D01*
X0592582Y0356993D02*
X0519660Y0356993D01*
X0521588Y0357791D02*
X0593301Y0357791D01*
X0594643Y0358590D02*
X0522671Y0358590D01*
X0523470Y0359388D02*
X0596026Y0359388D01*
X0597260Y0360187D02*
X0524268Y0360187D01*
X0524863Y0360985D02*
X0597964Y0360985D01*
X0598525Y0361784D02*
X0525194Y0361784D01*
X0525525Y0362582D02*
X0598842Y0362582D01*
X0598985Y0363381D02*
X0525855Y0363381D01*
X0526150Y0364179D02*
X0599127Y0364179D01*
X0598916Y0364978D02*
X0526150Y0364978D01*
X0526150Y0365776D02*
X0598705Y0365776D01*
X0598346Y0366575D02*
X0526150Y0366575D01*
X0526150Y0367373D02*
X0597756Y0367373D01*
X0597057Y0368172D02*
X0526009Y0368172D01*
X0525678Y0368970D02*
X0596359Y0368970D01*
X0595660Y0369769D02*
X0525348Y0369769D01*
X0525017Y0370568D02*
X0594962Y0370568D01*
X0594218Y0371366D02*
X0524640Y0371366D01*
X0523841Y0372165D02*
X0593407Y0372165D01*
X0592595Y0372963D02*
X0523043Y0372963D01*
X0522244Y0373762D02*
X0591784Y0373762D01*
X0590973Y0374560D02*
X0520556Y0374560D01*
X0521305Y0376157D02*
X0589350Y0376157D01*
X0590161Y0375359D02*
X0518628Y0375359D01*
X0515103Y0375362D02*
X0514880Y0375362D01*
X0511425Y0373931D01*
X0508781Y0371287D01*
X0507350Y0367832D01*
X0507350Y0364092D01*
X0508781Y0360637D01*
X0511425Y0357993D01*
X0514880Y0356562D01*
X0515750Y0356562D01*
X0515750Y0332295D01*
X0511412Y0332060D01*
X0504537Y0330151D01*
X0498234Y0326809D01*
X0492796Y0322190D01*
X0488478Y0316510D01*
X0485483Y0310035D01*
X0483949Y0303067D01*
X0484042Y0303493D02*
X0434505Y0303493D01*
X0434396Y0304291D02*
X0484218Y0304291D01*
X0484394Y0305090D02*
X0434086Y0305090D01*
X0434381Y0304406D02*
X0432421Y0308952D01*
X0429313Y0312807D01*
X0425287Y0315687D01*
X0425287Y0315687D01*
X0420635Y0317383D01*
X0418167Y0317577D01*
X0417143Y0317769D01*
X0415334Y0318778D01*
X0414111Y0320450D01*
X0413697Y0322480D01*
X0413823Y0323514D01*
X0413823Y0323514D01*
X0414618Y0326698D01*
X0416504Y0332986D01*
X0417592Y0336082D01*
X0417592Y0336082D01*
X0418061Y0337025D01*
X0419547Y0338501D01*
X0421517Y0339213D01*
X0423603Y0339028D01*
X0424567Y0338604D01*
X0424892Y0338416D01*
X0425069Y0338314D01*
X0426752Y0337342D01*
X0426752Y0337342D01*
X0427927Y0336664D01*
X0431716Y0335858D01*
X0435568Y0336263D01*
X0439106Y0337838D01*
X0441984Y0340430D01*
X0443921Y0343784D01*
X0444726Y0347573D01*
X0444321Y0351424D01*
X0444321Y0351424D01*
X0442746Y0354963D01*
X0440154Y0357841D01*
X0438477Y0358809D01*
X0438029Y0359068D01*
X0436793Y0359781D01*
X0435944Y0360404D01*
X0434741Y0362118D01*
X0434373Y0364180D01*
X0434908Y0366204D01*
X0435490Y0367083D01*
X0438955Y0371044D01*
X0446456Y0378427D01*
X0454654Y0385026D01*
X0463467Y0390778D01*
X0472809Y0395624D01*
X0482587Y0399517D01*
X0487436Y0401040D01*
X0515750Y0401040D01*
X0515750Y0398668D01*
X0515214Y0398668D01*
X0512246Y0397873D01*
X0509586Y0396336D01*
X0507413Y0394164D01*
X0505877Y0391504D01*
X0505082Y0388536D01*
X0505082Y0385464D01*
X0505877Y0382496D01*
X0507413Y0379836D01*
X0509586Y0377663D01*
X0512246Y0376127D01*
X0515103Y0375362D01*
X0514872Y0375359D02*
X0443339Y0375359D01*
X0444150Y0376157D02*
X0512195Y0376157D01*
X0510812Y0376956D02*
X0444961Y0376956D01*
X0445773Y0377754D02*
X0509495Y0377754D01*
X0508697Y0378553D02*
X0446613Y0378553D01*
X0447605Y0379351D02*
X0507898Y0379351D01*
X0507232Y0380150D02*
X0448597Y0380150D01*
X0449588Y0380948D02*
X0506771Y0380948D01*
X0506310Y0381747D02*
X0450580Y0381747D01*
X0451572Y0382545D02*
X0505864Y0382545D01*
X0505650Y0383344D02*
X0452564Y0383344D01*
X0453556Y0384142D02*
X0505436Y0384142D01*
X0505222Y0384941D02*
X0454548Y0384941D01*
X0455747Y0385739D02*
X0505082Y0385739D01*
X0505082Y0386538D02*
X0456970Y0386538D01*
X0458194Y0387336D02*
X0505082Y0387336D01*
X0505082Y0388135D02*
X0459418Y0388135D01*
X0460641Y0388933D02*
X0505189Y0388933D01*
X0505403Y0389732D02*
X0461865Y0389732D01*
X0463088Y0390530D02*
X0505617Y0390530D01*
X0505831Y0391329D02*
X0464530Y0391329D01*
X0466069Y0392127D02*
X0506238Y0392127D01*
X0506699Y0392926D02*
X0467608Y0392926D01*
X0469147Y0393724D02*
X0507160Y0393724D01*
X0507772Y0394523D02*
X0470687Y0394523D01*
X0472226Y0395321D02*
X0508571Y0395321D01*
X0509369Y0396120D02*
X0474054Y0396120D01*
X0476060Y0396918D02*
X0510594Y0396918D01*
X0511977Y0397717D02*
X0478065Y0397717D01*
X0480070Y0398515D02*
X0514646Y0398515D01*
X0515750Y0399314D02*
X0482075Y0399314D01*
X0484481Y0400112D02*
X0515750Y0400112D01*
X0515750Y0400911D02*
X0487024Y0400911D01*
X0517750Y0400911D02*
X0546476Y0400911D01*
X0549019Y0400112D02*
X0517750Y0400112D01*
X0517750Y0399314D02*
X0551425Y0399314D01*
X0553430Y0398515D02*
X0518854Y0398515D01*
X0521523Y0397717D02*
X0555435Y0397717D01*
X0557440Y0396918D02*
X0522906Y0396918D01*
X0524131Y0396120D02*
X0559446Y0396120D01*
X0561274Y0395321D02*
X0524929Y0395321D01*
X0525728Y0394523D02*
X0562813Y0394523D01*
X0564353Y0393724D02*
X0526340Y0393724D01*
X0526801Y0392926D02*
X0565892Y0392926D01*
X0567431Y0392127D02*
X0527262Y0392127D01*
X0527669Y0391329D02*
X0568970Y0391329D01*
X0570412Y0390530D02*
X0527883Y0390530D01*
X0528097Y0389732D02*
X0571635Y0389732D01*
X0572859Y0388933D02*
X0528311Y0388933D01*
X0528418Y0388135D02*
X0574082Y0388135D01*
X0575306Y0387336D02*
X0528418Y0387336D01*
X0528418Y0386538D02*
X0576530Y0386538D01*
X0577753Y0385739D02*
X0528418Y0385739D01*
X0528278Y0384941D02*
X0578952Y0384941D01*
X0579944Y0384142D02*
X0528064Y0384142D01*
X0527850Y0383344D02*
X0580936Y0383344D01*
X0581928Y0382545D02*
X0527636Y0382545D01*
X0527190Y0381747D02*
X0582920Y0381747D01*
X0583912Y0380948D02*
X0526729Y0380948D01*
X0526268Y0380150D02*
X0584903Y0380150D01*
X0585895Y0379351D02*
X0525602Y0379351D01*
X0524803Y0378553D02*
X0586887Y0378553D01*
X0587727Y0377754D02*
X0524005Y0377754D01*
X0522688Y0376956D02*
X0588538Y0376956D01*
X0512944Y0374560D02*
X0442527Y0374560D01*
X0441716Y0373762D02*
X0511256Y0373762D01*
X0510457Y0372963D02*
X0440905Y0372963D01*
X0440093Y0372165D02*
X0509659Y0372165D01*
X0508860Y0371366D02*
X0439282Y0371366D01*
X0438538Y0370568D02*
X0508483Y0370568D01*
X0508152Y0369769D02*
X0437840Y0369769D01*
X0437141Y0368970D02*
X0507822Y0368970D01*
X0507491Y0368172D02*
X0436443Y0368172D01*
X0435744Y0367373D02*
X0507350Y0367373D01*
X0507350Y0366575D02*
X0435154Y0366575D01*
X0435490Y0367083D02*
X0435490Y0367083D01*
X0434795Y0365776D02*
X0507350Y0365776D01*
X0507350Y0364978D02*
X0434584Y0364978D01*
X0434373Y0364179D02*
X0507350Y0364179D01*
X0507645Y0363381D02*
X0434515Y0363381D01*
X0434658Y0362582D02*
X0507975Y0362582D01*
X0508306Y0361784D02*
X0434975Y0361784D01*
X0435536Y0360985D02*
X0508637Y0360985D01*
X0509232Y0360187D02*
X0436240Y0360187D01*
X0437474Y0359388D02*
X0510030Y0359388D01*
X0510829Y0358590D02*
X0438857Y0358590D01*
X0440154Y0357841D02*
X0440154Y0357841D01*
X0440199Y0357791D02*
X0511912Y0357791D01*
X0513840Y0356993D02*
X0440918Y0356993D01*
X0441637Y0356194D02*
X0515750Y0356194D01*
X0515750Y0355396D02*
X0442356Y0355396D01*
X0442746Y0354963D02*
X0442746Y0354963D01*
X0442908Y0354597D02*
X0515750Y0354597D01*
X0515750Y0353799D02*
X0443264Y0353799D01*
X0443619Y0353000D02*
X0515750Y0353000D01*
X0515750Y0352202D02*
X0443975Y0352202D01*
X0444323Y0351403D02*
X0515750Y0351403D01*
X0515750Y0350605D02*
X0444407Y0350605D01*
X0444491Y0349806D02*
X0515750Y0349806D01*
X0515750Y0349008D02*
X0444575Y0349008D01*
X0444659Y0348209D02*
X0515750Y0348209D01*
X0515750Y0347411D02*
X0444691Y0347411D01*
X0444726Y0347573D02*
X0444726Y0347573D01*
X0444522Y0346612D02*
X0515750Y0346612D01*
X0515750Y0345814D02*
X0444352Y0345814D01*
X0444182Y0345015D02*
X0515750Y0345015D01*
X0515750Y0344217D02*
X0444013Y0344217D01*
X0443921Y0343784D02*
X0443921Y0343784D01*
X0443709Y0343418D02*
X0515750Y0343418D01*
X0515750Y0342620D02*
X0443248Y0342620D01*
X0442787Y0341821D02*
X0515750Y0341821D01*
X0515750Y0341023D02*
X0442326Y0341023D01*
X0441984Y0340430D02*
X0441984Y0340430D01*
X0441755Y0340224D02*
X0515750Y0340224D01*
X0515750Y0339426D02*
X0440869Y0339426D01*
X0439982Y0338627D02*
X0515750Y0338627D01*
X0515750Y0337829D02*
X0439084Y0337829D01*
X0439106Y0337838D02*
X0439106Y0337838D01*
X0437290Y0337030D02*
X0515750Y0337030D01*
X0515750Y0336232D02*
X0435267Y0336232D01*
X0435568Y0336263D02*
X0435568Y0336263D01*
X0431716Y0335858D02*
X0431716Y0335858D01*
X0429960Y0336232D02*
X0417666Y0336232D01*
X0417364Y0335433D02*
X0515750Y0335433D01*
X0515750Y0334634D02*
X0426395Y0334634D01*
X0425213Y0335203D02*
X0421920Y0335203D01*
X0418953Y0333775D01*
X0418953Y0333775D01*
X0418953Y0333775D01*
X0416900Y0331200D01*
X0416167Y0327989D01*
X0416900Y0324778D01*
X0418953Y0322203D01*
X0421920Y0320774D01*
X0425213Y0320774D01*
X0428181Y0322203D01*
X0430234Y0324778D01*
X0430234Y0324778D01*
X0430967Y0327989D01*
X0430234Y0331200D01*
X0428181Y0333775D01*
X0428181Y0333775D01*
X0425213Y0335203D01*
X0425909Y0337829D02*
X0418870Y0337829D01*
X0418066Y0337030D02*
X0427293Y0337030D01*
X0427927Y0336664D02*
X0427927Y0336664D01*
X0428053Y0333836D02*
X0515750Y0333836D01*
X0515750Y0333037D02*
X0428768Y0333037D01*
X0429405Y0332239D02*
X0514715Y0332239D01*
X0511412Y0332060D02*
X0511412Y0332060D01*
X0509181Y0331440D02*
X0430042Y0331440D01*
X0430234Y0331200D02*
X0430234Y0331200D01*
X0430361Y0330642D02*
X0506305Y0330642D01*
X0504537Y0330151D02*
X0504537Y0330151D01*
X0503957Y0329843D02*
X0430544Y0329843D01*
X0430726Y0329045D02*
X0502451Y0329045D01*
X0500945Y0328246D02*
X0430908Y0328246D01*
X0430843Y0327448D02*
X0499439Y0327448D01*
X0498234Y0326809D02*
X0498234Y0326809D01*
X0498046Y0326649D02*
X0430661Y0326649D01*
X0430479Y0325851D02*
X0497106Y0325851D01*
X0496166Y0325052D02*
X0430297Y0325052D01*
X0429816Y0324254D02*
X0495226Y0324254D01*
X0494285Y0323455D02*
X0429179Y0323455D01*
X0428542Y0322657D02*
X0493345Y0322657D01*
X0492796Y0322190D02*
X0492796Y0322190D01*
X0492796Y0322190D01*
X0492544Y0321858D02*
X0427464Y0321858D01*
X0428181Y0322203D02*
X0428181Y0322203D01*
X0425806Y0321060D02*
X0491937Y0321060D01*
X0491330Y0320261D02*
X0414249Y0320261D01*
X0413986Y0321060D02*
X0421328Y0321060D01*
X0419669Y0321858D02*
X0413823Y0321858D01*
X0413718Y0322657D02*
X0418591Y0322657D01*
X0418953Y0322203D02*
X0418953Y0322203D01*
X0417955Y0323455D02*
X0413816Y0323455D01*
X0414008Y0324254D02*
X0417318Y0324254D01*
X0416900Y0324778D02*
X0416900Y0324778D01*
X0416837Y0325052D02*
X0414207Y0325052D01*
X0414407Y0325851D02*
X0416655Y0325851D01*
X0416472Y0326649D02*
X0414606Y0326649D01*
X0414843Y0327448D02*
X0416290Y0327448D01*
X0416167Y0327989D02*
X0416167Y0327989D01*
X0416225Y0328246D02*
X0415082Y0328246D01*
X0415322Y0329045D02*
X0416408Y0329045D01*
X0416590Y0329843D02*
X0415561Y0329843D01*
X0415801Y0330642D02*
X0416772Y0330642D01*
X0416900Y0331200D02*
X0416900Y0331200D01*
X0417092Y0331440D02*
X0416040Y0331440D01*
X0416280Y0332239D02*
X0417728Y0332239D01*
X0418365Y0333037D02*
X0416522Y0333037D01*
X0416802Y0333836D02*
X0419080Y0333836D01*
X0420739Y0334634D02*
X0417083Y0334634D01*
X0419896Y0338627D02*
X0424514Y0338627D01*
X0425069Y0338314D02*
X0425069Y0338314D01*
X0414833Y0319463D02*
X0490723Y0319463D01*
X0490116Y0318664D02*
X0415538Y0318664D01*
X0416970Y0317866D02*
X0489509Y0317866D01*
X0488902Y0317067D02*
X0421502Y0317067D01*
X0420635Y0317383D02*
X0420635Y0317383D01*
X0418167Y0317577D02*
X0418167Y0317577D01*
X0423692Y0316269D02*
X0488367Y0316269D01*
X0488478Y0316510D02*
X0488478Y0316510D01*
X0487997Y0315470D02*
X0425590Y0315470D01*
X0426706Y0314672D02*
X0487628Y0314672D01*
X0487258Y0313873D02*
X0427823Y0313873D01*
X0428939Y0313075D02*
X0486889Y0313075D01*
X0486519Y0312276D02*
X0429741Y0312276D01*
X0429313Y0312807D02*
X0429313Y0312807D01*
X0429313Y0312807D01*
X0430385Y0311478D02*
X0486150Y0311478D01*
X0485781Y0310679D02*
X0431028Y0310679D01*
X0431672Y0309881D02*
X0485449Y0309881D01*
X0485483Y0310035D02*
X0485483Y0310035D01*
X0485273Y0309082D02*
X0432316Y0309082D01*
X0432421Y0308952D02*
X0432421Y0308952D01*
X0432709Y0308284D02*
X0485097Y0308284D01*
X0484921Y0307485D02*
X0433053Y0307485D01*
X0433397Y0306687D02*
X0484746Y0306687D01*
X0484570Y0305888D02*
X0433742Y0305888D01*
X0434381Y0304406D02*
X0434381Y0304406D01*
X0435050Y0299500D01*
X0435050Y0299500D01*
X0434941Y0298701D02*
X0483949Y0298701D01*
X0483949Y0297903D02*
X0434832Y0297903D01*
X0434723Y0297104D02*
X0483949Y0297104D01*
X0483949Y0296306D02*
X0434614Y0296306D01*
X0434505Y0295507D02*
X0484042Y0295507D01*
X0484218Y0294709D02*
X0434396Y0294709D01*
X0434086Y0293910D02*
X0484394Y0293910D01*
X0484570Y0293112D02*
X0433742Y0293112D01*
X0433397Y0292313D02*
X0484746Y0292313D01*
X0484921Y0291515D02*
X0433053Y0291515D01*
X0432709Y0290716D02*
X0485097Y0290716D01*
X0485273Y0289918D02*
X0432316Y0289918D01*
X0432421Y0290048D02*
X0432421Y0290048D01*
X0431672Y0289119D02*
X0485449Y0289119D01*
X0485781Y0288321D02*
X0431028Y0288321D01*
X0430385Y0287522D02*
X0486150Y0287522D01*
X0486519Y0286724D02*
X0429741Y0286724D01*
X0428939Y0285925D02*
X0486889Y0285925D01*
X0487258Y0285127D02*
X0427823Y0285127D01*
X0426706Y0284328D02*
X0487628Y0284328D01*
X0487997Y0283530D02*
X0425590Y0283530D01*
X0425287Y0283313D02*
X0425287Y0283313D01*
X0423692Y0282731D02*
X0488367Y0282731D01*
X0488902Y0281933D02*
X0421502Y0281933D01*
X0420635Y0281617D02*
X0420635Y0281617D01*
X0421920Y0278226D02*
X0418953Y0276797D01*
X0418953Y0276797D01*
X0416899Y0274222D01*
X0416166Y0271011D01*
X0416899Y0267800D01*
X0418953Y0265225D01*
X0421920Y0263796D01*
X0425214Y0263796D01*
X0428181Y0265225D01*
X0428181Y0265225D01*
X0428181Y0265225D01*
X0430234Y0267800D01*
X0430967Y0271011D01*
X0430234Y0274222D01*
X0428181Y0276797D01*
X0428181Y0276797D01*
X0425214Y0278226D01*
X0421920Y0278226D01*
X0421327Y0277940D02*
X0413986Y0277940D01*
X0413823Y0277142D02*
X0419668Y0277142D01*
X0418953Y0276797D02*
X0418953Y0276797D01*
X0418591Y0276343D02*
X0413718Y0276343D01*
X0413816Y0275545D02*
X0417954Y0275545D01*
X0417317Y0274746D02*
X0414008Y0274746D01*
X0414207Y0273948D02*
X0416837Y0273948D01*
X0416899Y0274222D02*
X0416899Y0274222D01*
X0416654Y0273149D02*
X0414407Y0273149D01*
X0414606Y0272351D02*
X0416472Y0272351D01*
X0416290Y0271552D02*
X0414843Y0271552D01*
X0415083Y0270754D02*
X0416225Y0270754D01*
X0416166Y0271011D02*
X0416166Y0271011D01*
X0416407Y0269955D02*
X0415322Y0269955D01*
X0415561Y0269157D02*
X0416590Y0269157D01*
X0416772Y0268358D02*
X0415801Y0268358D01*
X0416040Y0267560D02*
X0417091Y0267560D01*
X0416899Y0267800D02*
X0416899Y0267800D01*
X0416280Y0266761D02*
X0417728Y0266761D01*
X0418365Y0265963D02*
X0416522Y0265963D01*
X0416802Y0265164D02*
X0419079Y0265164D01*
X0418953Y0265225D02*
X0418953Y0265225D01*
X0420738Y0264366D02*
X0417083Y0264366D01*
X0417364Y0263567D02*
X0515750Y0263567D01*
X0515750Y0264366D02*
X0426396Y0264366D01*
X0428054Y0265164D02*
X0515750Y0265164D01*
X0515750Y0265963D02*
X0428769Y0265963D01*
X0429406Y0266761D02*
X0514715Y0266761D01*
X0517750Y0265963D02*
X0604732Y0265963D01*
X0605319Y0265225D02*
X0605319Y0265225D01*
X0605447Y0265164D02*
X0517750Y0265164D01*
X0517750Y0264366D02*
X0607105Y0264366D01*
X0606207Y0261970D02*
X0615434Y0261970D01*
X0615834Y0262768D02*
X0603540Y0262768D01*
X0601784Y0263142D02*
X0601784Y0263142D01*
X0604095Y0266761D02*
X0519800Y0266761D01*
X0518536Y0266554D02*
X0518536Y0266554D01*
X0515750Y0262768D02*
X0434782Y0262768D01*
X0436610Y0262446D02*
X0436610Y0262446D01*
X0437435Y0261970D02*
X0515750Y0261970D01*
X0515750Y0261171D02*
X0438818Y0261171D01*
X0440201Y0260373D02*
X0515750Y0260373D01*
X0515750Y0259574D02*
X0440945Y0259574D01*
X0440344Y0260290D02*
X0440344Y0260290D01*
X0441615Y0258776D02*
X0515750Y0258776D01*
X0515750Y0257977D02*
X0442285Y0257977D01*
X0442955Y0257179D02*
X0515750Y0257179D01*
X0515750Y0256380D02*
X0443337Y0256380D01*
X0443116Y0256987D02*
X0443116Y0256987D01*
X0443627Y0255582D02*
X0515750Y0255582D01*
X0515750Y0254783D02*
X0443918Y0254783D01*
X0444208Y0253985D02*
X0515750Y0253985D01*
X0515750Y0253186D02*
X0444499Y0253186D01*
X0444590Y0252388D02*
X0515750Y0252388D01*
X0515750Y0251589D02*
X0444590Y0251589D01*
X0444590Y0250791D02*
X0515750Y0250791D01*
X0515750Y0249992D02*
X0444590Y0249992D01*
X0444590Y0249194D02*
X0515750Y0249194D01*
X0515750Y0248395D02*
X0444507Y0248395D01*
X0444217Y0247597D02*
X0515750Y0247597D01*
X0515750Y0246798D02*
X0443926Y0246798D01*
X0443635Y0246000D02*
X0515750Y0246000D01*
X0515750Y0245201D02*
X0443345Y0245201D01*
X0443116Y0244572D02*
X0443116Y0244572D01*
X0442974Y0244403D02*
X0515750Y0244403D01*
X0512846Y0243604D02*
X0442304Y0243604D01*
X0441634Y0242806D02*
X0511142Y0242806D01*
X0509759Y0242007D02*
X0440964Y0242007D01*
X0440240Y0241209D02*
X0508887Y0241209D01*
X0508089Y0240410D02*
X0438857Y0240410D01*
X0437474Y0239612D02*
X0507342Y0239612D01*
X0506881Y0238813D02*
X0436240Y0238813D01*
X0435536Y0238015D02*
X0506420Y0238015D01*
X0505959Y0237216D02*
X0434975Y0237216D01*
X0434658Y0236418D02*
X0505701Y0236418D01*
X0505487Y0235619D02*
X0434515Y0235619D01*
X0434373Y0234821D02*
X0505274Y0234821D01*
X0505082Y0234022D02*
X0434584Y0234022D01*
X0434795Y0233224D02*
X0505082Y0233224D01*
X0505082Y0232425D02*
X0435154Y0232425D01*
X0435740Y0231627D02*
X0505082Y0231627D01*
X0505138Y0230828D02*
X0436427Y0230828D01*
X0437115Y0230030D02*
X0505352Y0230030D01*
X0505566Y0229231D02*
X0437802Y0229231D01*
X0438561Y0228432D02*
X0505780Y0228432D01*
X0506128Y0227634D02*
X0439322Y0227634D01*
X0440083Y0226835D02*
X0506589Y0226835D01*
X0507050Y0226037D02*
X0440844Y0226037D01*
X0441605Y0225238D02*
X0507582Y0225238D01*
X0508380Y0224440D02*
X0442366Y0224440D01*
X0443167Y0223641D02*
X0509179Y0223641D01*
X0510264Y0222843D02*
X0444010Y0222843D01*
X0444852Y0222044D02*
X0511647Y0222044D01*
X0513935Y0221246D02*
X0445707Y0221246D01*
X0445346Y0221576D02*
X0445346Y0221576D01*
X0446578Y0220447D02*
X0515750Y0220447D01*
X0515750Y0219649D02*
X0447449Y0219649D01*
X0448321Y0218850D02*
X0515750Y0218850D01*
X0515750Y0218052D02*
X0449192Y0218052D01*
X0450064Y0217253D02*
X0515750Y0217253D01*
X0515750Y0216455D02*
X0450935Y0216455D01*
X0451807Y0215656D02*
X0515750Y0215656D01*
X0515750Y0214858D02*
X0452678Y0214858D01*
X0453549Y0214059D02*
X0515750Y0214059D01*
X0515750Y0213261D02*
X0454421Y0213261D01*
X0437296Y0239509D02*
X0437296Y0239509D01*
X0432364Y0263195D02*
X0432364Y0263195D01*
X0429945Y0262768D02*
X0417666Y0262768D01*
X0417592Y0262918D02*
X0417592Y0262918D01*
X0418066Y0261970D02*
X0427293Y0261970D01*
X0426752Y0261658D02*
X0426752Y0261658D01*
X0425909Y0261171D02*
X0418870Y0261171D01*
X0419896Y0260373D02*
X0424514Y0260373D01*
X0430043Y0267560D02*
X0509181Y0267560D01*
X0506305Y0268358D02*
X0430362Y0268358D01*
X0430234Y0267800D02*
X0430234Y0267800D01*
X0430544Y0269157D02*
X0503957Y0269157D01*
X0502451Y0269955D02*
X0430726Y0269955D01*
X0430908Y0270754D02*
X0500945Y0270754D01*
X0499439Y0271552D02*
X0430844Y0271552D01*
X0430662Y0272351D02*
X0498046Y0272351D01*
X0498234Y0272191D02*
X0498234Y0272191D01*
X0497106Y0273149D02*
X0430479Y0273149D01*
X0430297Y0273948D02*
X0496166Y0273948D01*
X0495225Y0274746D02*
X0429816Y0274746D01*
X0430234Y0274222D02*
X0430234Y0274222D01*
X0429180Y0275545D02*
X0494285Y0275545D01*
X0493345Y0276343D02*
X0428543Y0276343D01*
X0427465Y0277142D02*
X0492544Y0277142D01*
X0492796Y0276810D02*
X0492796Y0276810D01*
X0491937Y0277940D02*
X0425807Y0277940D01*
X0416970Y0281134D02*
X0489509Y0281134D01*
X0490116Y0280336D02*
X0415538Y0280336D01*
X0414833Y0279537D02*
X0490723Y0279537D01*
X0491330Y0278739D02*
X0414249Y0278739D01*
X0524671Y0267560D02*
X0603458Y0267560D01*
X0603266Y0267800D02*
X0603266Y0267800D01*
X0603139Y0268358D02*
X0527208Y0268358D01*
X0525577Y0267708D02*
X0525577Y0267708D01*
X0529212Y0269157D02*
X0602956Y0269157D01*
X0602774Y0269955D02*
X0531216Y0269955D01*
X0532205Y0270349D02*
X0532205Y0270349D01*
X0532802Y0270754D02*
X0602592Y0270754D01*
X0602533Y0271011D02*
X0602533Y0271011D01*
X0602657Y0271552D02*
X0533979Y0271552D01*
X0535157Y0272351D02*
X0602839Y0272351D01*
X0603021Y0273149D02*
X0536335Y0273149D01*
X0537513Y0273948D02*
X0603203Y0273948D01*
X0603684Y0274746D02*
X0538483Y0274746D01*
X0538110Y0274353D02*
X0538110Y0274353D01*
X0538110Y0274353D01*
X0539239Y0275545D02*
X0604321Y0275545D01*
X0604958Y0276343D02*
X0539996Y0276343D01*
X0540752Y0277142D02*
X0606036Y0277142D01*
X0607694Y0277940D02*
X0541508Y0277940D01*
X0607591Y0261171D02*
X0614630Y0261171D01*
X0613604Y0260373D02*
X0608986Y0260373D01*
X0608431Y0260686D02*
X0608431Y0260686D01*
M02*
