G75*
%MOIN*%
%OFA0B0*%
%FSLAX25Y25*%
%IPPOS*%
%LPD*%
%AMOC8*
5,1,8,0,0,1.08239X$1,22.5*
%
%ADD10C,0.19535*%
%ADD11C,0.13630*%
%ADD12C,0.00800*%
D10*
X0182345Y0100433D03*
X0156345Y0219933D03*
X0182345Y0225933D03*
X0208345Y0219933D03*
D11*
X0197945Y0074233D03*
X0182345Y0074233D03*
X0166745Y0074233D03*
D12*
X0163947Y0068626D02*
X0156251Y0076323D01*
X0156251Y0079482D01*
X0155402Y0081531D01*
X0154963Y0081970D01*
X0154963Y0081970D01*
X0154534Y0082399D01*
X0154274Y0082659D01*
X0130239Y0106695D01*
X0132343Y0105823D01*
X0135128Y0105823D01*
X0137700Y0106889D01*
X0139669Y0108858D01*
X0140735Y0111431D01*
X0140735Y0114215D01*
X0139669Y0116788D01*
X0137700Y0118757D01*
X0135128Y0119823D01*
X0132343Y0119823D01*
X0129770Y0118757D01*
X0127801Y0116788D01*
X0126735Y0114215D01*
X0126735Y0111431D01*
X0127553Y0109457D01*
X0126096Y0110995D01*
X0120951Y0117403D01*
X0118647Y0120807D01*
X0118413Y0121273D01*
X0118250Y0122298D01*
X0118509Y0123303D01*
X0119147Y0124122D01*
X0119577Y0124418D01*
X0132073Y0131232D01*
X0132760Y0131606D01*
X0132760Y0131606D01*
X0134461Y0133492D01*
X0134461Y0133492D01*
X0135441Y0135836D01*
X0135590Y0138371D01*
X0135265Y0139503D01*
X0130958Y0154525D01*
X0130958Y0154525D01*
X0130926Y0154638D01*
X0130689Y0155462D01*
X0130473Y0156214D01*
X0129004Y0158286D01*
X0126931Y0159754D01*
X0124489Y0160452D01*
X0123221Y0160376D01*
X0122735Y0160347D01*
X0109986Y0159590D01*
X0109986Y0159591D01*
X0109499Y0159562D01*
X0108981Y0159584D01*
X0108011Y0159936D01*
X0107259Y0160644D01*
X0106850Y0161592D01*
X0106797Y0162108D01*
X0106798Y0162133D01*
X0106947Y0166239D01*
X0107915Y0174400D01*
X0108355Y0176305D01*
X0108355Y0175511D01*
X0109421Y0172938D01*
X0111390Y0170969D01*
X0113963Y0169903D01*
X0116748Y0169903D01*
X0119320Y0170969D01*
X0121289Y0172938D01*
X0122355Y0175511D01*
X0122355Y0178295D01*
X0121289Y0180868D01*
X0119320Y0182837D01*
X0116748Y0183903D01*
X0113963Y0183903D01*
X0111390Y0182837D01*
X0109421Y0180868D01*
X0109394Y0180802D01*
X0109764Y0182407D01*
X0112471Y0190166D01*
X0114137Y0193923D01*
X0114409Y0194369D01*
X0115192Y0195051D01*
X0116181Y0195364D01*
X0117214Y0195257D01*
X0117692Y0195049D01*
X0129883Y0188180D01*
X0130911Y0187601D01*
X0134237Y0187359D01*
X0137348Y0188557D01*
X0137348Y0188557D01*
X0138164Y0189410D01*
X0138443Y0189702D01*
X0138500Y0189763D01*
X0138837Y0190115D01*
X0148694Y0200429D01*
X0149030Y0200781D01*
X0149936Y0201729D01*
X0150992Y0204129D01*
X0151164Y0206746D01*
X0150433Y0209264D01*
X0149947Y0209929D01*
X0141646Y0221292D01*
X0141645Y0221294D01*
X0141357Y0221687D01*
X0141092Y0222138D01*
X0140863Y0223154D01*
X0141057Y0224178D01*
X0141642Y0225039D01*
X0142053Y0225362D01*
X0142063Y0225369D01*
X0142076Y0225377D01*
X0145599Y0227518D01*
X0152965Y0231238D01*
X0160680Y0234168D01*
X0168658Y0236275D01*
X0172561Y0236984D01*
X0180439Y0236984D01*
X0178035Y0236340D01*
X0175488Y0234869D01*
X0173409Y0232790D01*
X0171938Y0230244D01*
X0171177Y0227403D01*
X0171177Y0224463D01*
X0171938Y0221622D01*
X0173409Y0219076D01*
X0175488Y0216997D01*
X0178035Y0215526D01*
X0180875Y0214765D01*
X0182345Y0214765D01*
X0182345Y0185393D01*
X0177829Y0185109D01*
X0177829Y0185109D01*
X0172083Y0183242D01*
X0172083Y0183242D01*
X0166981Y0180005D01*
X0162846Y0175600D01*
X0159935Y0170306D01*
X0159935Y0170306D01*
X0158432Y0164454D01*
X0158432Y0158412D01*
X0159935Y0152560D01*
X0162846Y0147266D01*
X0166981Y0142862D01*
X0172083Y0139624D01*
X0177829Y0137757D01*
X0182345Y0137473D01*
X0182345Y0111601D01*
X0180875Y0111601D01*
X0178035Y0110840D01*
X0175488Y0109369D01*
X0173409Y0107290D01*
X0171938Y0104744D01*
X0171177Y0101903D01*
X0171177Y0098963D01*
X0171938Y0096122D01*
X0173409Y0093576D01*
X0175488Y0091497D01*
X0178035Y0090026D01*
X0180875Y0089265D01*
X0182345Y0089265D01*
X0182345Y0082448D01*
X0180711Y0082448D01*
X0177692Y0081197D01*
X0175381Y0078886D01*
X0174130Y0075867D01*
X0174130Y0072599D01*
X0175381Y0069580D01*
X0176334Y0068626D01*
X0163947Y0068626D01*
X0163768Y0068806D02*
X0176155Y0068806D01*
X0175371Y0069604D02*
X0162969Y0069604D01*
X0162171Y0070403D02*
X0175040Y0070403D01*
X0174709Y0071201D02*
X0161372Y0071201D01*
X0160574Y0072000D02*
X0174378Y0072000D01*
X0174130Y0072798D02*
X0159775Y0072798D01*
X0158977Y0073597D02*
X0174130Y0073597D01*
X0174130Y0074395D02*
X0158178Y0074395D01*
X0157380Y0075194D02*
X0174130Y0075194D01*
X0174182Y0075992D02*
X0156581Y0075992D01*
X0156251Y0076791D02*
X0174513Y0076791D01*
X0174844Y0077589D02*
X0156251Y0077589D01*
X0156251Y0078388D02*
X0175174Y0078388D01*
X0175681Y0079186D02*
X0156251Y0079186D01*
X0156043Y0079985D02*
X0176479Y0079985D01*
X0177278Y0080783D02*
X0155712Y0080783D01*
X0155402Y0081531D02*
X0155402Y0081531D01*
X0155351Y0081582D02*
X0178620Y0081582D01*
X0180548Y0082380D02*
X0154553Y0082380D01*
X0153754Y0083179D02*
X0182345Y0083179D01*
X0182345Y0083977D02*
X0152956Y0083977D01*
X0152157Y0084776D02*
X0182345Y0084776D01*
X0182345Y0085574D02*
X0151359Y0085574D01*
X0150560Y0086373D02*
X0182345Y0086373D01*
X0182345Y0087172D02*
X0149762Y0087172D01*
X0148963Y0087970D02*
X0182345Y0087970D01*
X0182345Y0088769D02*
X0148165Y0088769D01*
X0147366Y0089567D02*
X0179749Y0089567D01*
X0177447Y0090366D02*
X0146568Y0090366D01*
X0145769Y0091164D02*
X0176064Y0091164D01*
X0175022Y0091963D02*
X0144971Y0091963D01*
X0144172Y0092761D02*
X0174224Y0092761D01*
X0173425Y0093560D02*
X0143374Y0093560D01*
X0142575Y0094358D02*
X0172957Y0094358D01*
X0172496Y0095157D02*
X0141777Y0095157D01*
X0140978Y0095955D02*
X0172035Y0095955D01*
X0171769Y0096754D02*
X0140180Y0096754D01*
X0139381Y0097552D02*
X0171555Y0097552D01*
X0171341Y0098351D02*
X0138583Y0098351D01*
X0137784Y0099149D02*
X0171177Y0099149D01*
X0171177Y0099948D02*
X0136986Y0099948D01*
X0136187Y0100746D02*
X0171177Y0100746D01*
X0171177Y0101545D02*
X0135389Y0101545D01*
X0134590Y0102343D02*
X0171295Y0102343D01*
X0171509Y0103142D02*
X0133791Y0103142D01*
X0132993Y0103940D02*
X0171723Y0103940D01*
X0171937Y0104739D02*
X0132194Y0104739D01*
X0131396Y0105537D02*
X0172397Y0105537D01*
X0172858Y0106336D02*
X0136365Y0106336D01*
X0137946Y0107134D02*
X0173319Y0107134D01*
X0174051Y0107933D02*
X0138744Y0107933D01*
X0139543Y0108731D02*
X0174850Y0108731D01*
X0175766Y0109530D02*
X0139948Y0109530D01*
X0140279Y0110328D02*
X0177149Y0110328D01*
X0179106Y0111127D02*
X0140609Y0111127D01*
X0140735Y0111925D02*
X0182345Y0111925D01*
X0182345Y0112724D02*
X0140735Y0112724D01*
X0140735Y0113522D02*
X0182345Y0113522D01*
X0182345Y0114321D02*
X0140691Y0114321D01*
X0140361Y0115119D02*
X0182345Y0115119D01*
X0182345Y0115918D02*
X0140030Y0115918D01*
X0139699Y0116716D02*
X0182345Y0116716D01*
X0182345Y0117515D02*
X0138943Y0117515D01*
X0138144Y0118313D02*
X0182345Y0118313D01*
X0182345Y0119112D02*
X0136844Y0119112D01*
X0130626Y0119112D02*
X0119794Y0119112D01*
X0119254Y0119910D02*
X0182345Y0119910D01*
X0182345Y0120709D02*
X0118713Y0120709D01*
X0118647Y0120807D02*
X0118647Y0120807D01*
X0118376Y0121508D02*
X0182345Y0121508D01*
X0182345Y0122306D02*
X0118252Y0122306D01*
X0118457Y0123105D02*
X0182345Y0123105D01*
X0182345Y0123903D02*
X0118976Y0123903D01*
X0118509Y0123303D02*
X0118509Y0123303D01*
X0120097Y0124702D02*
X0182345Y0124702D01*
X0182345Y0125500D02*
X0121562Y0125500D01*
X0123026Y0126299D02*
X0182345Y0126299D01*
X0182345Y0127097D02*
X0124490Y0127097D01*
X0125955Y0127896D02*
X0182345Y0127896D01*
X0182345Y0128694D02*
X0127419Y0128694D01*
X0128884Y0129493D02*
X0182345Y0129493D01*
X0182345Y0130291D02*
X0130348Y0130291D01*
X0131813Y0131090D02*
X0182345Y0131090D01*
X0182345Y0131888D02*
X0133014Y0131888D01*
X0133735Y0132687D02*
X0182345Y0132687D01*
X0182345Y0133485D02*
X0134455Y0133485D01*
X0134792Y0134284D02*
X0182345Y0134284D01*
X0182345Y0135082D02*
X0135126Y0135082D01*
X0135441Y0135836D02*
X0135441Y0135836D01*
X0135444Y0135881D02*
X0182345Y0135881D01*
X0182345Y0136679D02*
X0135491Y0136679D01*
X0135538Y0137478D02*
X0182272Y0137478D01*
X0184845Y0137478D02*
X0229121Y0137478D01*
X0229168Y0136725D02*
X0229168Y0136725D01*
X0230173Y0134365D01*
X0231910Y0132477D01*
X0232613Y0132106D01*
X0233198Y0131797D01*
X0233475Y0131651D01*
X0245595Y0125247D01*
X0246029Y0124958D01*
X0246678Y0124147D01*
X0246950Y0123145D01*
X0246800Y0122118D01*
X0246572Y0121649D01*
X0246572Y0121648D01*
X0244171Y0118011D01*
X0238760Y0111180D01*
X0237141Y0109466D01*
X0237955Y0111431D01*
X0237955Y0114215D01*
X0236889Y0116788D01*
X0234920Y0118757D01*
X0232348Y0119823D01*
X0229563Y0119823D01*
X0226990Y0118757D01*
X0225021Y0116788D01*
X0223955Y0114215D01*
X0223955Y0111431D01*
X0225021Y0108858D01*
X0226990Y0106889D01*
X0229563Y0105823D01*
X0232348Y0105823D01*
X0234452Y0106695D01*
X0209727Y0081970D01*
X0209288Y0081531D01*
X0209288Y0081531D01*
X0208439Y0079482D01*
X0208439Y0078373D01*
X0208439Y0077886D01*
X0208439Y0076323D01*
X0200743Y0068626D01*
X0188356Y0068626D01*
X0189309Y0069580D01*
X0190560Y0072599D01*
X0190560Y0075867D01*
X0189309Y0078886D01*
X0186999Y0081197D01*
X0184845Y0082089D01*
X0184845Y0089541D01*
X0186656Y0090026D01*
X0189202Y0091497D01*
X0191282Y0093576D01*
X0192752Y0096122D01*
X0193513Y0098963D01*
X0193513Y0101903D01*
X0192752Y0104744D01*
X0191282Y0107290D01*
X0189202Y0109369D01*
X0186656Y0110840D01*
X0184845Y0111325D01*
X0184845Y0137566D01*
X0189793Y0138510D01*
X0189793Y0138510D01*
X0195260Y0141082D01*
X0199915Y0144934D01*
X0203467Y0149821D01*
X0203467Y0149821D01*
X0205691Y0155439D01*
X0206448Y0161433D01*
X0257888Y0161433D01*
X0257895Y0161137D02*
X0257895Y0161137D01*
X0257840Y0160618D01*
X0257423Y0159668D01*
X0256661Y0158962D01*
X0255681Y0158619D01*
X0255160Y0158603D01*
X0255060Y0158610D01*
X0241488Y0159595D01*
X0241488Y0159595D01*
X0241002Y0159631D01*
X0239723Y0159724D01*
X0239722Y0159724D01*
X0237249Y0159043D01*
X0235146Y0157575D01*
X0235146Y0157575D01*
X0235146Y0157575D01*
X0233655Y0155487D01*
X0233436Y0154723D01*
X0233259Y0154104D01*
X0233167Y0153786D01*
X0229497Y0140986D01*
X0229447Y0140811D01*
X0229229Y0140050D01*
X0229229Y0140050D01*
X0229009Y0139285D01*
X0229168Y0136725D01*
X0229187Y0136679D02*
X0184845Y0136679D01*
X0184845Y0135881D02*
X0229527Y0135881D01*
X0229868Y0135082D02*
X0184845Y0135082D01*
X0184845Y0134284D02*
X0230248Y0134284D01*
X0230173Y0134365D02*
X0230173Y0134365D01*
X0230983Y0133485D02*
X0184845Y0133485D01*
X0184845Y0132687D02*
X0231717Y0132687D01*
X0231910Y0132477D02*
X0231910Y0132477D01*
X0233025Y0131888D02*
X0184845Y0131888D01*
X0184845Y0131090D02*
X0234537Y0131090D01*
X0233475Y0131651D02*
X0233475Y0131651D01*
X0236048Y0130291D02*
X0184845Y0130291D01*
X0184845Y0129493D02*
X0237559Y0129493D01*
X0239071Y0128694D02*
X0184845Y0128694D01*
X0184845Y0127896D02*
X0240582Y0127896D01*
X0242094Y0127097D02*
X0184845Y0127097D01*
X0184845Y0126299D02*
X0243605Y0126299D01*
X0245117Y0125500D02*
X0184845Y0125500D01*
X0184845Y0124702D02*
X0246234Y0124702D01*
X0246744Y0123903D02*
X0184845Y0123903D01*
X0184845Y0123105D02*
X0246944Y0123105D01*
X0246828Y0122306D02*
X0184845Y0122306D01*
X0184845Y0121508D02*
X0246479Y0121508D01*
X0245952Y0120709D02*
X0184845Y0120709D01*
X0184845Y0119910D02*
X0245425Y0119910D01*
X0244898Y0119112D02*
X0234064Y0119112D01*
X0235364Y0118313D02*
X0244371Y0118313D01*
X0243778Y0117515D02*
X0236163Y0117515D01*
X0236919Y0116716D02*
X0243146Y0116716D01*
X0242513Y0115918D02*
X0237250Y0115918D01*
X0237581Y0115119D02*
X0241880Y0115119D01*
X0241248Y0114321D02*
X0237911Y0114321D01*
X0237955Y0113522D02*
X0240615Y0113522D01*
X0239982Y0112724D02*
X0237955Y0112724D01*
X0237955Y0111925D02*
X0239350Y0111925D01*
X0238709Y0111127D02*
X0237829Y0111127D01*
X0237955Y0110328D02*
X0237499Y0110328D01*
X0237202Y0109530D02*
X0237168Y0109530D01*
X0234093Y0106336D02*
X0233585Y0106336D01*
X0233294Y0105537D02*
X0192294Y0105537D01*
X0192753Y0104739D02*
X0232496Y0104739D01*
X0231697Y0103940D02*
X0192967Y0103940D01*
X0193181Y0103142D02*
X0230899Y0103142D01*
X0230100Y0102343D02*
X0193395Y0102343D01*
X0193513Y0101545D02*
X0229302Y0101545D01*
X0228503Y0100746D02*
X0193513Y0100746D01*
X0193513Y0099948D02*
X0227705Y0099948D01*
X0226906Y0099149D02*
X0193513Y0099149D01*
X0193349Y0098351D02*
X0226108Y0098351D01*
X0225309Y0097552D02*
X0193135Y0097552D01*
X0192921Y0096754D02*
X0224511Y0096754D01*
X0223712Y0095955D02*
X0192655Y0095955D01*
X0192194Y0095157D02*
X0222914Y0095157D01*
X0222115Y0094358D02*
X0191733Y0094358D01*
X0191265Y0093560D02*
X0221317Y0093560D01*
X0220518Y0092761D02*
X0190467Y0092761D01*
X0189668Y0091963D02*
X0219720Y0091963D01*
X0218921Y0091164D02*
X0188626Y0091164D01*
X0187243Y0090366D02*
X0218123Y0090366D01*
X0217324Y0089567D02*
X0184941Y0089567D01*
X0184845Y0088769D02*
X0216526Y0088769D01*
X0215727Y0087970D02*
X0184845Y0087970D01*
X0184845Y0087172D02*
X0214929Y0087172D01*
X0214130Y0086373D02*
X0184845Y0086373D01*
X0184845Y0085574D02*
X0213332Y0085574D01*
X0212533Y0084776D02*
X0184845Y0084776D01*
X0184845Y0083977D02*
X0211735Y0083977D01*
X0210936Y0083179D02*
X0184845Y0083179D01*
X0184845Y0082380D02*
X0210137Y0082380D01*
X0209727Y0081970D02*
X0209727Y0081970D01*
X0209339Y0081582D02*
X0186070Y0081582D01*
X0187412Y0080783D02*
X0208978Y0080783D01*
X0208648Y0079985D02*
X0188211Y0079985D01*
X0189009Y0079186D02*
X0208439Y0079186D01*
X0208439Y0079482D02*
X0208439Y0079482D01*
X0208439Y0078388D02*
X0189516Y0078388D01*
X0189847Y0077589D02*
X0208439Y0077589D01*
X0208439Y0077886D02*
X0208439Y0077886D01*
X0208439Y0076791D02*
X0190177Y0076791D01*
X0190508Y0075992D02*
X0208109Y0075992D01*
X0207310Y0075194D02*
X0190560Y0075194D01*
X0190560Y0074395D02*
X0206512Y0074395D01*
X0205713Y0073597D02*
X0190560Y0073597D01*
X0190560Y0072798D02*
X0204915Y0072798D01*
X0204116Y0072000D02*
X0190312Y0072000D01*
X0189981Y0071201D02*
X0203318Y0071201D01*
X0202519Y0070403D02*
X0189650Y0070403D01*
X0189320Y0069604D02*
X0201721Y0069604D01*
X0200922Y0068806D02*
X0188536Y0068806D01*
X0191833Y0106336D02*
X0228325Y0106336D01*
X0226744Y0107134D02*
X0191372Y0107134D01*
X0190639Y0107933D02*
X0225946Y0107933D01*
X0225147Y0108731D02*
X0189840Y0108731D01*
X0188925Y0109530D02*
X0224742Y0109530D01*
X0224412Y0110328D02*
X0187541Y0110328D01*
X0185584Y0111127D02*
X0224081Y0111127D01*
X0223955Y0111925D02*
X0184845Y0111925D01*
X0184845Y0112724D02*
X0223955Y0112724D01*
X0223955Y0113522D02*
X0184845Y0113522D01*
X0184845Y0114321D02*
X0223999Y0114321D01*
X0224330Y0115119D02*
X0184845Y0115119D01*
X0184845Y0115918D02*
X0224660Y0115918D01*
X0224991Y0116716D02*
X0184845Y0116716D01*
X0184845Y0117515D02*
X0225748Y0117515D01*
X0226546Y0118313D02*
X0184845Y0118313D01*
X0184845Y0119112D02*
X0227846Y0119112D01*
X0229072Y0138276D02*
X0188568Y0138276D01*
X0190993Y0139075D02*
X0229022Y0139075D01*
X0229009Y0139285D02*
X0229009Y0139285D01*
X0229178Y0139873D02*
X0192690Y0139873D01*
X0194387Y0140672D02*
X0229407Y0140672D01*
X0229497Y0140986D02*
X0229497Y0140986D01*
X0229636Y0141470D02*
X0195729Y0141470D01*
X0195260Y0141082D02*
X0195260Y0141082D01*
X0196694Y0142269D02*
X0229865Y0142269D01*
X0230094Y0143067D02*
X0197659Y0143067D01*
X0198625Y0143866D02*
X0230323Y0143866D01*
X0230552Y0144664D02*
X0199590Y0144664D01*
X0199915Y0144934D02*
X0199915Y0144934D01*
X0200300Y0145463D02*
X0230781Y0145463D01*
X0231010Y0146261D02*
X0200880Y0146261D01*
X0201460Y0147060D02*
X0231239Y0147060D01*
X0231468Y0147858D02*
X0202040Y0147858D01*
X0202620Y0148657D02*
X0231697Y0148657D01*
X0231926Y0149455D02*
X0203201Y0149455D01*
X0203638Y0150254D02*
X0232155Y0150254D01*
X0232384Y0151052D02*
X0203954Y0151052D01*
X0204270Y0151851D02*
X0232613Y0151851D01*
X0232842Y0152649D02*
X0204586Y0152649D01*
X0204902Y0153448D02*
X0233070Y0153448D01*
X0233167Y0153786D02*
X0233167Y0153786D01*
X0233299Y0154246D02*
X0205219Y0154246D01*
X0205535Y0155045D02*
X0233528Y0155045D01*
X0233436Y0154723D02*
X0233436Y0154723D01*
X0233655Y0155487D02*
X0233655Y0155487D01*
X0233910Y0155843D02*
X0205742Y0155843D01*
X0205843Y0156642D02*
X0234480Y0156642D01*
X0235050Y0157441D02*
X0205944Y0157441D01*
X0206044Y0158239D02*
X0236098Y0158239D01*
X0237241Y0159038D02*
X0206145Y0159038D01*
X0206246Y0159836D02*
X0257496Y0159836D01*
X0257842Y0160635D02*
X0206347Y0160635D01*
X0206448Y0161433D02*
X0205691Y0167427D01*
X0205691Y0167427D01*
X0203467Y0173045D01*
X0199915Y0177933D01*
X0195260Y0181784D01*
X0189793Y0184356D01*
X0184845Y0185300D01*
X0184845Y0215041D01*
X0186656Y0215526D01*
X0189202Y0216997D01*
X0191282Y0219076D01*
X0192752Y0221622D01*
X0193513Y0224463D01*
X0193513Y0227403D01*
X0192752Y0230244D01*
X0191282Y0232790D01*
X0189202Y0234869D01*
X0186656Y0236340D01*
X0184845Y0236825D01*
X0184845Y0236984D01*
X0192129Y0236984D01*
X0196032Y0236275D01*
X0204011Y0234168D01*
X0211725Y0231238D01*
X0219092Y0227518D01*
X0222614Y0225377D01*
X0222627Y0225369D01*
X0222637Y0225362D01*
X0223048Y0225039D01*
X0223634Y0224178D01*
X0223828Y0223154D01*
X0223598Y0222138D01*
X0223333Y0221686D01*
X0223045Y0221294D01*
X0223045Y0221292D01*
X0215026Y0210317D01*
X0214957Y0210222D01*
X0214200Y0209186D01*
X0213467Y0206728D01*
X0213598Y0204166D01*
X0214578Y0201796D01*
X0215436Y0200843D01*
X0215436Y0200843D01*
X0215762Y0200481D01*
X0215762Y0200480D01*
X0224672Y0190585D01*
X0224998Y0190223D01*
X0225856Y0189270D01*
X0228111Y0188048D01*
X0230645Y0187650D01*
X0233166Y0188122D01*
X0233854Y0188522D01*
X0246129Y0195652D01*
X0246550Y0195897D01*
X0247026Y0196111D01*
X0248057Y0196232D01*
X0249050Y0195932D01*
X0249842Y0195260D01*
X0250119Y0194818D01*
X0251932Y0190854D01*
X0254857Y0182645D01*
X0255267Y0180871D01*
X0253300Y0182837D01*
X0250728Y0183903D01*
X0247943Y0183903D01*
X0245370Y0182837D01*
X0243401Y0180868D01*
X0242335Y0178295D01*
X0242335Y0175511D01*
X0243401Y0172938D01*
X0245370Y0170969D01*
X0247943Y0169903D01*
X0250728Y0169903D01*
X0253300Y0170969D01*
X0255269Y0172938D01*
X0256335Y0175511D01*
X0256335Y0176243D01*
X0256817Y0174155D01*
X0257787Y0165495D01*
X0257895Y0161137D01*
X0257868Y0162232D02*
X0206347Y0162232D01*
X0206246Y0163030D02*
X0257848Y0163030D01*
X0257828Y0163829D02*
X0206145Y0163829D01*
X0206044Y0164627D02*
X0257808Y0164627D01*
X0257788Y0165426D02*
X0205944Y0165426D01*
X0205843Y0166224D02*
X0257705Y0166224D01*
X0257616Y0167023D02*
X0205742Y0167023D01*
X0205535Y0167821D02*
X0257526Y0167821D01*
X0257437Y0168620D02*
X0205219Y0168620D01*
X0204902Y0169418D02*
X0257347Y0169418D01*
X0257258Y0170217D02*
X0251485Y0170217D01*
X0253347Y0171015D02*
X0257169Y0171015D01*
X0257079Y0171814D02*
X0254145Y0171814D01*
X0254944Y0172612D02*
X0256990Y0172612D01*
X0256900Y0173411D02*
X0255465Y0173411D01*
X0255796Y0174209D02*
X0256805Y0174209D01*
X0256620Y0175008D02*
X0256127Y0175008D01*
X0256335Y0175806D02*
X0256436Y0175806D01*
X0247186Y0170217D02*
X0204586Y0170217D01*
X0204270Y0171015D02*
X0245324Y0171015D01*
X0244525Y0171814D02*
X0203954Y0171814D01*
X0203638Y0172612D02*
X0243726Y0172612D01*
X0243205Y0173411D02*
X0203201Y0173411D01*
X0203467Y0173045D02*
X0203467Y0173045D01*
X0202620Y0174209D02*
X0242874Y0174209D01*
X0242543Y0175008D02*
X0202040Y0175008D01*
X0201460Y0175806D02*
X0242335Y0175806D01*
X0242335Y0176605D02*
X0200880Y0176605D01*
X0200300Y0177403D02*
X0242335Y0177403D01*
X0242335Y0178202D02*
X0199590Y0178202D01*
X0199915Y0177933D02*
X0199915Y0177933D01*
X0199915Y0177933D01*
X0198625Y0179000D02*
X0242627Y0179000D01*
X0242958Y0179799D02*
X0197659Y0179799D01*
X0196694Y0180597D02*
X0243289Y0180597D01*
X0243928Y0181396D02*
X0195729Y0181396D01*
X0195260Y0181784D02*
X0195260Y0181784D01*
X0194387Y0182194D02*
X0244727Y0182194D01*
X0245745Y0182993D02*
X0192690Y0182993D01*
X0190993Y0183791D02*
X0247673Y0183791D01*
X0250997Y0183791D02*
X0254449Y0183791D01*
X0254733Y0182993D02*
X0252925Y0182993D01*
X0253943Y0182194D02*
X0254961Y0182194D01*
X0255145Y0181396D02*
X0254742Y0181396D01*
X0254164Y0184590D02*
X0188568Y0184590D01*
X0189793Y0184356D02*
X0189793Y0184356D01*
X0184845Y0185388D02*
X0253880Y0185388D01*
X0253595Y0186187D02*
X0184845Y0186187D01*
X0184845Y0186985D02*
X0253310Y0186985D01*
X0253026Y0187784D02*
X0231362Y0187784D01*
X0230645Y0187650D02*
X0230645Y0187650D01*
X0229790Y0187784D02*
X0184845Y0187784D01*
X0184845Y0188582D02*
X0227124Y0188582D01*
X0228111Y0188048D02*
X0228111Y0188048D01*
X0225856Y0189270D02*
X0225856Y0189270D01*
X0225756Y0189381D02*
X0184845Y0189381D01*
X0184845Y0190179D02*
X0225037Y0190179D01*
X0224672Y0190585D02*
X0224672Y0190585D01*
X0224318Y0190978D02*
X0184845Y0190978D01*
X0184845Y0191777D02*
X0223599Y0191777D01*
X0222880Y0192575D02*
X0184845Y0192575D01*
X0184845Y0193374D02*
X0222161Y0193374D01*
X0221442Y0194172D02*
X0184845Y0194172D01*
X0184845Y0194971D02*
X0220723Y0194971D01*
X0220004Y0195769D02*
X0184845Y0195769D01*
X0184845Y0196568D02*
X0219285Y0196568D01*
X0218566Y0197366D02*
X0184845Y0197366D01*
X0184845Y0198165D02*
X0217847Y0198165D01*
X0217128Y0198963D02*
X0184845Y0198963D01*
X0184845Y0199762D02*
X0216409Y0199762D01*
X0215690Y0200560D02*
X0184845Y0200560D01*
X0184845Y0201359D02*
X0214971Y0201359D01*
X0214578Y0201796D02*
X0214578Y0201796D01*
X0214428Y0202157D02*
X0184845Y0202157D01*
X0184845Y0202956D02*
X0214098Y0202956D01*
X0213768Y0203754D02*
X0184845Y0203754D01*
X0184845Y0204553D02*
X0213578Y0204553D01*
X0213598Y0204166D02*
X0213598Y0204166D01*
X0213537Y0205351D02*
X0184845Y0205351D01*
X0184845Y0206150D02*
X0213496Y0206150D01*
X0213467Y0206728D02*
X0213467Y0206728D01*
X0213533Y0206948D02*
X0184845Y0206948D01*
X0184845Y0207747D02*
X0213771Y0207747D01*
X0214009Y0208545D02*
X0184845Y0208545D01*
X0184845Y0209344D02*
X0214316Y0209344D01*
X0214200Y0209186D02*
X0214200Y0209186D01*
X0214899Y0210142D02*
X0184845Y0210142D01*
X0184845Y0210941D02*
X0215482Y0210941D01*
X0216066Y0211739D02*
X0184845Y0211739D01*
X0184845Y0212538D02*
X0216649Y0212538D01*
X0217233Y0213336D02*
X0184845Y0213336D01*
X0184845Y0214135D02*
X0217816Y0214135D01*
X0218399Y0214933D02*
X0184845Y0214933D01*
X0187012Y0215732D02*
X0218983Y0215732D01*
X0219566Y0216530D02*
X0188395Y0216530D01*
X0189534Y0217329D02*
X0220149Y0217329D01*
X0220733Y0218127D02*
X0190333Y0218127D01*
X0191131Y0218926D02*
X0221316Y0218926D01*
X0221900Y0219724D02*
X0191656Y0219724D01*
X0192117Y0220523D02*
X0222483Y0220523D01*
X0223066Y0221321D02*
X0192578Y0221321D01*
X0192885Y0222120D02*
X0223587Y0222120D01*
X0223774Y0222918D02*
X0193099Y0222918D01*
X0193313Y0223717D02*
X0223721Y0223717D01*
X0223404Y0224515D02*
X0193513Y0224515D01*
X0193513Y0225314D02*
X0222699Y0225314D01*
X0221404Y0226112D02*
X0193513Y0226112D01*
X0193513Y0226911D02*
X0220090Y0226911D01*
X0218713Y0227710D02*
X0193431Y0227710D01*
X0193217Y0228508D02*
X0217131Y0228508D01*
X0215550Y0229307D02*
X0193003Y0229307D01*
X0192789Y0230105D02*
X0213969Y0230105D01*
X0212388Y0230904D02*
X0192371Y0230904D01*
X0191910Y0231702D02*
X0210504Y0231702D01*
X0208401Y0232501D02*
X0191449Y0232501D01*
X0190773Y0233299D02*
X0206298Y0233299D01*
X0204196Y0234098D02*
X0189974Y0234098D01*
X0189156Y0234896D02*
X0201253Y0234896D01*
X0198230Y0235695D02*
X0187773Y0235695D01*
X0186083Y0236493D02*
X0194831Y0236493D01*
X0178607Y0236493D02*
X0169859Y0236493D01*
X0166461Y0235695D02*
X0176917Y0235695D01*
X0175534Y0234896D02*
X0163437Y0234896D01*
X0160495Y0234098D02*
X0174716Y0234098D01*
X0173918Y0233299D02*
X0158392Y0233299D01*
X0156289Y0232501D02*
X0173242Y0232501D01*
X0172781Y0231702D02*
X0154186Y0231702D01*
X0152302Y0230904D02*
X0172319Y0230904D01*
X0171901Y0230105D02*
X0150721Y0230105D01*
X0149140Y0229307D02*
X0171687Y0229307D01*
X0171473Y0228508D02*
X0147559Y0228508D01*
X0145978Y0227710D02*
X0171259Y0227710D01*
X0171177Y0226911D02*
X0144600Y0226911D01*
X0143286Y0226112D02*
X0171177Y0226112D01*
X0171177Y0225314D02*
X0141992Y0225314D01*
X0141286Y0224515D02*
X0171177Y0224515D01*
X0171377Y0223717D02*
X0140969Y0223717D01*
X0140916Y0222918D02*
X0171591Y0222918D01*
X0171805Y0222120D02*
X0141103Y0222120D01*
X0141625Y0221321D02*
X0172112Y0221321D01*
X0172573Y0220523D02*
X0142207Y0220523D01*
X0142791Y0219724D02*
X0173034Y0219724D01*
X0173559Y0218926D02*
X0143374Y0218926D01*
X0143957Y0218127D02*
X0174357Y0218127D01*
X0175156Y0217329D02*
X0144541Y0217329D01*
X0145124Y0216530D02*
X0176296Y0216530D01*
X0177679Y0215732D02*
X0145708Y0215732D01*
X0146291Y0214933D02*
X0180248Y0214933D01*
X0182345Y0214135D02*
X0146874Y0214135D01*
X0147458Y0213336D02*
X0182345Y0213336D01*
X0182345Y0212538D02*
X0148041Y0212538D01*
X0148625Y0211739D02*
X0182345Y0211739D01*
X0182345Y0210941D02*
X0149208Y0210941D01*
X0149791Y0210142D02*
X0182345Y0210142D01*
X0182345Y0209344D02*
X0150375Y0209344D01*
X0149947Y0209929D02*
X0149947Y0209929D01*
X0150642Y0208545D02*
X0182345Y0208545D01*
X0182345Y0207747D02*
X0150874Y0207747D01*
X0151105Y0206948D02*
X0182345Y0206948D01*
X0182345Y0206150D02*
X0151125Y0206150D01*
X0151164Y0206746D02*
X0151164Y0206746D01*
X0151072Y0205351D02*
X0182345Y0205351D01*
X0182345Y0204553D02*
X0151020Y0204553D01*
X0150992Y0204129D02*
X0150992Y0204129D01*
X0150827Y0203754D02*
X0182345Y0203754D01*
X0182345Y0202956D02*
X0150476Y0202956D01*
X0150124Y0202157D02*
X0182345Y0202157D01*
X0182345Y0201359D02*
X0149582Y0201359D01*
X0149936Y0201729D02*
X0149936Y0201729D01*
X0148819Y0200560D02*
X0182345Y0200560D01*
X0182345Y0199762D02*
X0148056Y0199762D01*
X0148694Y0200429D02*
X0148694Y0200429D01*
X0147293Y0198963D02*
X0182345Y0198963D01*
X0182345Y0198165D02*
X0146530Y0198165D01*
X0145767Y0197366D02*
X0182345Y0197366D01*
X0182345Y0196568D02*
X0145004Y0196568D01*
X0144241Y0195769D02*
X0182345Y0195769D01*
X0182345Y0194971D02*
X0143477Y0194971D01*
X0142714Y0194172D02*
X0182345Y0194172D01*
X0182345Y0193374D02*
X0141951Y0193374D01*
X0141188Y0192575D02*
X0182345Y0192575D01*
X0182345Y0191777D02*
X0140425Y0191777D01*
X0139662Y0190978D02*
X0182345Y0190978D01*
X0182345Y0190179D02*
X0138899Y0190179D01*
X0138837Y0190115D02*
X0138837Y0190115D01*
X0138164Y0189410D02*
X0138164Y0189410D01*
X0138136Y0189381D02*
X0182345Y0189381D01*
X0182345Y0188582D02*
X0137372Y0188582D01*
X0135341Y0187784D02*
X0182345Y0187784D01*
X0182345Y0186985D02*
X0111362Y0186985D01*
X0111083Y0186187D02*
X0182345Y0186187D01*
X0182272Y0185388D02*
X0110804Y0185388D01*
X0110526Y0184590D02*
X0176231Y0184590D01*
X0173774Y0183791D02*
X0117017Y0183791D01*
X0118945Y0182993D02*
X0171690Y0182993D01*
X0170432Y0182194D02*
X0119963Y0182194D01*
X0120762Y0181396D02*
X0169174Y0181396D01*
X0167916Y0180597D02*
X0121402Y0180597D01*
X0121732Y0179799D02*
X0166788Y0179799D01*
X0166981Y0180005D02*
X0166981Y0180005D01*
X0166038Y0179000D02*
X0122063Y0179000D01*
X0122355Y0178202D02*
X0165289Y0178202D01*
X0164539Y0177403D02*
X0122355Y0177403D01*
X0122355Y0176605D02*
X0163789Y0176605D01*
X0163039Y0175806D02*
X0122355Y0175806D01*
X0122147Y0175008D02*
X0162520Y0175008D01*
X0162846Y0175600D02*
X0162846Y0175600D01*
X0162081Y0174209D02*
X0121816Y0174209D01*
X0121485Y0173411D02*
X0161642Y0173411D01*
X0161203Y0172612D02*
X0120964Y0172612D01*
X0120165Y0171814D02*
X0160764Y0171814D01*
X0160325Y0171015D02*
X0119367Y0171015D01*
X0117505Y0170217D02*
X0159912Y0170217D01*
X0159707Y0169418D02*
X0107324Y0169418D01*
X0107230Y0168620D02*
X0159502Y0168620D01*
X0159297Y0167821D02*
X0107135Y0167821D01*
X0107040Y0167023D02*
X0159092Y0167023D01*
X0158887Y0166224D02*
X0106947Y0166224D01*
X0106918Y0165426D02*
X0158682Y0165426D01*
X0158477Y0164627D02*
X0106889Y0164627D01*
X0106859Y0163829D02*
X0158432Y0163829D01*
X0158432Y0163030D02*
X0106830Y0163030D01*
X0106801Y0162232D02*
X0158432Y0162232D01*
X0158432Y0161433D02*
X0106919Y0161433D01*
X0107269Y0160635D02*
X0158432Y0160635D01*
X0158432Y0159836D02*
X0126643Y0159836D01*
X0126931Y0159754D02*
X0126931Y0159754D01*
X0127942Y0159038D02*
X0158432Y0159038D01*
X0158477Y0158239D02*
X0129037Y0158239D01*
X0129004Y0158286D02*
X0129004Y0158286D01*
X0129004Y0158286D01*
X0129604Y0157441D02*
X0158682Y0157441D01*
X0158887Y0156642D02*
X0130170Y0156642D01*
X0130473Y0156214D02*
X0130473Y0156214D01*
X0130580Y0155843D02*
X0159092Y0155843D01*
X0159297Y0155045D02*
X0130809Y0155045D01*
X0130689Y0155462D02*
X0130689Y0155462D01*
X0131038Y0154246D02*
X0159502Y0154246D01*
X0159707Y0153448D02*
X0131267Y0153448D01*
X0131496Y0152649D02*
X0159912Y0152649D01*
X0159935Y0152560D02*
X0159935Y0152560D01*
X0160325Y0151851D02*
X0131725Y0151851D01*
X0131954Y0151052D02*
X0160764Y0151052D01*
X0161203Y0150254D02*
X0132183Y0150254D01*
X0132412Y0149455D02*
X0161642Y0149455D01*
X0162081Y0148657D02*
X0132640Y0148657D01*
X0132869Y0147858D02*
X0162520Y0147858D01*
X0162846Y0147266D02*
X0162846Y0147266D01*
X0163039Y0147060D02*
X0133098Y0147060D01*
X0133327Y0146261D02*
X0163789Y0146261D01*
X0164539Y0145463D02*
X0133556Y0145463D01*
X0133785Y0144664D02*
X0165289Y0144664D01*
X0166038Y0143866D02*
X0134014Y0143866D01*
X0134243Y0143067D02*
X0166788Y0143067D01*
X0166981Y0142862D02*
X0166981Y0142862D01*
X0167916Y0142269D02*
X0134472Y0142269D01*
X0134701Y0141470D02*
X0169174Y0141470D01*
X0170432Y0140672D02*
X0134930Y0140672D01*
X0135159Y0139873D02*
X0171690Y0139873D01*
X0172083Y0139624D02*
X0172083Y0139624D01*
X0173774Y0139075D02*
X0135388Y0139075D01*
X0135590Y0138371D02*
X0135590Y0138371D01*
X0135584Y0138276D02*
X0176231Y0138276D01*
X0177829Y0137757D02*
X0177829Y0137757D01*
X0132073Y0131232D02*
X0132073Y0131232D01*
X0129326Y0118313D02*
X0120335Y0118313D01*
X0120875Y0117515D02*
X0128528Y0117515D01*
X0127771Y0116716D02*
X0121502Y0116716D01*
X0122143Y0115918D02*
X0127440Y0115918D01*
X0127110Y0115119D02*
X0122784Y0115119D01*
X0123426Y0114321D02*
X0126779Y0114321D01*
X0126735Y0113522D02*
X0124067Y0113522D01*
X0124708Y0112724D02*
X0126735Y0112724D01*
X0126735Y0111925D02*
X0125349Y0111925D01*
X0125990Y0111127D02*
X0126861Y0111127D01*
X0126728Y0110328D02*
X0127192Y0110328D01*
X0127484Y0109530D02*
X0127523Y0109530D01*
X0130597Y0106336D02*
X0131105Y0106336D01*
X0114122Y0159836D02*
X0108286Y0159836D01*
X0122735Y0160347D02*
X0122735Y0160347D01*
X0124489Y0160452D02*
X0124489Y0160452D01*
X0113206Y0170217D02*
X0107419Y0170217D01*
X0107514Y0171015D02*
X0111344Y0171015D01*
X0110545Y0171814D02*
X0107609Y0171814D01*
X0107703Y0172612D02*
X0109746Y0172612D01*
X0109225Y0173411D02*
X0107798Y0173411D01*
X0107893Y0174209D02*
X0108894Y0174209D01*
X0108563Y0175008D02*
X0108056Y0175008D01*
X0108240Y0175806D02*
X0108355Y0175806D01*
X0109531Y0181396D02*
X0109948Y0181396D01*
X0109715Y0182194D02*
X0110747Y0182194D01*
X0109968Y0182993D02*
X0111765Y0182993D01*
X0110247Y0183791D02*
X0113693Y0183791D01*
X0111640Y0187784D02*
X0130586Y0187784D01*
X0130911Y0187601D02*
X0130911Y0187601D01*
X0129883Y0188180D02*
X0129883Y0188180D01*
X0129169Y0188582D02*
X0111919Y0188582D01*
X0112197Y0189381D02*
X0127751Y0189381D01*
X0126334Y0190179D02*
X0112477Y0190179D01*
X0112831Y0190978D02*
X0124917Y0190978D01*
X0123500Y0191777D02*
X0113185Y0191777D01*
X0113540Y0192575D02*
X0122082Y0192575D01*
X0120665Y0193374D02*
X0113894Y0193374D01*
X0114137Y0193923D02*
X0114137Y0193923D01*
X0114289Y0194172D02*
X0119248Y0194172D01*
X0117831Y0194971D02*
X0115100Y0194971D01*
X0134237Y0187359D02*
X0134237Y0187359D01*
X0233854Y0188522D02*
X0233854Y0188522D01*
X0233959Y0188582D02*
X0252741Y0188582D01*
X0252457Y0189381D02*
X0235333Y0189381D01*
X0236708Y0190179D02*
X0252172Y0190179D01*
X0251875Y0190978D02*
X0238083Y0190978D01*
X0239457Y0191777D02*
X0251510Y0191777D01*
X0251145Y0192575D02*
X0240832Y0192575D01*
X0242206Y0193374D02*
X0250780Y0193374D01*
X0250415Y0194172D02*
X0243581Y0194172D01*
X0244956Y0194971D02*
X0250024Y0194971D01*
X0250119Y0194818D02*
X0250119Y0194818D01*
X0249242Y0195769D02*
X0246330Y0195769D01*
X0246129Y0195652D02*
X0246129Y0195652D01*
X0249173Y0159038D02*
X0256742Y0159038D01*
X0237249Y0159043D02*
X0237249Y0159043D01*
M02*
