G75*
%MOIN*%
%OFA0B0*%
%FSLAX25Y25*%
%IPPOS*%
%LPD*%
%AMOC8*
5,1,8,0,0,1.08239X$1,22.5*
%
%ADD10C,0.20535*%
%ADD11C,0.16000*%
%ADD12C,0.00800*%
D10*
X0462273Y0190429D03*
X0489273Y0322358D03*
X0462273Y0327358D03*
X0435273Y0322358D03*
D11*
X0526370Y0238096D03*
X0513544Y0214337D03*
X0492373Y0197580D03*
D12*
X0409294Y0195744D02*
X0401801Y0203079D01*
X0395315Y0211317D01*
X0389944Y0220322D01*
X0387903Y0224647D01*
X0387903Y0244229D01*
X0391582Y0245424D01*
X0394972Y0247888D01*
X0397435Y0251278D01*
X0398730Y0255263D01*
X0398730Y0259453D01*
X0397435Y0263439D01*
X0394972Y0266829D01*
X0391582Y0269292D01*
X0391582Y0269292D01*
X0387903Y0270487D01*
X0387903Y0290070D01*
X0389944Y0294394D01*
X0395315Y0303399D01*
X0401801Y0311638D01*
X0409294Y0318973D01*
X0417669Y0325282D01*
X0426786Y0330460D01*
X0427472Y0330739D01*
X0426117Y0329384D01*
X0424610Y0326775D01*
X0423830Y0323865D01*
X0423830Y0320852D01*
X0424610Y0317942D01*
X0426117Y0315332D01*
X0428247Y0313202D01*
X0430856Y0311696D01*
X0433767Y0310916D01*
X0436779Y0310916D01*
X0439690Y0311696D01*
X0442299Y0313202D01*
X0444429Y0315332D01*
X0445936Y0317942D01*
X0446715Y0320852D01*
X0446715Y0323865D01*
X0445936Y0326775D01*
X0444429Y0329384D01*
X0442299Y0331515D01*
X0439690Y0333021D01*
X0436779Y0333801D01*
X0434976Y0333801D01*
X0436495Y0334420D01*
X0446632Y0337098D01*
X0457030Y0338448D01*
X0459452Y0338448D01*
X0457856Y0338021D01*
X0455247Y0336515D01*
X0453117Y0334384D01*
X0451610Y0331775D01*
X0450830Y0328865D01*
X0450830Y0325852D01*
X0451610Y0322942D01*
X0453117Y0320332D01*
X0455247Y0318202D01*
X0457856Y0316696D01*
X0460767Y0315916D01*
X0463779Y0315916D01*
X0466690Y0316696D01*
X0469299Y0318202D01*
X0471429Y0320332D01*
X0472936Y0322942D01*
X0473715Y0325852D01*
X0473715Y0328865D01*
X0472936Y0331775D01*
X0471429Y0334384D01*
X0469299Y0336515D01*
X0466690Y0338021D01*
X0465094Y0338448D01*
X0467516Y0338448D01*
X0477914Y0337098D01*
X0488051Y0334420D01*
X0497760Y0330460D01*
X0506877Y0325282D01*
X0515252Y0318973D01*
X0522745Y0311638D01*
X0529231Y0303399D01*
X0534602Y0294394D01*
X0536643Y0290070D01*
X0536643Y0270487D01*
X0532964Y0269292D01*
X0529574Y0266829D01*
X0529574Y0266829D01*
X0527111Y0263439D01*
X0527111Y0263439D01*
X0525816Y0259453D01*
X0525816Y0255263D01*
X0527111Y0251278D01*
X0527111Y0251278D01*
X0529574Y0247888D01*
X0529574Y0247888D01*
X0532964Y0245424D01*
X0536643Y0244229D01*
X0536643Y0224647D01*
X0534602Y0220322D01*
X0529231Y0211317D01*
X0522745Y0203079D01*
X0515252Y0195744D01*
X0506877Y0189435D01*
X0497760Y0184257D01*
X0488051Y0180296D01*
X0477914Y0177618D01*
X0467516Y0176268D01*
X0457030Y0176268D01*
X0446632Y0177618D01*
X0436495Y0180296D01*
X0426786Y0184257D01*
X0417669Y0189435D01*
X0409294Y0195744D01*
X0409162Y0195873D02*
X0452203Y0195873D01*
X0451742Y0195074D02*
X0410183Y0195074D01*
X0411243Y0194276D02*
X0451458Y0194276D01*
X0451610Y0194846D02*
X0450830Y0191936D01*
X0450830Y0188923D01*
X0451610Y0186012D01*
X0453117Y0183403D01*
X0455247Y0181273D01*
X0457856Y0179766D01*
X0460767Y0178987D01*
X0463779Y0178987D01*
X0466690Y0179766D01*
X0469299Y0181273D01*
X0471429Y0183403D01*
X0472936Y0186012D01*
X0473715Y0188923D01*
X0473715Y0191936D01*
X0472936Y0194846D01*
X0471429Y0197455D01*
X0469299Y0199585D01*
X0466690Y0201092D01*
X0463779Y0201872D01*
X0460767Y0201872D01*
X0457856Y0201092D01*
X0455247Y0199585D01*
X0453117Y0197455D01*
X0451610Y0194846D01*
X0451244Y0193477D02*
X0412303Y0193477D01*
X0413363Y0192679D02*
X0451030Y0192679D01*
X0450830Y0191880D02*
X0414423Y0191880D01*
X0415483Y0191082D02*
X0450830Y0191082D01*
X0450830Y0190283D02*
X0416543Y0190283D01*
X0417603Y0189485D02*
X0450830Y0189485D01*
X0450894Y0188686D02*
X0418987Y0188686D01*
X0420393Y0187888D02*
X0451108Y0187888D01*
X0451322Y0187089D02*
X0421799Y0187089D01*
X0423205Y0186291D02*
X0451536Y0186291D01*
X0451911Y0185492D02*
X0424611Y0185492D01*
X0426017Y0184694D02*
X0452372Y0184694D01*
X0452833Y0183895D02*
X0427673Y0183895D01*
X0429630Y0183097D02*
X0453423Y0183097D01*
X0454222Y0182298D02*
X0431587Y0182298D01*
X0433545Y0181500D02*
X0455020Y0181500D01*
X0456237Y0180701D02*
X0435502Y0180701D01*
X0437984Y0179903D02*
X0457620Y0179903D01*
X0460328Y0179104D02*
X0441007Y0179104D01*
X0444030Y0178306D02*
X0480516Y0178306D01*
X0483539Y0179104D02*
X0464218Y0179104D01*
X0466926Y0179903D02*
X0486562Y0179903D01*
X0489044Y0180701D02*
X0468309Y0180701D01*
X0469526Y0181500D02*
X0491001Y0181500D01*
X0492959Y0182298D02*
X0470324Y0182298D01*
X0471123Y0183097D02*
X0494916Y0183097D01*
X0496873Y0183895D02*
X0471713Y0183895D01*
X0472174Y0184694D02*
X0498529Y0184694D01*
X0499935Y0185492D02*
X0472635Y0185492D01*
X0473010Y0186291D02*
X0501341Y0186291D01*
X0502747Y0187089D02*
X0473224Y0187089D01*
X0473438Y0187888D02*
X0504153Y0187888D01*
X0505559Y0188686D02*
X0473652Y0188686D01*
X0473715Y0189485D02*
X0506943Y0189485D01*
X0508003Y0190283D02*
X0473715Y0190283D01*
X0473715Y0191082D02*
X0509063Y0191082D01*
X0510123Y0191880D02*
X0473715Y0191880D01*
X0473516Y0192679D02*
X0511183Y0192679D01*
X0512243Y0193477D02*
X0473302Y0193477D01*
X0473088Y0194276D02*
X0513303Y0194276D01*
X0514363Y0195074D02*
X0472804Y0195074D01*
X0472343Y0195873D02*
X0515384Y0195873D01*
X0516199Y0196671D02*
X0471882Y0196671D01*
X0471414Y0197470D02*
X0517015Y0197470D01*
X0517831Y0198268D02*
X0470616Y0198268D01*
X0469817Y0199067D02*
X0518647Y0199067D01*
X0519462Y0199865D02*
X0468814Y0199865D01*
X0467431Y0200664D02*
X0520278Y0200664D01*
X0521094Y0201462D02*
X0465306Y0201462D01*
X0459239Y0201462D02*
X0403452Y0201462D01*
X0404268Y0200664D02*
X0457115Y0200664D01*
X0455732Y0199865D02*
X0405084Y0199865D01*
X0405899Y0199067D02*
X0454729Y0199067D01*
X0453930Y0198268D02*
X0406715Y0198268D01*
X0407531Y0197470D02*
X0453132Y0197470D01*
X0452664Y0196671D02*
X0408347Y0196671D01*
X0402637Y0202261D02*
X0521909Y0202261D01*
X0522725Y0203059D02*
X0401821Y0203059D01*
X0401801Y0203079D02*
X0401801Y0203079D01*
X0401188Y0203858D02*
X0523358Y0203858D01*
X0523987Y0204657D02*
X0400559Y0204657D01*
X0399930Y0205455D02*
X0511012Y0205455D01*
X0511719Y0205162D02*
X0515369Y0205162D01*
X0518741Y0206559D01*
X0521322Y0209140D01*
X0522718Y0212512D01*
X0522718Y0216162D01*
X0521322Y0219534D01*
X0518741Y0222115D01*
X0515369Y0223512D01*
X0511719Y0223512D01*
X0508347Y0222115D01*
X0505766Y0219534D01*
X0504369Y0216162D01*
X0504369Y0212512D01*
X0505766Y0209140D01*
X0508347Y0206559D01*
X0511719Y0205162D01*
X0509084Y0206254D02*
X0399302Y0206254D01*
X0398673Y0207052D02*
X0507854Y0207052D01*
X0507055Y0207851D02*
X0398045Y0207851D01*
X0397416Y0208649D02*
X0506256Y0208649D01*
X0505638Y0209448D02*
X0396787Y0209448D01*
X0396159Y0210246D02*
X0505307Y0210246D01*
X0504977Y0211045D02*
X0395530Y0211045D01*
X0395315Y0211317D02*
X0395315Y0211317D01*
X0395002Y0211843D02*
X0504646Y0211843D01*
X0504369Y0212642D02*
X0394525Y0212642D01*
X0394049Y0213440D02*
X0504369Y0213440D01*
X0504369Y0214239D02*
X0393573Y0214239D01*
X0393097Y0215037D02*
X0504369Y0215037D01*
X0504369Y0215836D02*
X0392620Y0215836D01*
X0392144Y0216634D02*
X0403187Y0216634D01*
X0404287Y0216179D02*
X0407747Y0216179D01*
X0410945Y0217503D01*
X0413392Y0219950D01*
X0414716Y0223148D01*
X0414716Y0226608D01*
X0413392Y0229806D01*
X0410945Y0232253D01*
X0407747Y0233577D01*
X0404287Y0233577D01*
X0401089Y0232253D01*
X0398642Y0229806D01*
X0397318Y0226608D01*
X0397318Y0223148D01*
X0398642Y0219950D01*
X0401089Y0217503D01*
X0404287Y0216179D01*
X0401259Y0217433D02*
X0391668Y0217433D01*
X0391192Y0218231D02*
X0400361Y0218231D01*
X0399563Y0219030D02*
X0390715Y0219030D01*
X0390239Y0219828D02*
X0398764Y0219828D01*
X0398362Y0220627D02*
X0389801Y0220627D01*
X0389424Y0221425D02*
X0398031Y0221425D01*
X0397700Y0222224D02*
X0389047Y0222224D01*
X0388670Y0223022D02*
X0397370Y0223022D01*
X0397318Y0223821D02*
X0388293Y0223821D01*
X0387916Y0224619D02*
X0397318Y0224619D01*
X0397318Y0225418D02*
X0387903Y0225418D01*
X0387903Y0226216D02*
X0397318Y0226216D01*
X0397486Y0227015D02*
X0387903Y0227015D01*
X0387903Y0227813D02*
X0397817Y0227813D01*
X0398148Y0228612D02*
X0387903Y0228612D01*
X0387903Y0229410D02*
X0398478Y0229410D01*
X0399045Y0230209D02*
X0387903Y0230209D01*
X0387903Y0231007D02*
X0399844Y0231007D01*
X0400642Y0231806D02*
X0387903Y0231806D01*
X0387903Y0232604D02*
X0401938Y0232604D01*
X0403866Y0233403D02*
X0387903Y0233403D01*
X0387903Y0234201D02*
X0437759Y0234201D01*
X0438478Y0233403D02*
X0408168Y0233403D01*
X0410096Y0232604D02*
X0439197Y0232604D01*
X0439591Y0232167D02*
X0439591Y0232167D01*
X0445324Y0228002D01*
X0451798Y0225119D01*
X0458730Y0223646D01*
X0465816Y0223646D01*
X0472748Y0225119D01*
X0479222Y0228002D01*
X0484955Y0232167D01*
X0484955Y0232167D01*
X0489697Y0237434D01*
X0493240Y0243571D01*
X0495430Y0250310D01*
X0496171Y0257358D01*
X0495430Y0264406D01*
X0493240Y0271146D01*
X0489697Y0277283D01*
X0484955Y0282549D01*
X0479222Y0286715D01*
X0472748Y0289597D01*
X0465816Y0291071D01*
X0458730Y0291071D01*
X0451798Y0289597D01*
X0451798Y0289597D01*
X0445324Y0286715D01*
X0445324Y0286715D01*
X0439591Y0282549D01*
X0434849Y0277283D01*
X0431306Y0271146D01*
X0431306Y0271146D01*
X0429116Y0264406D01*
X0428375Y0257358D01*
X0429116Y0250310D01*
X0431306Y0243571D01*
X0434849Y0237434D01*
X0434849Y0237434D01*
X0439591Y0232167D01*
X0440088Y0231806D02*
X0411392Y0231806D01*
X0412190Y0231007D02*
X0441187Y0231007D01*
X0442286Y0230209D02*
X0412989Y0230209D01*
X0413556Y0229410D02*
X0443385Y0229410D01*
X0444484Y0228612D02*
X0413886Y0228612D01*
X0414217Y0227813D02*
X0445747Y0227813D01*
X0445324Y0228002D02*
X0445324Y0228002D01*
X0447540Y0227015D02*
X0414548Y0227015D01*
X0414716Y0226216D02*
X0449334Y0226216D01*
X0451127Y0225418D02*
X0414716Y0225418D01*
X0414716Y0224619D02*
X0454150Y0224619D01*
X0451798Y0225119D02*
X0451798Y0225119D01*
X0457907Y0223821D02*
X0414716Y0223821D01*
X0414664Y0223022D02*
X0510537Y0223022D01*
X0508609Y0222224D02*
X0414334Y0222224D01*
X0414003Y0221425D02*
X0507657Y0221425D01*
X0506858Y0220627D02*
X0413672Y0220627D01*
X0413270Y0219828D02*
X0506060Y0219828D01*
X0505557Y0219030D02*
X0412471Y0219030D01*
X0411673Y0218231D02*
X0505226Y0218231D01*
X0504895Y0217433D02*
X0410775Y0217433D01*
X0408847Y0216634D02*
X0504564Y0216634D01*
X0516551Y0223022D02*
X0535876Y0223022D01*
X0535499Y0222224D02*
X0518478Y0222224D01*
X0519431Y0221425D02*
X0535122Y0221425D01*
X0534745Y0220627D02*
X0520229Y0220627D01*
X0521028Y0219828D02*
X0534307Y0219828D01*
X0533831Y0219030D02*
X0521531Y0219030D01*
X0521861Y0218231D02*
X0533354Y0218231D01*
X0532878Y0217433D02*
X0522192Y0217433D01*
X0522523Y0216634D02*
X0532402Y0216634D01*
X0531926Y0215836D02*
X0522718Y0215836D01*
X0522718Y0215037D02*
X0531449Y0215037D01*
X0530973Y0214239D02*
X0522718Y0214239D01*
X0522718Y0213440D02*
X0530497Y0213440D01*
X0530020Y0212642D02*
X0522718Y0212642D01*
X0522441Y0211843D02*
X0529544Y0211843D01*
X0529016Y0211045D02*
X0522111Y0211045D01*
X0521780Y0210246D02*
X0528387Y0210246D01*
X0527759Y0209448D02*
X0521449Y0209448D01*
X0520831Y0208649D02*
X0527130Y0208649D01*
X0526501Y0207851D02*
X0520032Y0207851D01*
X0519234Y0207052D02*
X0525873Y0207052D01*
X0525244Y0206254D02*
X0518003Y0206254D01*
X0516075Y0205455D02*
X0524615Y0205455D01*
X0536253Y0223821D02*
X0466639Y0223821D01*
X0470396Y0224619D02*
X0536630Y0224619D01*
X0536643Y0225418D02*
X0473418Y0225418D01*
X0472748Y0225119D02*
X0472748Y0225119D01*
X0475212Y0226216D02*
X0536643Y0226216D01*
X0536643Y0227015D02*
X0477005Y0227015D01*
X0478799Y0227813D02*
X0536643Y0227813D01*
X0536643Y0228612D02*
X0480062Y0228612D01*
X0479222Y0228002D02*
X0479222Y0228002D01*
X0481161Y0229410D02*
X0523364Y0229410D01*
X0524545Y0228921D02*
X0528195Y0228921D01*
X0531567Y0230318D01*
X0534148Y0232899D01*
X0535545Y0236271D01*
X0535545Y0239921D01*
X0534148Y0243293D01*
X0531567Y0245874D01*
X0528195Y0247271D01*
X0524545Y0247271D01*
X0521173Y0245874D01*
X0518592Y0243293D01*
X0517195Y0239921D01*
X0517195Y0236271D01*
X0518592Y0232899D01*
X0521173Y0230318D01*
X0524545Y0228921D01*
X0521436Y0230209D02*
X0482260Y0230209D01*
X0483359Y0231007D02*
X0520484Y0231007D01*
X0519685Y0231806D02*
X0484458Y0231806D01*
X0485349Y0232604D02*
X0518887Y0232604D01*
X0518383Y0233403D02*
X0486068Y0233403D01*
X0486787Y0234201D02*
X0518053Y0234201D01*
X0517722Y0235000D02*
X0487506Y0235000D01*
X0488225Y0235798D02*
X0517391Y0235798D01*
X0517195Y0236597D02*
X0488944Y0236597D01*
X0489663Y0237395D02*
X0517195Y0237395D01*
X0517195Y0238194D02*
X0490136Y0238194D01*
X0490597Y0238993D02*
X0517195Y0238993D01*
X0517195Y0239791D02*
X0491058Y0239791D01*
X0491519Y0240590D02*
X0517472Y0240590D01*
X0517803Y0241388D02*
X0491980Y0241388D01*
X0492441Y0242187D02*
X0518134Y0242187D01*
X0518465Y0242985D02*
X0492902Y0242985D01*
X0493309Y0243784D02*
X0519083Y0243784D01*
X0519881Y0244582D02*
X0493569Y0244582D01*
X0493828Y0245381D02*
X0520680Y0245381D01*
X0521910Y0246179D02*
X0494088Y0246179D01*
X0494347Y0246978D02*
X0523838Y0246978D01*
X0528903Y0246978D02*
X0530826Y0246978D01*
X0530830Y0246179D02*
X0531925Y0246179D01*
X0532061Y0245381D02*
X0533099Y0245381D01*
X0532964Y0245424D02*
X0532964Y0245424D01*
X0532859Y0244582D02*
X0535557Y0244582D01*
X0536643Y0243784D02*
X0533658Y0243784D01*
X0534276Y0242985D02*
X0536643Y0242985D01*
X0536643Y0242187D02*
X0534607Y0242187D01*
X0534937Y0241388D02*
X0536643Y0241388D01*
X0536643Y0240590D02*
X0535268Y0240590D01*
X0535545Y0239791D02*
X0536643Y0239791D01*
X0536643Y0238993D02*
X0535545Y0238993D01*
X0535545Y0238194D02*
X0536643Y0238194D01*
X0536643Y0237395D02*
X0535545Y0237395D01*
X0535545Y0236597D02*
X0536643Y0236597D01*
X0536643Y0235798D02*
X0535349Y0235798D01*
X0535019Y0235000D02*
X0536643Y0235000D01*
X0536643Y0234201D02*
X0534688Y0234201D01*
X0534357Y0233403D02*
X0536643Y0233403D01*
X0536643Y0232604D02*
X0533854Y0232604D01*
X0533056Y0231806D02*
X0536643Y0231806D01*
X0536643Y0231007D02*
X0532257Y0231007D01*
X0531305Y0230209D02*
X0536643Y0230209D01*
X0536643Y0229410D02*
X0529377Y0229410D01*
X0529727Y0247776D02*
X0494607Y0247776D01*
X0494866Y0248575D02*
X0529075Y0248575D01*
X0529574Y0247888D02*
X0529574Y0247888D01*
X0528495Y0249373D02*
X0495126Y0249373D01*
X0495385Y0250172D02*
X0527914Y0250172D01*
X0527334Y0250970D02*
X0495500Y0250970D01*
X0495583Y0251769D02*
X0526951Y0251769D01*
X0526692Y0252567D02*
X0495667Y0252567D01*
X0495751Y0253366D02*
X0526432Y0253366D01*
X0526173Y0254164D02*
X0495835Y0254164D01*
X0495919Y0254963D02*
X0525913Y0254963D01*
X0525816Y0255761D02*
X0496003Y0255761D01*
X0496087Y0256560D02*
X0525816Y0256560D01*
X0525816Y0257358D02*
X0496171Y0257358D01*
X0496171Y0257358D01*
X0496087Y0258157D02*
X0525816Y0258157D01*
X0525816Y0258955D02*
X0496003Y0258955D01*
X0495919Y0259754D02*
X0525913Y0259754D01*
X0526173Y0260552D02*
X0495835Y0260552D01*
X0495751Y0261351D02*
X0526432Y0261351D01*
X0526692Y0262149D02*
X0495667Y0262149D01*
X0495584Y0262948D02*
X0526951Y0262948D01*
X0527334Y0263746D02*
X0495500Y0263746D01*
X0495430Y0264406D02*
X0495430Y0264406D01*
X0495385Y0264545D02*
X0527914Y0264545D01*
X0528495Y0265343D02*
X0495126Y0265343D01*
X0494866Y0266142D02*
X0529075Y0266142D01*
X0529574Y0266829D02*
X0529574Y0266829D01*
X0529727Y0266940D02*
X0494607Y0266940D01*
X0494347Y0267739D02*
X0530826Y0267739D01*
X0531925Y0268537D02*
X0494088Y0268537D01*
X0493828Y0269336D02*
X0533099Y0269336D01*
X0532964Y0269292D02*
X0532964Y0269292D01*
X0535557Y0270134D02*
X0493569Y0270134D01*
X0493310Y0270933D02*
X0536643Y0270933D01*
X0536643Y0271731D02*
X0492902Y0271731D01*
X0493240Y0271146D02*
X0493240Y0271146D01*
X0492441Y0272530D02*
X0536643Y0272530D01*
X0536643Y0273328D02*
X0491980Y0273328D01*
X0491519Y0274127D02*
X0536643Y0274127D01*
X0536643Y0274926D02*
X0491058Y0274926D01*
X0490597Y0275724D02*
X0536643Y0275724D01*
X0536643Y0276523D02*
X0490136Y0276523D01*
X0489697Y0277283D02*
X0489697Y0277283D01*
X0489663Y0277321D02*
X0536643Y0277321D01*
X0536643Y0278120D02*
X0488944Y0278120D01*
X0488225Y0278918D02*
X0536643Y0278918D01*
X0536643Y0279717D02*
X0487506Y0279717D01*
X0486787Y0280515D02*
X0536643Y0280515D01*
X0536643Y0281314D02*
X0486068Y0281314D01*
X0485349Y0282112D02*
X0536643Y0282112D01*
X0536643Y0282911D02*
X0484458Y0282911D01*
X0484955Y0282549D02*
X0484955Y0282549D01*
X0483359Y0283709D02*
X0536643Y0283709D01*
X0536643Y0284508D02*
X0482260Y0284508D01*
X0481161Y0285306D02*
X0536643Y0285306D01*
X0536643Y0286105D02*
X0480062Y0286105D01*
X0479222Y0286715D02*
X0479222Y0286715D01*
X0478799Y0286903D02*
X0536643Y0286903D01*
X0536643Y0287702D02*
X0477005Y0287702D01*
X0475212Y0288500D02*
X0536643Y0288500D01*
X0536643Y0289299D02*
X0473418Y0289299D01*
X0472748Y0289597D02*
X0472748Y0289597D01*
X0470396Y0290097D02*
X0536630Y0290097D01*
X0536253Y0290896D02*
X0466639Y0290896D01*
X0457907Y0290896D02*
X0388293Y0290896D01*
X0388670Y0291694D02*
X0535876Y0291694D01*
X0535499Y0292493D02*
X0389047Y0292493D01*
X0389424Y0293291D02*
X0535122Y0293291D01*
X0534745Y0294090D02*
X0389801Y0294090D01*
X0390239Y0294888D02*
X0534307Y0294888D01*
X0533831Y0295687D02*
X0390715Y0295687D01*
X0391192Y0296485D02*
X0533354Y0296485D01*
X0532878Y0297284D02*
X0391668Y0297284D01*
X0392144Y0298082D02*
X0532402Y0298082D01*
X0531926Y0298881D02*
X0392620Y0298881D01*
X0393097Y0299679D02*
X0531449Y0299679D01*
X0530973Y0300478D02*
X0393573Y0300478D01*
X0394049Y0301276D02*
X0530497Y0301276D01*
X0530020Y0302075D02*
X0394525Y0302075D01*
X0395002Y0302873D02*
X0529544Y0302873D01*
X0529016Y0303672D02*
X0395530Y0303672D01*
X0396159Y0304470D02*
X0528387Y0304470D01*
X0527759Y0305269D02*
X0396787Y0305269D01*
X0397416Y0306067D02*
X0527130Y0306067D01*
X0526501Y0306866D02*
X0398045Y0306866D01*
X0398673Y0307664D02*
X0525873Y0307664D01*
X0525244Y0308463D02*
X0399302Y0308463D01*
X0399930Y0309262D02*
X0524615Y0309262D01*
X0523987Y0310060D02*
X0400559Y0310060D01*
X0401188Y0310859D02*
X0523358Y0310859D01*
X0522725Y0311657D02*
X0439546Y0311657D01*
X0441006Y0312456D02*
X0521909Y0312456D01*
X0521094Y0313254D02*
X0442351Y0313254D01*
X0443149Y0314053D02*
X0520278Y0314053D01*
X0519462Y0314851D02*
X0443948Y0314851D01*
X0444612Y0315650D02*
X0518646Y0315650D01*
X0517831Y0316448D02*
X0465766Y0316448D01*
X0467644Y0317247D02*
X0517015Y0317247D01*
X0516199Y0318045D02*
X0469027Y0318045D01*
X0469940Y0318844D02*
X0515384Y0318844D01*
X0514363Y0319642D02*
X0470739Y0319642D01*
X0471492Y0320441D02*
X0513303Y0320441D01*
X0512243Y0321239D02*
X0471953Y0321239D01*
X0472414Y0322038D02*
X0511183Y0322038D01*
X0510123Y0322836D02*
X0472875Y0322836D01*
X0473121Y0323635D02*
X0509063Y0323635D01*
X0508003Y0324433D02*
X0473335Y0324433D01*
X0473549Y0325232D02*
X0506943Y0325232D01*
X0505559Y0326030D02*
X0473715Y0326030D01*
X0473715Y0326829D02*
X0504153Y0326829D01*
X0502747Y0327627D02*
X0473715Y0327627D01*
X0473715Y0328426D02*
X0501341Y0328426D01*
X0499935Y0329224D02*
X0473619Y0329224D01*
X0473405Y0330023D02*
X0498529Y0330023D01*
X0496873Y0330821D02*
X0473191Y0330821D01*
X0472977Y0331620D02*
X0494916Y0331620D01*
X0492958Y0332418D02*
X0472564Y0332418D01*
X0472103Y0333217D02*
X0491001Y0333217D01*
X0489044Y0334015D02*
X0471642Y0334015D01*
X0471000Y0334814D02*
X0486562Y0334814D01*
X0483539Y0335612D02*
X0470201Y0335612D01*
X0469402Y0336411D02*
X0480516Y0336411D01*
X0477058Y0337209D02*
X0468095Y0337209D01*
X0466712Y0338008D02*
X0470908Y0338008D01*
X0457834Y0338008D02*
X0453638Y0338008D01*
X0455143Y0336411D02*
X0444030Y0336411D01*
X0441007Y0335612D02*
X0454345Y0335612D01*
X0453546Y0334814D02*
X0437984Y0334814D01*
X0438959Y0333217D02*
X0452443Y0333217D01*
X0452904Y0334015D02*
X0435502Y0334015D01*
X0440733Y0332418D02*
X0451982Y0332418D01*
X0451569Y0331620D02*
X0442116Y0331620D01*
X0442992Y0330821D02*
X0451355Y0330821D01*
X0451141Y0330023D02*
X0443791Y0330023D01*
X0444522Y0329224D02*
X0450927Y0329224D01*
X0450830Y0328426D02*
X0444983Y0328426D01*
X0445444Y0327627D02*
X0450830Y0327627D01*
X0450830Y0326829D02*
X0445905Y0326829D01*
X0446135Y0326030D02*
X0450830Y0326030D01*
X0450997Y0325232D02*
X0446349Y0325232D01*
X0446563Y0324433D02*
X0451211Y0324433D01*
X0451425Y0323635D02*
X0446715Y0323635D01*
X0446715Y0322836D02*
X0451671Y0322836D01*
X0452132Y0322038D02*
X0446715Y0322038D01*
X0446715Y0321239D02*
X0452593Y0321239D01*
X0453054Y0320441D02*
X0446605Y0320441D01*
X0446391Y0319642D02*
X0453807Y0319642D01*
X0454605Y0318844D02*
X0446177Y0318844D01*
X0445963Y0318045D02*
X0455519Y0318045D01*
X0456902Y0317247D02*
X0445534Y0317247D01*
X0445073Y0316448D02*
X0458780Y0316448D01*
X0431000Y0311657D02*
X0401821Y0311657D01*
X0402637Y0312456D02*
X0429540Y0312456D01*
X0428195Y0313254D02*
X0403452Y0313254D01*
X0404268Y0314053D02*
X0427396Y0314053D01*
X0426598Y0314851D02*
X0405084Y0314851D01*
X0405899Y0315650D02*
X0425934Y0315650D01*
X0425472Y0316448D02*
X0406715Y0316448D01*
X0407531Y0317247D02*
X0425011Y0317247D01*
X0424582Y0318045D02*
X0408347Y0318045D01*
X0409162Y0318844D02*
X0424369Y0318844D01*
X0424155Y0319642D02*
X0410183Y0319642D01*
X0411243Y0320441D02*
X0423941Y0320441D01*
X0423830Y0321239D02*
X0412303Y0321239D01*
X0413363Y0322038D02*
X0423830Y0322038D01*
X0423830Y0322836D02*
X0414423Y0322836D01*
X0415483Y0323635D02*
X0423830Y0323635D01*
X0423983Y0324433D02*
X0416543Y0324433D01*
X0417603Y0325232D02*
X0424197Y0325232D01*
X0424411Y0326030D02*
X0418987Y0326030D01*
X0420393Y0326829D02*
X0424641Y0326829D01*
X0425102Y0327627D02*
X0421799Y0327627D01*
X0423205Y0328426D02*
X0425563Y0328426D01*
X0426024Y0329224D02*
X0424611Y0329224D01*
X0426017Y0330023D02*
X0426755Y0330023D01*
X0447488Y0337209D02*
X0456451Y0337209D01*
X0454150Y0290097D02*
X0387916Y0290097D01*
X0387903Y0289299D02*
X0451128Y0289299D01*
X0449334Y0288500D02*
X0387903Y0288500D01*
X0387903Y0287702D02*
X0447541Y0287702D01*
X0445747Y0286903D02*
X0387903Y0286903D01*
X0387903Y0286105D02*
X0444484Y0286105D01*
X0443385Y0285306D02*
X0387903Y0285306D01*
X0387903Y0284508D02*
X0442286Y0284508D01*
X0441187Y0283709D02*
X0387903Y0283709D01*
X0387903Y0282911D02*
X0440088Y0282911D01*
X0439591Y0282549D02*
X0439591Y0282549D01*
X0439591Y0282549D01*
X0439197Y0282112D02*
X0387903Y0282112D01*
X0387903Y0281314D02*
X0438478Y0281314D01*
X0437759Y0280515D02*
X0387903Y0280515D01*
X0387903Y0279717D02*
X0437040Y0279717D01*
X0436321Y0278918D02*
X0387903Y0278918D01*
X0387903Y0278120D02*
X0435602Y0278120D01*
X0434883Y0277321D02*
X0387903Y0277321D01*
X0387903Y0276523D02*
X0434410Y0276523D01*
X0434849Y0277283D02*
X0434849Y0277283D01*
X0433949Y0275724D02*
X0387903Y0275724D01*
X0387903Y0274926D02*
X0433488Y0274926D01*
X0433027Y0274127D02*
X0387903Y0274127D01*
X0387903Y0273328D02*
X0432566Y0273328D01*
X0432105Y0272530D02*
X0387903Y0272530D01*
X0387903Y0271731D02*
X0431644Y0271731D01*
X0431236Y0270933D02*
X0387903Y0270933D01*
X0388989Y0270134D02*
X0430977Y0270134D01*
X0430717Y0269336D02*
X0391447Y0269336D01*
X0392621Y0268537D02*
X0430458Y0268537D01*
X0430199Y0267739D02*
X0393720Y0267739D01*
X0394819Y0266940D02*
X0429939Y0266940D01*
X0429680Y0266142D02*
X0395471Y0266142D01*
X0394972Y0266829D02*
X0394972Y0266829D01*
X0394972Y0266829D01*
X0396051Y0265343D02*
X0429420Y0265343D01*
X0429161Y0264545D02*
X0396632Y0264545D01*
X0397212Y0263746D02*
X0429046Y0263746D01*
X0429116Y0264406D02*
X0429116Y0264406D01*
X0428962Y0262948D02*
X0397595Y0262948D01*
X0397435Y0263439D02*
X0397435Y0263439D01*
X0397854Y0262149D02*
X0428878Y0262149D01*
X0428795Y0261351D02*
X0398114Y0261351D01*
X0398373Y0260552D02*
X0428711Y0260552D01*
X0428627Y0259754D02*
X0398632Y0259754D01*
X0398730Y0258955D02*
X0428543Y0258955D01*
X0428459Y0258157D02*
X0398730Y0258157D01*
X0398730Y0257358D02*
X0428375Y0257358D01*
X0428375Y0257358D01*
X0428459Y0256560D02*
X0398730Y0256560D01*
X0398730Y0255761D02*
X0428543Y0255761D01*
X0428627Y0254963D02*
X0398632Y0254963D01*
X0398373Y0254164D02*
X0428711Y0254164D01*
X0428795Y0253366D02*
X0398114Y0253366D01*
X0397854Y0252567D02*
X0428878Y0252567D01*
X0428962Y0251769D02*
X0397595Y0251769D01*
X0397435Y0251278D02*
X0397435Y0251278D01*
X0397212Y0250970D02*
X0429046Y0250970D01*
X0429116Y0250310D02*
X0429116Y0250310D01*
X0429161Y0250172D02*
X0396632Y0250172D01*
X0396051Y0249373D02*
X0429420Y0249373D01*
X0429680Y0248575D02*
X0395471Y0248575D01*
X0394972Y0247888D02*
X0394972Y0247888D01*
X0394972Y0247888D01*
X0394819Y0247776D02*
X0429939Y0247776D01*
X0430199Y0246978D02*
X0393720Y0246978D01*
X0392621Y0246179D02*
X0430458Y0246179D01*
X0430717Y0245381D02*
X0391447Y0245381D01*
X0391582Y0245424D02*
X0391582Y0245424D01*
X0388989Y0244582D02*
X0430977Y0244582D01*
X0431236Y0243784D02*
X0387903Y0243784D01*
X0387903Y0242985D02*
X0431644Y0242985D01*
X0431306Y0243571D02*
X0431306Y0243571D01*
X0432105Y0242187D02*
X0387903Y0242187D01*
X0387903Y0241388D02*
X0432566Y0241388D01*
X0433027Y0240590D02*
X0387903Y0240590D01*
X0387903Y0239791D02*
X0433488Y0239791D01*
X0433949Y0238993D02*
X0387903Y0238993D01*
X0387903Y0238194D02*
X0434410Y0238194D01*
X0434883Y0237395D02*
X0387903Y0237395D01*
X0387903Y0236597D02*
X0435602Y0236597D01*
X0436321Y0235798D02*
X0387903Y0235798D01*
X0387903Y0235000D02*
X0437040Y0235000D01*
X0447488Y0177507D02*
X0477058Y0177507D01*
X0470908Y0176709D02*
X0453638Y0176709D01*
M02*
